<svg width="202" height="104" viewBox="0 0 202 104" fill="none" xmlns="http://www.w3.org/2000/svg">
<path d="M113.307 43.4222C113.307 50.4366 105.911 53.7715 102.755 54.876C102.328 55.0252 101.841 55.0999 101.355 55.0999C100.869 55.0999 100.382 55.0252 99.9545 54.876C96.7984 53.7715 89.4033 50.4366 89.4033 43.4222C89.4033 34.0719 96.7994 24.72 99.9545 21.1557C100.382 20.6727 100.868 20.4304 101.355 20.4304C101.841 20.4304 102.328 20.6727 102.755 21.1557C105.91 24.72 113.307 34.0713 113.307 43.4222Z" fill="white"/>
<path fill-rule="evenodd" clip-rule="evenodd" d="M102.755 49.231L108.789 43.2294L106.809 41.2595L102.755 45.2901V38.0393L106.59 34.2241H106.59L104.61 32.2546L104.61 32.2546L104.61 32.2546L102.755 34.099V21.1557C101.9 20.1894 101.355 19.6478 101.355 19.6478C101.355 19.6478 101.355 19.6478 101.355 19.6478C101.355 19.6478 101.355 19.6478 101.355 19.6478V19.6479C101.35 19.6526 100.807 20.1933 99.9546 21.1557V39.6947L96.7201 36.4777L94.7388 38.4479L99.9546 43.635V54.8761C100.811 55.175 101.355 55.3107 101.355 55.3107C101.355 55.3107 101.9 55.175 102.755 54.8761C102.755 54.8761 102.755 54.8761 102.755 54.8761V49.231Z" fill="#A9A9A9"/>
<path d="M118.257 20.3827C113.743 15.8926 107.74 13.4193 101.355 13.4193C94.9703 13.4193 88.9674 15.8926 84.4526 20.3827C79.9381 24.8738 77.4517 30.8445 77.4517 37.1951C77.4517 43.5464 79.9381 49.5171 84.4526 54.0072C88.967 58.4984 94.97 60.9713 101.355 60.9713C107.739 60.9713 113.742 58.498 118.257 54.0072C122.771 49.5168 125.257 43.5464 125.257 37.1951C125.258 30.8445 122.772 24.8738 118.257 20.3827ZM116.277 52.0378C112.291 56.0014 106.992 58.1853 101.355 58.1853C95.718 58.1853 90.4191 56.0014 86.4332 52.0378C82.448 48.0728 80.2529 42.8024 80.2529 37.1951C80.2529 31.5886 82.448 26.3182 86.4332 22.3532C90.4191 18.3888 95.718 16.2057 101.355 16.2057C106.992 16.2057 112.291 18.3888 116.277 22.3532C120.262 26.3182 122.457 31.5886 122.457 37.1951C122.457 42.8024 120.262 48.0728 116.277 52.0378Z" fill="white"/>
<path d="M125.258 37.1951C125.258 43.5464 122.772 49.5171 118.258 54.0072C113.743 58.4984 107.74 60.9713 101.355 60.9713V58.1849C106.992 58.1849 112.291 56.0011 116.277 52.0374C120.262 48.0724 122.457 42.802 122.457 37.1948C122.457 31.5882 120.262 26.3178 116.277 22.3528C112.291 18.3888 106.992 16.2057 101.355 16.2057V13.4193C107.74 13.4193 113.743 15.8926 118.257 20.3827C122.772 24.8738 125.258 30.8445 125.258 37.1951Z" fill="white"/>
<path d="M117.267 24.3342C118.917 24.3342 120.255 23.0036 120.255 21.3622C120.255 19.7208 118.917 18.3902 117.267 18.3902C115.617 18.3902 114.279 19.7208 114.279 21.3622C114.279 23.0036 115.617 24.3342 117.267 24.3342Z" fill="#C6C6C6" stroke="white" stroke-width="3" stroke-miterlimit="10"/>
<path d="M85.4431 55.9942C87.0931 55.9942 88.4307 54.6638 88.4307 53.0226C88.4307 51.3813 87.0931 50.0509 85.4431 50.0509C83.7931 50.0509 82.4556 51.3813 82.4556 53.0226C82.4556 54.6638 83.7931 55.9942 85.4431 55.9942Z" fill="#A9A9A9" stroke="white" stroke-width="3" stroke-miterlimit="10"/>
<path d="M113.307 43.5827C113.307 50.6346 105.911 53.9872 102.755 55.0977C102.328 55.2477 101.841 55.3228 101.355 55.3228C100.869 55.3228 100.382 55.2477 99.9545 55.0977C96.7984 53.9872 89.4033 50.6346 89.4033 43.5827C89.4033 34.1824 96.7994 24.7804 99.9545 21.1971C100.382 20.7115 100.868 20.4679 101.355 20.4679C101.841 20.4679 102.328 20.7115 102.755 21.1971C105.91 24.7804 113.307 34.1817 113.307 43.5827Z" fill="#D0EC43"/>
<path d="M113.307 43.5827C113.307 50.6346 105.911 53.9872 102.755 55.0977C102.328 55.2477 101.841 55.3228 101.355 55.3228V20.4679C101.842 20.4679 102.328 20.7115 102.755 21.1971C105.91 24.7804 113.307 34.1817 113.307 43.5827Z" fill="#53CF55"/>
<path d="M108.789 43.3887L102.755 49.4225V55.0977C101.9 55.3983 101.355 55.5346 101.355 55.5346C101.355 55.5346 100.811 55.3983 99.9546 55.0977V43.7965L94.7388 38.5817L96.7201 36.601L99.9546 39.8352V21.1971C100.811 20.2253 101.355 19.6811 101.355 19.6811C101.355 19.6811 101.9 20.2256 102.755 21.1971V34.2095L104.61 32.3553L106.59 34.3353L102.755 38.1709V45.4604L106.809 41.4084L108.789 43.3887Z" fill="#53CF55"/>
<path d="M108.789 43.3887L102.755 49.4225V55.0977C101.899 55.3983 101.355 55.5346 101.355 55.5346V19.6811C101.355 19.6811 101.9 20.2256 102.755 21.1971V34.2095L104.61 32.3553L106.59 34.3353L102.755 38.1709V45.4604L106.809 41.4084L108.789 43.3887Z" fill="#3DA57C"/>
<path d="M118.257 20.4199C113.743 15.9058 107.74 13.4193 101.355 13.4193C94.9703 13.4193 88.9674 15.9058 84.4526 20.4199C79.9381 24.935 77.4517 30.9376 77.4517 37.3222C77.4517 43.7075 79.9381 49.7101 84.4526 54.2242C88.967 58.7393 94.97 61.2255 101.355 61.2255C107.739 61.2255 113.742 58.739 118.257 54.2242C122.771 49.7098 125.257 43.7075 125.257 37.3222C125.258 30.9376 122.772 24.935 118.257 20.4199ZM116.277 52.2442C112.291 56.2291 106.992 58.4246 101.355 58.4246C95.718 58.4246 90.4191 56.2291 86.4332 52.2442C82.448 48.258 80.2529 42.9594 80.2529 37.3222C80.2529 31.6857 82.448 26.3871 86.4332 22.4009C90.4191 18.4154 95.718 16.2206 101.355 16.2206C106.992 16.2206 112.291 18.4154 116.277 22.4009C120.262 26.3871 122.457 31.6857 122.457 37.3222C122.457 42.9594 120.262 48.258 116.277 52.2442Z" fill="#32A6CE"/>
<path d="M125.258 37.3222C125.258 43.7075 122.772 49.7101 118.258 54.2242C113.743 58.7393 107.74 61.2255 101.355 61.2255V58.4242C106.992 58.4242 112.291 56.2287 116.277 52.2439C120.262 48.2577 122.457 42.9591 122.457 37.3219C122.457 31.6854 120.262 26.3868 116.277 22.4006C112.291 18.4154 106.992 16.2206 101.355 16.2206V13.4193C107.74 13.4193 113.743 15.9058 118.257 20.4199C122.772 24.935 125.258 30.9376 125.258 37.3222Z" fill="#0079A3"/>
<path d="M117.267 24.3925C118.917 24.3925 120.255 23.0548 120.255 21.4046C120.255 19.7544 118.917 18.4167 117.267 18.4167C115.617 18.4167 114.279 19.7544 114.279 21.4046C114.279 23.0548 115.617 24.3925 117.267 24.3925Z" fill="#53CF55" stroke="white" stroke-width="3" stroke-miterlimit="10"/>
<path d="M85.4431 56.2218C87.0931 56.2218 88.4307 54.8842 88.4307 53.2342C88.4307 51.5842 87.0931 50.2466 85.4431 50.2466C83.7931 50.2466 82.4556 51.5842 82.4556 53.2342C82.4556 54.8842 83.7931 56.2218 85.4431 56.2218Z" fill="#D0EC43" stroke="white" stroke-width="3" stroke-miterlimit="10"/>
<path fill-rule="evenodd" clip-rule="evenodd" d="M45.7456 73.2366C45.2445 73.4089 44.7625 73.6546 44.2999 73.973V73.9732H44.2617C44.2933 73.1604 44.3902 72.4955 44.5519 71.9786C44.7136 71.4617 44.945 71.057 45.2463 70.7643C45.5472 70.4717 45.9198 70.2587 46.3639 70.1253C46.8077 69.992 47.3308 69.8864 47.9333 69.8082L50.1304 69.5351V67.9355L47.8856 68.2184C46.9533 68.3355 46.1575 68.5697 45.498 68.9208C44.8386 69.2719 44.2996 69.7498 43.8811 70.3546C43.4627 70.9593 43.1566 71.6942 42.9634 72.5589C42.7698 73.4236 42.6732 74.4317 42.6732 75.5825C42.6732 76.7663 42.765 77.7806 42.949 78.6258C43.1328 79.4711 43.3991 80.1637 43.7481 80.7033C44.0965 81.2432 44.5263 81.6397 45.0369 81.8934C45.5472 82.1469 46.1259 82.2737 46.7728 82.2737C47.4448 82.2737 48.0425 82.1568 48.5657 81.9226C49.0888 81.6884 49.5294 81.3553 49.8879 80.9228C50.2458 80.4906 50.5187 79.9637 50.7057 79.3427C50.8928 78.722 50.9864 78.0276 50.9864 77.2602C50.9864 76.5711 50.896 75.9598 50.7153 75.4265C50.5345 74.8933 50.2792 74.4461 49.9496 74.0853C49.6198 73.7243 49.2221 73.4498 48.756 73.2611C48.2898 73.0725 47.7681 72.9782 47.1913 72.9782C46.7284 72.9782 46.2464 73.0646 45.7456 73.2366ZM45.4913 74.5338C45.9675 74.3617 46.4314 74.2753 46.8825 74.2753C47.2063 74.2753 47.5224 74.3305 47.8307 74.4409C48.1387 74.5515 48.4118 74.7285 48.65 74.9725C48.8882 75.2165 49.0805 75.5303 49.2267 75.9139C49.3727 76.2977 49.4458 76.7623 49.4458 77.3087C49.4458 77.9007 49.3855 78.4256 49.2648 78.884C49.1443 79.3425 48.9726 79.7278 48.7502 80.0399C48.5278 80.352 48.2594 80.5877 47.9449 80.747C47.6303 80.9066 47.2764 80.986 46.8825 80.986C46.4761 80.986 46.106 80.8871 45.7724 80.6886C45.4388 80.4903 45.1544 80.191 44.9194 79.7912C44.6844 79.3914 44.5032 78.8858 44.3764 78.2745C44.2494 77.6635 44.1859 76.9381 44.1859 76.0994C44.1922 75.7808 44.2017 75.4849 44.2145 75.2117C44.5893 74.9323 45.0148 74.7061 45.4913 74.5338ZM14.5488 68.979V82.0295H16.0992V75.6407H16.1183L22.3201 82.0297H23.8705L17.5831 75.4751L23.5185 68.979H21.9681L16.1183 75.4262H16.0992V68.979H14.5488ZM30.4202 81.0054H30.4584L30.6198 82.03H31.8564V75.8459C31.8564 75.547 31.8355 75.2721 31.7943 75.0217C31.7532 74.7715 31.6852 74.5422 31.59 74.334C31.3365 73.7879 30.9195 73.3489 30.3394 73.0173C29.7592 72.6857 29.0124 72.5199 28.0994 72.5199C27.8458 72.5199 27.592 72.5329 27.3385 72.5589C27.0847 72.5848 26.844 72.6223 26.6155 72.671C26.3873 72.7197 26.1699 72.7784 25.9641 72.8465C25.758 72.915 25.5788 72.9879 25.4266 73.066V74.334C25.826 74.1779 26.2272 74.0561 26.6298 73.9682C27.0325 73.8805 27.4623 73.8366 27.9186 73.8366C28.5337 73.8366 29.0219 73.939 29.3834 74.1437C29.7449 74.3485 30.008 74.6069 30.1729 74.919C30.249 75.0686 30.3027 75.2409 30.3346 75.4359C30.3662 75.6309 30.382 75.8552 30.382 76.1088V76.7526H30.3439C30.0331 76.6355 29.6779 76.5381 29.2785 76.4599C28.8791 76.3818 28.4446 76.3396 27.9754 76.3331C27.4808 76.3331 27.029 76.4012 26.62 76.5378C26.2111 76.6744 25.8607 76.8694 25.569 77.1231C25.2773 77.3768 25.0506 77.6857 24.8889 78.0498C24.7272 78.4141 24.6464 78.8268 24.6464 79.2885C24.6464 79.7567 24.7192 80.1762 24.8653 80.5467C25.0112 80.9176 25.2158 81.2314 25.4788 81.4881C25.7419 81.7453 26.056 81.9403 26.4205 82.0734C26.785 82.2065 27.1861 82.2734 27.6237 82.2734C27.947 82.2734 28.2513 82.2375 28.5367 82.166C28.8221 82.0944 29.0852 81.9987 29.3262 81.8784C29.5672 81.758 29.7796 81.6215 29.9636 81.4686C30.1476 81.3161 30.2997 81.1615 30.4202 81.0054ZM29.4163 77.7379C29.7888 77.8095 30.1107 77.884 30.3823 77.9621V79.8154C30.3127 79.887 30.2041 79.9877 30.0557 80.1178C29.9076 80.2481 29.7273 80.378 29.516 80.508C29.3043 80.6384 29.0629 80.7505 28.7915 80.8446C28.5201 80.939 28.2264 80.986 27.9109 80.986C27.6709 80.986 27.4452 80.9518 27.2338 80.8836C27.0222 80.8154 26.8392 80.7115 26.6846 80.5715C26.5299 80.4316 26.4084 80.2543 26.3201 80.0399C26.2317 79.8251 26.1875 79.5749 26.1875 79.2888C26.1875 78.7229 26.364 78.3037 26.7177 78.0305C27.0714 77.7574 27.5604 77.6208 28.1855 77.6208C28.6336 77.6275 29.0438 77.6665 29.4163 77.7379ZM41.7451 77.2892C41.7451 77.9329 41.6828 78.5035 41.5588 79.0009C41.4346 79.4983 41.2706 79.9323 41.0668 80.3031C40.8629 80.6739 40.624 80.9845 40.3503 81.2345C40.0765 81.4849 39.793 81.6867 39.5001 81.8392C39.2071 81.992 38.9091 82.1027 38.6067 82.1708C38.3039 82.239 38.0192 82.2732 37.7519 82.2732C37.1976 82.2732 36.7166 82.1806 36.3092 81.9953C35.9015 81.81 35.5353 81.5354 35.2107 81.171H35.1828V86.565H33.7363V72.7634H34.8492L35.163 73.8169H35.1916C35.2739 73.6868 35.3801 73.5602 35.5102 73.4366C35.6402 73.3133 35.8147 73.1817 36.0333 73.0416C36.2522 72.9018 36.515 72.7799 36.8228 72.6758C37.1303 72.5719 37.465 72.5197 37.8264 72.5197C38.3338 72.5197 38.8235 72.6076 39.296 72.7832C39.7684 72.9587 40.1854 73.2384 40.5469 73.6219C40.9081 74.0057 41.1983 74.4983 41.4172 75.0996C41.6359 75.7011 41.7451 76.4308 41.7451 77.2892ZM40.2042 77.3087C40.2042 76.7691 40.1483 76.2844 40.0368 75.8555C39.9251 75.4262 39.7579 75.0604 39.5345 74.758C39.3113 74.4556 39.0372 74.2232 38.7118 74.0606C38.3865 73.8983 38.0102 73.8167 37.5829 73.8167C37.2769 73.8167 36.9978 73.8591 36.7457 73.9435C36.494 74.0282 36.2658 74.1355 36.0617 74.2654C35.8576 74.3955 35.6824 74.5353 35.5355 74.6849C35.3889 74.8347 35.2709 74.9678 35.1816 75.0849V79.9325C35.4941 80.2579 35.8496 80.5146 36.2482 80.7031C36.6468 80.8919 37.0756 80.986 37.5347 80.986C37.8154 80.986 38.1119 80.9323 38.4244 80.825C38.7369 80.7176 39.0254 80.5261 39.2902 80.2494C39.5548 79.9732 39.7732 79.5977 39.9454 79.1228C40.1181 78.6483 40.2042 78.0436 40.2042 77.3087ZM60.3997 77.4063C60.3997 78.1347 60.2982 78.7979 60.0954 79.3962C59.8923 79.9945 59.6056 80.5066 59.2346 80.9323C58.8636 81.3583 58.415 81.6882 57.8888 81.9224C57.3624 82.1566 56.7727 82.2735 56.1195 82.2735C55.4473 82.2735 54.8465 82.1564 54.3171 81.9224C53.7877 81.6882 53.3373 81.3583 52.9665 80.9323C52.5955 80.5066 52.3118 79.9945 52.1153 79.3962C51.9185 78.7979 51.8203 78.1347 51.8203 77.4063C51.8203 76.6717 51.9217 76.0053 52.1246 75.4067C52.3274 74.8085 52.6146 74.2948 52.9854 73.8656C53.3561 73.4364 53.8065 73.1048 54.3359 72.8708C54.8654 72.6366 55.4568 72.5197 56.11 72.5197C56.7757 72.5197 57.3749 72.6368 57.9076 72.8708C58.4403 73.1048 58.8904 73.4366 59.2582 73.8656C59.626 74.2948 59.9081 74.8085 60.1049 75.4067C60.3012 76.005 60.3997 76.6715 60.3997 77.4063ZM58.8586 77.4063C58.8586 76.8343 58.7903 76.3254 58.6542 75.8799C58.5179 75.4347 58.3276 75.0574 58.0836 74.7485C57.8394 74.4399 57.5494 74.2057 57.2133 74.0461C56.8771 73.8868 56.5094 73.8072 56.11 73.8072C55.7103 73.8072 55.3426 73.8868 55.0064 74.0461C54.6703 74.2057 54.3801 74.4397 54.1361 74.7485C53.8918 75.0574 53.7016 75.4347 53.5655 75.8799C53.4292 76.3254 53.3609 76.8343 53.3609 77.4063C53.3609 77.9721 53.4289 78.4778 53.5655 78.923C53.7016 79.3685 53.8936 79.744 54.1409 80.0496C54.3881 80.3555 54.6798 80.5877 55.016 80.7471C55.3519 80.9066 55.7199 80.986 56.1193 80.986C56.5187 80.986 56.8849 80.9066 57.2178 80.7471C57.5507 80.5877 57.8391 80.3555 58.0834 80.0496C58.3274 79.744 58.5177 79.3685 58.654 78.923C58.7903 78.4778 58.8586 77.9719 58.8586 77.4063ZM67.7863 77.8842V82.0295H69.2606V72.7634H67.7863V76.587H63.2303V72.7634H61.756V82.0297H63.2303V77.8842H67.7863ZM79.1968 77.4063C79.1968 78.1347 79.0954 78.7979 78.8926 79.3962C78.6895 79.9945 78.4028 80.5066 78.0318 80.9323C77.6607 81.3583 77.2121 81.6882 76.686 81.9224C76.1596 82.1566 75.5699 82.2735 74.9167 82.2735C74.2444 82.2735 73.6437 82.1564 73.1143 81.9224C72.5848 81.6882 72.1345 81.3583 71.7637 80.9323C71.3927 80.5066 71.109 79.9945 70.9124 79.3962C70.7156 78.7979 70.6175 78.1347 70.6175 77.4063C70.6175 76.6717 70.7189 76.0053 70.9217 75.4067C71.1246 74.8085 71.4118 74.2948 71.7825 73.8656C72.1533 73.4364 72.6037 73.1048 73.1331 72.8708C73.6625 72.6366 74.254 72.5197 74.9071 72.5197C75.5729 72.5197 76.1721 72.6368 76.7048 72.8708C77.2375 73.1048 77.6876 73.4366 78.0554 73.8656C78.4229 74.2948 78.7053 74.8085 78.9021 75.4067C79.0987 76.005 79.1968 76.6715 79.1968 77.4063ZM77.656 77.4063C77.656 76.8343 77.5877 76.3254 77.4516 75.8799C77.3153 75.4347 77.125 75.0574 76.881 74.7485C76.6368 74.4399 76.3468 74.2057 76.0107 74.0461C75.6746 73.8868 75.3068 73.8072 74.9074 73.8072C74.5078 73.8072 74.14 73.8868 73.8039 74.0461C73.4677 74.2057 73.1775 74.4397 72.9335 74.7485C72.6893 75.0574 72.499 75.4347 72.3629 75.8799C72.2266 76.3254 72.1583 76.8343 72.1583 77.4063C72.1583 77.9721 72.2264 78.4778 72.3629 78.923C72.499 79.3685 72.691 79.744 72.9383 80.0496C73.1856 80.3555 73.4773 80.5877 73.8134 80.7471C74.1493 80.9066 74.5173 80.986 74.9167 80.986C75.3161 80.986 75.6823 80.9066 76.0152 80.7471C76.3481 80.5877 76.6365 80.3555 76.8808 80.0496C77.1248 79.744 77.3151 79.3685 77.4514 78.923C77.5877 78.4778 77.656 77.9719 77.656 77.4063ZM86.6455 77.3818C86.4329 77.2877 86.2187 77.2305 86.0033 77.211V77.1723C86.1934 77.1139 86.3807 77.031 86.5647 76.9236C86.7487 76.8163 86.9101 76.6832 87.0497 76.5236C87.1892 76.3643 87.3019 76.1723 87.3876 75.9481C87.4732 75.7238 87.5161 75.4654 87.5161 75.1727C87.5161 74.6786 87.3843 74.2411 87.1212 73.8608C86.8581 73.4805 86.4698 73.1961 85.9559 73.0073C85.7405 72.9292 85.49 72.8693 85.2046 72.8268C84.9191 72.7846 84.5767 72.7634 84.1773 72.7634H80.5532V82.0297H83.9871C84.4055 82.0297 84.7718 82.0087 85.0856 81.9663C85.3996 81.9241 85.6735 81.8639 85.9082 81.7858C86.5298 81.571 86.9974 81.2444 87.3112 80.8054C87.6253 80.3665 87.7822 79.8643 87.7822 79.2985C87.7822 78.9604 87.73 78.6645 87.6253 78.4108C87.5206 78.1571 87.384 77.9461 87.2161 77.7768C87.0482 77.6078 86.8581 77.4762 86.6455 77.3818ZM85.1458 76.5086C84.9513 76.5673 84.6686 76.5965 84.2981 76.5965V76.5963H82.0275V74.0408H84.1756C84.7158 74.0408 85.1114 74.109 85.3627 74.2456C85.7709 74.4539 85.975 74.8147 85.975 75.3283C85.975 75.6209 85.9072 75.8681 85.7724 76.0697C85.6373 76.2714 85.4285 76.4177 85.1458 76.5086ZM84.8506 80.7031C84.6149 80.7358 84.3275 80.7518 83.9881 80.7518H82.0275V77.8745H84.3274C84.7484 77.8745 85.0785 77.9169 85.3173 78.0013C85.6062 78.1054 85.8326 78.268 85.9961 78.489C86.1595 78.71 86.2411 78.9864 86.2411 79.318C86.2411 79.6041 86.1816 79.8528 86.0621 80.0641C85.9426 80.2756 85.7383 80.4396 85.4493 80.5567C85.2856 80.6219 85.0863 80.6706 84.8506 80.7031ZM90.6128 72.7634V76.3333C90.8917 76.2944 91.1804 76.2637 91.4784 76.2407C91.7764 76.218 92.0457 76.2065 92.287 76.2065C92.9843 76.2065 93.5773 76.2814 94.0653 76.4307C94.5536 76.5805 94.9517 76.7853 95.2592 77.0452C95.5667 77.3054 95.7902 77.6095 95.93 77.9571C96.0693 78.3052 96.1393 78.6805 96.1393 79.0838C96.1393 79.5976 96.0329 80.0461 95.8205 80.4299C95.6077 80.8137 95.3132 81.1291 94.9361 81.376C94.5586 81.6232 94.1085 81.8085 93.5853 81.9321C93.0622 82.0554 92.4868 82.1174 91.859 82.1174C91.3135 82.1174 90.8159 82.0864 90.3656 82.0247C89.9152 81.963 89.5063 81.8737 89.1385 81.7565V72.7634H90.6128ZM91.992 80.8299C92.7973 80.8299 93.4314 80.6853 93.8943 80.3959C94.357 80.1068 94.592 79.6791 94.5982 79.1132C94.5982 78.8858 94.552 78.671 94.4604 78.4695C94.3683 78.268 94.2305 78.0975 94.0465 77.9574C93.8625 77.8175 93.6217 77.7054 93.3235 77.6208C93.0253 77.5364 92.6608 77.4939 92.2297 77.4939C92.0015 77.4939 91.7603 77.5037 91.5068 77.5232C91.253 77.5426 90.9552 77.5786 90.6126 77.6305V80.7031C90.7901 80.7488 91.0042 80.7812 91.2547 80.8007C91.5053 80.8202 91.751 80.8299 91.992 80.8299ZM97.4613 82.0295V72.7634H98.9356V82.0295H97.4613ZM106.442 80.8347C106.039 80.9161 105.593 80.9565 105.105 80.9565C104.636 80.9565 104.198 80.8981 103.793 80.7807C103.386 80.6636 103.033 80.4769 102.732 80.2199C102.43 79.9632 102.193 79.6284 102.019 79.2154C101.844 78.8026 101.757 78.3002 101.757 77.7085H107.997C108.002 77.5134 108.006 77.3883 108.006 77.3329V77.1329C108.006 76.3134 107.913 75.6112 107.726 75.0259C107.539 74.4406 107.285 73.963 106.962 73.5922C106.64 73.2214 106.259 72.9499 105.819 72.7776C105.379 72.6056 104.906 72.5192 104.4 72.5192C103.863 72.5192 103.347 72.6233 102.854 72.8313C102.36 73.0396 101.924 73.3517 101.544 73.7677C101.165 74.184 100.861 74.7026 100.633 75.3233C100.406 75.9446 100.292 76.6777 100.292 77.5229C100.292 78.3814 100.409 79.1145 100.644 79.7225C100.88 80.3308 101.205 80.8232 101.619 81.2002C102.034 81.5773 102.525 81.8505 103.093 82.0195C103.661 82.1886 104.268 82.2732 104.915 82.2732C105.46 82.2732 105.971 82.226 106.447 82.1319C106.922 82.0375 107.321 81.9091 107.645 81.7466V80.4884C107.245 80.6382 106.844 80.7535 106.442 80.8347ZM103.379 74.0216C103.671 73.8851 103.987 73.8169 104.327 73.8169C104.674 73.8169 104.979 73.8836 105.242 74.0169C105.505 74.1502 105.727 74.3338 105.907 74.568C106.087 74.8022 106.223 75.0769 106.316 75.3922C106.409 75.7079 106.456 76.0475 106.456 76.4115H101.833C101.865 76.0539 101.949 75.7176 102.083 75.402C102.218 75.0866 102.395 74.8119 102.613 74.5777C102.831 74.3435 103.086 74.1582 103.379 74.0216ZM122.276 68.979V82.0297H120.725V70.5004H114.2V82.0295H112.65V68.979H122.276ZM132.127 79.3962C132.33 78.7979 132.431 78.1347 132.431 77.4063C132.431 76.6715 132.332 76.005 132.136 75.4067C131.939 74.8085 131.657 74.2948 131.289 73.8656C130.921 73.4366 130.471 73.105 129.939 72.8708C129.406 72.6368 128.806 72.5197 128.141 72.5197C127.488 72.5197 126.896 72.6368 126.367 72.8708C125.837 73.1048 125.387 73.4364 125.016 73.8656C124.645 74.2948 124.358 74.8085 124.155 75.4067C123.952 76.0053 123.851 76.6717 123.851 77.4063C123.851 78.1347 123.949 78.7979 124.146 79.3962C124.342 79.9945 124.626 80.5066 124.997 80.9323C125.368 81.3583 125.818 81.6884 126.348 81.9224C126.877 82.1564 127.478 82.2735 128.151 82.2735C128.803 82.2735 129.393 82.1566 129.92 81.9224C130.446 81.6882 130.894 81.3583 131.265 80.9323C131.637 80.5066 131.923 79.9945 132.127 79.3962ZM130.686 75.8799C130.822 76.3254 130.89 76.8343 130.89 77.4063C130.89 77.9719 130.822 78.4778 130.685 78.923C130.549 79.3685 130.359 79.744 130.115 80.0496C129.871 80.3555 129.582 80.5877 129.249 80.7471C128.916 80.9066 128.55 80.986 128.151 80.986C127.751 80.986 127.383 80.9066 127.047 80.7471C126.711 80.5877 126.42 80.3555 126.172 80.0496C125.925 79.744 125.733 79.3685 125.597 78.923C125.46 78.4778 125.393 77.9721 125.393 77.4063C125.393 76.8343 125.46 76.3254 125.597 75.8799C125.733 75.4347 125.923 75.0574 126.167 74.7485C126.411 74.4397 126.701 74.2057 127.038 74.0461C127.374 73.8868 127.742 73.8072 128.141 73.8072C128.541 73.8072 128.908 73.8868 129.245 74.0461C129.581 74.2057 129.871 74.4399 130.115 74.7485C130.359 75.0574 130.549 75.4347 130.686 75.8799ZM140.788 72.7634V82.0295H139.313V74.0606H137.211C137.029 75.335 136.815 76.4227 136.569 77.3231C136.323 78.2238 136.066 78.9749 135.797 79.5762C135.529 80.1777 135.263 80.6556 135 81.0099C134.736 81.3645 134.47 81.628 134.201 81.8C133.931 81.9723 133.665 82.0844 133.402 82.1366C133.138 82.1885 132.889 82.2147 132.655 82.2147C132.503 82.2147 132.373 82.205 132.265 82.1855V80.6152C132.347 80.6284 132.423 80.6347 132.493 80.6347C132.728 80.6411 132.945 80.6119 133.144 80.5468C133.345 80.4818 133.531 80.3662 133.706 80.2004C133.88 80.0346 134.058 79.7794 134.238 79.4348C134.419 79.0903 134.593 78.6271 134.761 78.045C134.93 77.4632 135.096 76.7413 135.261 75.8796C135.426 75.0182 135.584 73.9794 135.737 72.7634H140.788ZM142.667 82.0295H143.961L147.528 77.1334C147.826 76.7236 148.103 76.3303 148.36 75.953C148.617 75.576 148.834 75.2377 149.012 74.9385H149.049C149.018 75.5628 149.002 76.2327 149.002 76.9478V82.0295H150.476V72.7634H149.183L145.606 77.6597C145.308 78.0695 145.033 78.463 144.779 78.8401C144.525 79.2174 144.309 79.5557 144.132 79.8546H144.094C144.126 79.4254 144.142 78.7557 144.142 77.8453V72.7634H142.667V82.0295ZM158.567 74.1387H153.897V82.0297H152.356V72.7634H158.567V74.1387ZM167.181 79.3962C167.384 78.7979 167.486 78.1347 167.486 77.4063C167.486 76.6715 167.387 76.005 167.19 75.4067C166.994 74.8085 166.711 74.2948 166.344 73.8656C165.976 73.4366 165.526 73.105 164.993 72.8708C164.46 72.6368 163.861 72.5197 163.195 72.5197C162.543 72.5197 161.951 72.6368 161.422 72.8708C160.892 73.1048 160.442 73.4364 160.071 73.8656C159.7 74.2948 159.413 74.8085 159.21 75.4067C159.007 76.0053 158.906 76.6717 158.906 77.4063C158.906 78.1347 159.004 78.7979 159.201 79.3962C159.397 79.9945 159.681 80.5066 160.052 80.9323C160.423 81.3583 160.873 81.6884 161.403 81.9224C161.932 82.1564 162.533 82.2735 163.206 82.2735C163.858 82.2735 164.448 82.1566 164.975 81.9224C165.5 81.6882 165.949 81.3583 166.32 80.9323C166.692 80.5066 166.978 79.9945 167.181 79.3962ZM165.74 75.8799C165.877 76.3254 165.945 76.8343 165.945 77.4063C165.945 77.9719 165.877 78.4778 165.74 78.923C165.604 79.3685 165.413 79.744 165.17 80.0496C164.926 80.3555 164.637 80.5877 164.304 80.7471C163.971 80.9066 163.605 80.986 163.206 80.986C162.806 80.986 162.438 80.9066 162.102 80.7471C161.766 80.5877 161.474 80.3555 161.227 80.0496C160.98 79.744 160.788 79.3685 160.652 78.923C160.515 78.4778 160.447 77.9721 160.447 77.4063C160.447 76.8343 160.515 76.3254 160.652 75.8799C160.788 75.4347 160.978 75.0574 161.222 74.7485C161.466 74.4397 161.756 74.2057 162.093 74.0461C162.429 73.8868 162.797 73.8072 163.196 73.8072C163.595 73.8072 163.963 73.8868 164.3 74.0461C164.635 74.2057 164.926 74.4399 165.17 74.7485C165.413 75.0574 165.604 75.4347 165.74 75.8799ZM174.873 82.0295V77.8842H170.317V82.0297H168.842V72.7634H170.317V76.587H174.873V72.7634H176.347V82.0295H174.873ZM179.701 76.3333V72.7634H178.226V81.7565C178.594 81.8737 179.003 81.963 179.454 82.0247C179.904 82.0864 180.401 82.1174 180.947 82.1174C181.575 82.1174 182.15 82.0557 182.673 81.9321C183.197 81.8085 183.647 81.6232 184.024 81.376C184.401 81.1291 184.696 80.8137 184.909 80.4299C185.121 80.0461 185.227 79.5976 185.227 79.0838C185.227 78.6805 185.157 78.3052 185.018 77.9571C184.878 77.6095 184.655 77.3054 184.347 77.0452C184.04 76.7853 183.642 76.5805 183.153 76.4307C182.665 76.2814 182.072 76.2065 181.375 76.2065C181.134 76.2065 180.864 76.218 180.567 76.2407C180.269 76.2637 179.98 76.2944 179.701 76.3333ZM182.982 80.3959C182.52 80.6853 181.886 80.8299 181.08 80.8299C180.839 80.8299 180.594 80.8202 180.343 80.8007C180.093 80.7812 179.878 80.7488 179.701 80.7031V77.6305C180.044 77.5786 180.341 77.5426 180.595 77.5232C180.849 77.5037 181.09 77.4939 181.318 77.4939C181.749 77.4939 182.114 77.5364 182.412 77.6208C182.71 77.7054 182.951 77.8175 183.135 77.9574C183.319 78.0975 183.457 78.268 183.549 78.4695C183.64 78.671 183.687 78.8858 183.687 79.1132C183.68 79.6791 183.445 80.1068 182.982 80.3959ZM186.549 72.7634V82.0295H188.024V72.7634H186.549Z" fill="black"/>
<path fill-rule="evenodd" clip-rule="evenodd" d="M77.3603 94.7641V89.6401L73.8358 94.7641H73.2936V88.4717H73.9262V93.5956L77.4507 88.4717H77.993V94.7641H77.3603ZM74.4684 87.7526V87.2312H76.8181V87.7526H74.4684ZM49.8423 93.9236C49.2097 94.5561 48.4355 94.8722 47.5197 94.8722C46.6039 94.8722 45.8298 94.5561 45.1971 93.9236C44.5645 93.2916 44.2482 92.5231 44.2482 91.6179C44.2482 90.7132 44.5645 89.9447 45.1971 89.3124C45.8298 88.6802 46.6039 88.3641 47.5197 88.3641C48.4352 88.3641 49.2097 88.6802 49.8423 89.3124C50.4749 89.9447 50.7912 90.7132 50.7912 91.6179C50.7912 92.5231 50.4749 93.2916 49.8423 93.9236ZM45.6397 93.4921C46.1458 94.0048 46.7724 94.2607 47.5195 94.2607C48.2665 94.2607 48.8931 94.0048 49.3992 93.4921C49.9053 92.98 50.1583 92.3553 50.1583 91.6179C50.1583 90.881 49.9053 90.2563 49.3992 89.7437C48.8931 89.2313 48.2665 88.9751 47.5195 88.9751C46.7721 88.9751 46.1458 89.2313 45.6397 89.7437C45.1336 90.2563 44.8806 90.881 44.8806 91.6179C44.8808 92.3553 45.1336 92.98 45.6397 93.4921ZM41.1304 88.4717C41.6967 88.4717 42.1697 88.6605 42.5492 89.038C42.9288 89.4158 43.1186 89.886 43.1186 90.4493C43.1186 91.0126 42.9288 91.4833 42.5492 91.8606C42.1697 92.2381 41.6967 92.4269 41.1304 92.4269H39.5037V94.7641H38.8711V88.4717H41.1304ZM41.1304 91.8339C41.522 91.8339 41.8458 91.7035 42.1019 91.4429C42.358 91.1819 42.486 90.8511 42.486 90.4493C42.486 90.048 42.358 89.7167 42.1019 89.456C41.8456 89.1953 41.522 89.065 41.1304 89.065H39.5037V91.8339H41.1304ZM52.9056 93.9281C53.5322 94.5574 54.3245 94.8722 55.2824 94.8722C55.8668 94.8722 56.4046 94.7312 56.8956 94.45C57.3866 94.1683 57.7616 93.7908 58.0207 93.3174L57.4604 93.0027C57.2616 93.386 56.9664 93.6919 56.5748 93.9196C56.1831 94.1474 55.7524 94.261 55.2824 94.261C54.4932 94.261 53.8485 94.0063 53.3485 93.4969C52.8484 92.9875 52.5984 92.3615 52.5984 91.6182C52.5984 90.8756 52.8482 90.2491 53.3485 89.7397C53.8485 89.2303 54.4932 88.9753 55.2824 88.9753C55.7524 88.9753 56.1831 89.0895 56.5748 89.3172C56.9664 89.5449 57.2616 89.8505 57.4604 90.2341L58.0207 89.9102C57.7554 89.437 57.3791 89.0607 56.8911 88.7821C56.403 88.5034 55.8668 88.3641 55.2824 88.3641C54.3245 88.3641 53.5322 88.6785 52.9056 89.3077C52.2791 89.9372 51.9658 90.7073 51.9658 91.6179C51.9658 92.5288 52.2788 93.2989 52.9056 93.9281ZM62.467 94.8722C61.5091 94.8722 60.7168 94.5574 60.0902 93.9281C59.4634 93.2989 59.1504 92.5288 59.1504 91.6179C59.1504 90.7073 59.4636 89.9372 60.0902 89.3077C60.7168 88.6785 61.5091 88.3641 62.467 88.3641C63.0514 88.3641 63.5876 88.5034 64.0756 88.7821C64.5637 89.0607 64.9399 89.437 65.2053 89.9102L64.645 90.2341C64.4462 89.8505 64.1509 89.5449 63.7593 89.3172C63.3677 89.0895 62.9369 88.9753 62.467 88.9753C61.6778 88.9753 61.0331 89.2303 60.5331 89.7397C60.0327 90.2491 59.783 90.8756 59.783 91.6182C59.783 92.3615 60.033 92.9875 60.5331 93.4969C61.0331 94.0063 61.6778 94.261 62.467 94.261C62.9369 94.261 63.3677 94.1474 63.7593 93.9196C64.1509 93.6919 64.4462 93.386 64.645 93.0027L65.2053 93.3174C64.9462 93.7908 64.5712 94.1683 64.0802 94.45C63.5889 94.7312 63.0512 94.8722 62.467 94.8722ZM70.7632 89.64V94.7641H71.3958V88.4717H70.8536L67.329 93.5955V88.4717H66.6964V94.7641H67.2387L70.7632 89.64ZM80.4689 93.9281C81.0955 94.5574 81.8878 94.8722 82.8457 94.8722C83.4301 94.8722 83.9678 94.7312 84.4588 94.45C84.9499 94.1683 85.3249 93.7908 85.584 93.3174L85.0237 93.0027C84.8248 93.386 84.5296 93.6919 84.138 93.9196C83.7464 94.1474 83.3156 94.261 82.8457 94.261C82.0564 94.261 81.4118 94.0063 80.9117 93.4969C80.4117 92.9875 80.1616 92.3615 80.1616 91.6182C80.1616 90.8756 80.4114 90.2491 80.9117 89.7397C81.4118 89.2303 82.0564 88.9753 82.8457 88.9753C83.3156 88.9753 83.7464 89.0895 84.138 89.3172C84.5296 89.5449 84.8248 89.8505 85.0237 90.2341L85.584 89.9102C85.3186 89.437 84.9423 89.0607 84.4543 88.7821C83.9663 88.5034 83.4301 88.3641 82.8457 88.3641C81.8878 88.3641 81.0955 88.6785 80.4689 89.3077C79.8423 89.9372 79.529 90.7073 79.529 91.6179C79.529 92.5288 79.8421 93.2989 80.4689 93.9281ZM91.5033 94.7641H90.6719L87.7077 91.7168V94.7641H87.0751V88.4717H87.7077V91.3482L90.5815 88.4717H91.413L88.3765 91.528L91.5033 94.7641ZM95.1363 94.8722C96.0521 94.8722 96.8263 94.5561 97.4589 93.9236C98.0915 93.2916 98.4078 92.5231 98.4078 91.6179C98.4078 90.7132 98.0915 89.9447 97.4589 89.3124C96.8263 88.6802 96.0518 88.3641 95.1363 88.3641C94.2205 88.3641 93.4464 88.6802 92.8138 89.3124C92.1811 89.9447 91.8648 90.7132 91.8648 91.6179C91.8648 92.5231 92.1811 93.2916 92.8138 93.9236C93.4464 94.5561 94.2205 94.8722 95.1363 94.8722ZM95.1363 94.2607C94.3892 94.2607 93.7627 94.0048 93.2566 93.4921C92.7505 92.98 92.4974 92.3553 92.4974 91.6179C92.4974 90.881 92.7505 90.2563 93.2566 89.7437C93.7627 89.2313 94.389 88.9751 95.1363 88.9751C95.8834 88.9751 96.51 89.2313 97.0161 89.7437C97.5221 90.2563 97.7752 90.881 97.7752 91.6179C97.7752 92.3553 97.5221 92.98 97.0161 93.4921C96.51 94.0048 95.8834 94.2607 95.1363 94.2607ZM104.011 94.7641V89.6401L100.486 94.7641H99.9438V88.4717H100.576V93.5956L104.101 88.4717H104.643V94.7641H104.011ZM101.119 87.7526V87.2312H103.468V87.7526H101.119ZM115.524 91.6176C115.524 90.875 115.245 90.2937 114.688 89.874C114.131 89.4547 113.394 89.2238 112.478 89.1818V88.4717H111.846V89.1818C110.93 89.2238 110.193 89.4545 109.636 89.874C109.078 90.2935 108.8 90.8748 108.8 91.6176C108.8 92.3607 109.078 92.942 109.636 93.3615C110.193 93.7808 110.93 94.0118 111.846 94.0535V94.7638H112.478V94.0535C113.394 94.0118 114.131 93.781 114.688 93.3615C115.245 92.9423 115.524 92.361 115.524 91.6176ZM109.433 91.6179C109.433 91.0428 109.65 90.5976 110.084 90.283C110.517 89.9684 111.105 89.7931 111.846 89.7574V93.4789C111.105 93.4429 110.517 93.2677 110.084 92.953C109.65 92.6382 109.433 92.1934 109.433 91.6179ZM114.241 92.953C113.807 93.2674 113.219 93.4427 112.478 93.4789V89.7574C113.22 89.7931 113.807 89.9684 114.241 90.283C114.675 90.5976 114.891 91.0428 114.891 91.6179C114.891 92.1934 114.675 92.6382 114.241 92.953ZM117.603 94.1708H120.675V94.7641H116.97V88.4717H120.63V89.065H117.603V91.2945H120.404V91.8876H117.603V94.1708ZM127.408 94.1708H126.73V88.4717H122.763V91.9235C122.763 92.9366 122.555 93.6856 122.139 94.1708H121.624V95.9686H122.256V94.7641H126.775V95.9686H127.408V94.1708ZM126.097 94.1708H122.889C123.227 93.6797 123.395 92.9366 123.395 91.9418V89.065H126.097V94.1708ZM129.531 94.1708H132.604V94.7641H128.899V88.4717H132.559V89.065H129.531V91.2945H132.333V91.8876H129.531V94.1708H129.531ZM137.818 89.038C137.439 88.6605 136.966 88.4717 136.399 88.4717H134.14V94.7641H134.773V92.4269H136.399C136.966 92.4269 137.439 92.2379 137.818 91.8606C138.198 91.4833 138.388 91.0126 138.388 90.4493C138.388 89.886 138.198 89.4158 137.818 89.038ZM137.371 91.4429C137.115 91.7035 136.791 91.8339 136.399 91.8339H134.773V89.065H136.399C136.791 89.065 137.115 89.1953 137.371 89.456C137.627 89.7167 137.755 90.048 137.755 90.4493C137.755 90.8511 137.627 91.1819 137.371 91.4429ZM143.503 94.7641L142.916 93.218H139.915L139.328 94.7641H138.659L141.09 88.4717H141.741L144.172 94.7641H143.503ZM142.689 92.6249L141.415 89.254L140.141 92.6249H142.689ZM150.633 94.1708H149.955V88.4717H149.323V94.1708H146.07V88.4717H145.437V94.7641H150V95.9686H150.633V94.1708ZM156.191 94.7641V89.64L152.667 94.7641H152.124V88.4717H152.757V93.5955L156.282 88.4717H156.824V94.7641H156.191ZM162.788 89.64V94.7641H163.421V88.4717H162.879L159.354 93.5955V88.4717H158.721V94.7641H159.264L162.788 89.64Z" fill="#808285"/>
</svg>
