<svg width="241" height="104" viewBox="0 0 241 104" fill="none" xmlns="http://www.w3.org/2000/svg">
<path fill-rule="evenodd" clip-rule="evenodd" d="M85.7288 39.4315C85.1982 40.7173 80.8423 52.1471 80.8423 52.1471L82.7807 36.9032H67.8262L64.6938 66.3462H75.9631C78.7933 66.3462 79.7588 64.9986 80.2305 63.9168C80.7981 62.6311 84.9476 53.0125 84.9476 53.0125L83.4219 66.3462H98.3838L101.465 36.9156H89.7236C88.8211 36.9101 87.9414 37.1533 87.2197 37.6078C86.498 38.0624 85.9742 38.7031 85.7288 39.4315ZM62.6448 49.6682C62.6448 49.6682 63.5145 41.3972 63.603 40.5874C63.6287 40.1166 63.5412 39.6463 63.3456 39.2044C63.15 38.7626 62.8504 38.3583 62.4645 38.0157C62.0787 37.673 61.6145 37.399 61.0998 37.21C60.585 37.021 60.0301 36.9209 59.4682 36.9156H34.5784C33.431 36.8489 32.2983 37.1636 31.4253 37.7917C30.5522 38.4198 30.009 39.3108 29.913 40.2722C29.8511 40.8156 29.1768 47.3242 28.5734 53.1494L28.5733 53.1503C28.0991 57.7283 27.6686 61.884 27.6134 62.39C27.5399 62.8796 27.5901 63.3768 27.7606 63.8491C27.9312 64.3214 28.2184 64.7583 28.6035 65.1315C28.9886 65.5046 29.463 65.8056 29.9959 66.0149C30.5289 66.2242 31.1083 66.337 31.6966 66.3462H56.439C59.7261 66.3462 61.0012 64.8873 61.2813 62.6372C61.4508 61.2896 62.2616 53.1485 62.2616 53.1485H47.2997L46.6585 59.4413H42.8701L44.499 43.8204H48.2873L47.683 49.6682H62.6448ZM160.111 50.3359L161.511 36.9156H176.451C176.451 36.9156 173.878 61.3638 173.709 62.8783C173.444 65.2397 171.498 66.3462 169.478 66.3462H139.709L140.446 59.4414H159.167L159.477 56.4557H145.407C142.097 56.4557 140.992 54.1376 141.169 52.4994C141.324 51.1333 142.761 36.9156 142.761 36.9156H157.715L156.315 50.3359H160.111ZM200.544 36.9217H180.232L177.166 66.3461H192.12L193.071 57.2406H207.605C210.178 57.2406 211.88 56.1403 212.16 53.6182C212.176 53.4715 212.215 53.0984 212.271 52.5664C212.593 49.5334 213.461 41.3371 213.524 40.5009C213.708 38.3249 211.644 36.9217 209.101 36.9217H200.544ZM193.712 51.1394L194.449 43.8389H198.201L197.464 51.1394H193.712ZM119.522 43.8205L119.205 46.8H133.039C136.186 46.8 137.793 48.6359 137.572 50.7562C137.5 51.4303 137.293 53.3922 137.063 55.5693C136.751 58.5229 136.397 61.8726 136.282 62.9402C136.017 65.4004 133.961 66.34 132.059 66.34H102.209L105.275 36.9156H138.995L138.257 43.8205H119.522ZM117.805 60.2202H121.623L122.352 52.926H118.542L117.805 60.2202Z" fill="#008C95"/>
</svg>
