<svg width="127" height="77" viewBox="0 0 127 77" fill="none" xmlns="http://www.w3.org/2000/svg">
<path fill-rule="evenodd" clip-rule="evenodd" d="M38.4589 21.9872L28.7364 16.4006L0.741699 32.5739V43.5311L10.1556 49.0251V38.3148L38.4589 21.9872Z" fill="#00AEFF"/>
<path fill-rule="evenodd" clip-rule="evenodd" d="M19.6005 74.1184V43.5927L10.1558 49.025V68.6244L19.6005 74.1184Z" fill="#00AEFF"/>
<path fill-rule="evenodd" clip-rule="evenodd" d="M111.918 12.0485C111.147 11.6164 110.406 11.1843 109.665 10.7522C110.406 10.3201 111.116 9.91882 111.856 9.48671C112.628 9.91882 113.369 10.3509 114.11 10.783C114.357 10.6287 114.603 10.5053 114.881 10.3509C113.307 9.45584 111.764 8.52989 110.19 7.6348C109.912 7.78912 109.665 7.94345 109.418 8.06691C110.066 8.43729 110.714 8.80767 111.363 9.17805C110.622 9.61017 109.912 10.0423 109.171 10.4435C108.523 10.0731 107.875 9.70276 107.227 9.33238C106.98 9.48671 106.733 9.64103 106.455 9.76449C108.029 10.6596 109.572 11.5855 111.147 12.4806C111.394 12.3263 111.64 12.2028 111.918 12.0485Z" fill="black"/>
<path fill-rule="evenodd" clip-rule="evenodd" d="M120.529 7.07922C120.776 6.92489 121.023 6.80143 121.27 6.6471C119.696 5.75201 118.153 4.82606 116.579 3.93097C116.332 4.0853 116.085 4.20876 115.838 4.36308C117.412 5.25817 118.955 6.15326 120.529 7.07922ZM116.301 9.51757C116.887 9.17805 117.505 8.83853 118.091 8.49902C118.616 8.19036 118.863 7.91258 118.924 7.63479C118.986 7.26441 118.677 6.92489 118.153 6.61624C117.659 6.33845 117.165 6.18413 116.579 6.21499C116.116 6.24586 115.622 6.40018 115.066 6.7397C114.727 6.92489 114.387 7.14095 114.048 7.32614C113.492 7.01749 112.937 6.67797 112.381 6.36932C112.103 6.52364 111.887 6.6471 111.609 6.80143C113.183 7.69652 114.727 8.59161 116.301 9.51757ZM114.542 7.60392C114.881 7.38787 115.251 7.20268 115.591 6.98662C115.838 6.8323 116.116 6.80143 116.363 6.80143C116.733 6.80143 117.073 6.95576 117.319 7.11008C117.597 7.26441 117.937 7.51133 117.968 7.75825C117.998 7.91258 117.906 8.03604 117.628 8.19036C117.258 8.40642 116.918 8.59161 116.548 8.80767C115.9 8.40642 115.221 8.00517 114.542 7.60392Z" fill="black"/>
<path fill-rule="evenodd" clip-rule="evenodd" d="M119.326 1.55439C120.406 0.93709 119.912 0.319787 119.789 0.258057C119.542 0.319787 119.326 0.350652 119.11 0.381517C119.171 0.566708 119.388 0.81363 118.739 1.18401C118.091 1.55439 117.659 1.43093 117.32 1.40007C117.258 1.52353 117.165 1.64699 117.104 1.77045C117.227 1.86305 118.276 2.14083 119.326 1.55439ZM123.431 5.38168C123.03 4.36312 122.659 3.34457 122.289 2.35689C122.165 2.14083 122.042 1.95564 121.949 1.77045H121.98C122.196 1.92478 122.381 2.04824 122.598 2.20256C123.678 2.81987 124.727 3.43717 125.807 4.05447C126.054 3.90015 126.301 3.77669 126.548 3.62236C124.974 2.69641 123.4 1.80132 121.826 0.87536C121.579 1.02969 121.332 1.15315 121.116 1.30747C121.486 2.29516 121.857 3.28284 122.227 4.27053C122.32 4.45572 122.412 4.67178 122.536 4.85697L122.505 4.88783C122.32 4.73351 122.104 4.61005 121.918 4.45572C120.9 3.86928 119.851 3.25198 118.801 2.66554C118.554 2.81987 118.307 2.94333 118.06 3.09765C119.634 3.99274 121.178 4.9187 122.752 5.81379C122.968 5.65946 123.215 5.536 123.431 5.38168Z" fill="black"/>
<path fill-rule="evenodd" clip-rule="evenodd" d="M37.3786 45.1668C36.3601 44.5804 35.3107 43.9631 34.2921 43.3767C34.2921 44.9816 34.2921 46.6175 34.2921 48.2534C34.2921 49.8583 34.2921 51.4942 34.2921 53.0992C33.5513 52.6671 32.8414 52.2658 32.1007 51.8337C32.1007 50.1979 32.1007 48.5929 32.1007 46.9879C32.1007 45.352 32.1007 43.747 32.1007 42.1112C31.0821 41.5247 30.0327 40.9383 29.0142 40.321C29.0142 39.6111 29.0142 38.8703 29.0142 38.1296C30.0327 38.716 31.0513 39.3333 32.1007 39.9198C32.8414 40.3519 33.5513 40.7531 34.2921 41.1852C35.3107 41.7717 36.3601 42.3581 37.3786 42.9754C37.3786 43.7162 37.3786 44.4261 37.3786 45.1668ZM60.867 62.3587C60.9905 64.4576 61.1448 66.5564 61.2683 68.6552C61.9473 69.0256 62.5955 69.4269 63.2745 69.7972C63.151 68.0379 63.0276 66.2478 62.935 64.4576C62.8115 62.6983 62.6881 60.9081 62.5955 59.1179C62.5646 59.087 62.5337 59.087 62.5029 59.0562C61.8547 58.6858 61.2374 58.3154 60.5892 57.945C60.0645 58.9636 59.5707 59.9513 59.0768 60.9698C58.583 61.9884 58.0583 62.976 57.5644 63.9946C57.0706 62.4205 56.5768 60.8155 56.0829 59.2414C55.5891 57.6672 55.0952 56.0931 54.6014 54.4881C53.9532 54.1177 53.3359 53.7474 52.6877 53.377C52.6569 53.3461 52.626 53.3461 52.5952 53.3152C52.4717 54.9511 52.3791 56.6178 52.2556 58.2537C52.1322 59.9204 52.0396 61.5562 51.9161 63.1921C52.5952 63.5625 53.2433 63.9637 53.9224 64.365C54.0458 62.4513 54.1693 60.5377 54.3236 58.6241C55.0952 61.0624 55.836 63.5008 56.6076 65.9082C57.2558 66.2786 57.8731 66.649 58.5213 67.0194C59.2929 65.507 60.0954 63.9329 60.867 62.3587ZM46.0517 49.5188C43.7368 48.1916 41.8232 48.9015 41.3911 51.093C41.0516 50.9078 40.7121 50.6917 40.3725 50.5065C40.3725 49.1176 40.3725 47.7286 40.3725 46.3397C39.6318 45.9076 38.9219 45.5064 38.1811 45.0742C38.1811 46.8027 38.1811 48.5003 38.1811 50.2287C38.1811 51.9263 38.1811 53.6548 38.1811 55.3523C38.9219 55.7845 39.6318 56.1857 40.3725 56.6178C40.3725 55.3215 40.3725 53.9943 40.3725 52.6979C40.7121 52.8831 41.0516 53.0992 41.422 53.2844C41.9158 55.9079 43.7986 58.7784 46.0517 60.0747C48.6753 61.5871 50.805 60.4451 50.805 57.5129C50.805 54.6116 48.6753 51.0312 46.0517 49.5188ZM46.0517 51.7411C47.5641 52.6053 48.7987 54.7042 48.7987 56.4018C48.7987 58.0993 47.5641 58.7475 46.0517 57.8833C44.5393 57.0191 43.3047 54.9202 43.3047 53.2535C43.3356 51.5251 44.5393 50.8769 46.0517 51.7411ZM71.0525 62.4205C71.5464 64.0255 72.0402 65.6613 72.5649 67.2663C73.0588 68.8713 73.5835 70.5071 74.0773 72.1121C73.9847 72.3282 73.8921 72.5442 73.7995 72.7603C73.5835 73.285 73.4291 73.964 72.1019 73.1924C72.1019 73.9332 72.1019 74.6431 72.1019 75.3838C74.386 76.711 75.0341 75.7542 75.8366 73.9332C76.3613 72.7603 76.8552 71.5874 77.3799 70.4454C77.9046 69.2725 78.3984 68.1305 78.9232 66.9577C78.1824 66.5255 77.4108 66.0934 76.67 65.6613C76.1453 67.1737 75.6206 68.6861 75.0959 70.1985C74.5094 68.0379 73.923 65.9082 73.3366 63.7477C72.5649 63.3156 71.8242 62.8834 71.0525 62.4205ZM67.0092 62.2661C67.0092 63.902 67.0092 65.507 67.0092 67.1428C67.0092 68.7478 67.0092 70.3837 67.0092 71.9887C66.2684 71.5566 65.5585 71.1553 64.8178 70.7232C64.8178 69.1182 64.8178 67.4824 64.8178 65.8774C64.8178 64.2415 64.8178 62.6365 64.8178 61.0007C64.8178 60.2908 64.8178 59.55 64.8178 58.8092C65.5585 59.2414 66.2684 59.6426 67.0092 60.0747C68.2438 60.7846 69.4784 61.4945 70.713 62.2044C70.713 62.9452 70.713 63.6551 70.713 64.3958C69.4475 63.6859 68.2438 62.976 67.0092 62.2661Z" fill="black"/>
<path fill-rule="evenodd" clip-rule="evenodd" d="M40.1254 31.7404C38.7365 32.5429 37.3475 33.3454 35.9277 34.1479C36.1438 34.2714 36.329 34.3949 36.545 34.5183C37.1006 34.2097 37.687 33.8701 38.2426 33.5306C40.1254 34.6109 42.0082 35.6912 43.891 36.7715C44.1687 36.6171 44.4157 36.4628 44.6934 36.3085C42.8107 35.2282 40.9279 34.1479 39.0451 33.0677C39.6007 32.759 40.1563 32.4195 40.7118 32.1108C40.5266 31.9874 40.3415 31.8639 40.1254 31.7404Z" fill="black"/>
<path fill-rule="evenodd" clip-rule="evenodd" d="M47.0085 34.9813C47.2554 34.827 47.5023 34.7036 47.7493 34.5492C47.0085 34.1171 46.2677 33.685 45.527 33.2838C45.8665 33.0986 46.206 32.9134 46.5147 32.6973C47.9036 33.4689 49.3543 33.7467 50.8975 32.8516C52.5025 31.9257 52.0087 31.0615 50.5889 30.259C49.1691 29.4256 47.5949 29.117 45.99 30.0429C44.5702 30.8454 44.8788 31.6788 45.99 32.4195C45.6504 32.6356 45.3109 32.8208 44.9714 33.006C44.3232 32.6356 43.6751 32.2652 43.0269 31.8948C42.78 32.0491 42.5331 32.1726 42.2861 32.3269C43.8603 33.1912 45.4344 34.0862 47.0085 34.9813ZM47.2554 32.1726C46.206 31.5553 45.4344 30.9071 46.5147 30.2898C47.5949 29.6725 48.5826 30.012 49.8172 30.6911C51.0518 31.401 51.5457 31.9257 50.4654 32.543C49.3543 33.1912 48.3048 32.7899 47.2554 32.1726Z" fill="black"/>
<path fill-rule="evenodd" clip-rule="evenodd" d="M54.6324 26.3699C55.867 27.049 57.1325 27.728 58.3671 28.4379C58.6449 28.2836 58.8918 28.1293 59.1696 27.9749C57.5337 27.1107 55.9287 26.2465 54.2929 25.3823C53.9225 25.5983 53.5521 25.8144 53.1817 25.9996C54.0151 26.9564 54.8793 27.8823 55.7436 28.8392C55.8979 28.9626 56.0522 29.0552 56.1757 29.1787L56.1448 29.2095C55.9596 29.1169 55.7744 29.0244 55.5892 28.9626C53.9534 28.4688 52.2867 27.9749 50.6508 27.4811C50.2804 27.6971 49.91 27.9132 49.5088 28.1293C51.0212 29.0552 52.5336 30.012 54.0151 30.938C54.2312 30.8145 54.4472 30.6911 54.6941 30.5676C53.5213 29.8577 52.3175 29.1478 51.1138 28.407C50.9286 28.3145 50.7434 28.2219 50.5582 28.1293L50.5891 28.0984C52.441 28.654 54.262 29.1787 56.1139 29.7343C56.3917 29.5799 56.6695 29.4256 56.9473 29.2404C56.0213 28.191 55.0645 27.1416 54.1077 26.0922C54.1077 26.0922 54.1386 26.0922 54.1386 26.0613C54.3238 26.1539 54.4781 26.2774 54.6324 26.3699Z" fill="black"/>
<path fill-rule="evenodd" clip-rule="evenodd" d="M57.5952 23.3451C56.1137 24.2094 56.5766 25.1662 57.9964 25.9995C59.5088 26.8946 61.0212 27.0489 62.5028 26.1847C63.3361 25.7217 63.7682 25.2896 63.9226 24.981C63.6756 24.9192 63.3978 24.8575 63.1509 24.7649C62.9966 25.0736 62.6262 25.5057 61.9781 25.8761C61.3916 26.2156 60.3113 26.3699 59.0767 25.66C59.015 25.6291 58.9224 25.5674 58.8607 25.5366C59.8792 24.9501 60.9286 24.3328 61.9472 23.7464C60.1879 22.7278 59.0459 22.4809 57.5952 23.3451ZM60.7434 23.9007C59.9718 24.3637 59.1693 24.7958 58.3977 25.2588C57.5952 24.7958 57.194 24.1476 58.089 23.6229C58.9841 23.0982 59.7558 23.3451 60.7434 23.9007Z" fill="black"/>
<path fill-rule="evenodd" clip-rule="evenodd" d="M66.2068 23.9007C65.466 23.4686 64.6944 23.0365 63.9536 22.6044C64.6944 22.1722 65.4043 21.771 66.1759 21.3389C66.9476 21.771 67.6883 22.2031 68.4291 22.6352C68.676 22.4809 68.9229 22.3574 69.2007 22.2031C67.6266 21.308 66.0833 20.3821 64.5092 19.487C64.2314 19.6413 63.9845 19.7648 63.7376 19.9191C64.3857 20.2895 65.0339 20.6598 65.6821 21.0302C64.9413 21.4623 64.2006 21.8636 63.4598 22.2957C62.8116 21.9253 62.1635 21.5549 61.5153 21.1846C61.2684 21.3389 61.0214 21.4623 60.7437 21.6167C62.3178 22.5118 63.861 23.4377 65.4352 24.3328C65.7129 24.1785 65.9599 24.055 66.2068 23.9007Z" fill="black"/>
<path fill-rule="evenodd" clip-rule="evenodd" d="M69.4786 16.9869C69.0464 17.0178 68.2131 17.203 67.5341 17.6042C66.0834 18.4376 66.6081 19.3636 68.0279 20.1661C69.4477 20.9994 70.991 21.2463 72.4416 20.413C73.275 19.95 73.491 19.487 73.5219 19.3018C73.2441 19.2401 72.9972 19.1475 72.7503 19.0858C72.6885 19.3018 72.5342 19.7339 71.886 20.1043C71.1144 20.5364 70.1576 20.4438 68.8613 19.7031C67.5649 18.9623 67.2871 18.4067 68.1205 17.9438C68.7687 17.5734 69.4786 17.4808 69.8798 17.4499C69.7255 17.2956 69.602 17.1413 69.4786 16.9869Z" fill="black"/>
<path fill-rule="evenodd" clip-rule="evenodd" d="M75.713 18.4067C74.9723 17.9746 74.2315 17.5425 73.4907 17.1412C73.5833 17.0795 73.6759 17.0178 73.7994 16.956C74.1698 16.74 74.6636 16.6782 75.1266 16.8017C75.497 16.8943 75.8365 16.9869 76.2069 17.0795C76.9168 17.2647 77.4723 17.3264 77.9353 17.1721C78.1514 17.1104 78.3983 16.9869 78.6144 16.8634C78.46 16.74 78.3057 16.6474 78.1514 16.5239C77.9045 16.6782 77.6267 16.7708 77.1946 16.6782C76.7933 16.5857 76.3612 16.4931 75.96 16.4005C75.1266 16.2153 74.8488 16.1227 74.4784 16.277C74.4784 16.277 74.4476 16.277 74.4476 16.2461C74.7253 16.0301 74.6328 15.7832 74.355 15.3819C74.2624 15.2276 74.1698 15.1041 74.0463 14.9498C73.7994 14.6103 74.0463 14.456 74.2315 14.3325C74.0463 14.2399 73.8611 14.1473 73.6759 14.0856C73.3981 14.2399 73.2438 14.3634 73.1512 14.5177C72.9352 14.7955 73.0278 15.0733 73.2747 15.4128C73.3673 15.5362 73.4599 15.6906 73.5833 15.814C73.8303 16.1227 73.6451 16.4313 73.2747 16.6474C73.1821 16.7091 73.0895 16.7708 72.966 16.8326C72.3179 16.4622 71.6697 16.0918 71.0215 15.7214C70.7746 15.8758 70.5277 15.9992 70.2808 16.1535C71.8549 17.0486 73.3981 17.9746 74.9723 18.8697C75.2192 18.7153 75.4661 18.561 75.713 18.4067Z" fill="black"/>
<path fill-rule="evenodd" clip-rule="evenodd" d="M80.1885 15.814C79.7873 14.7955 79.4169 13.8078 79.0465 12.7584C78.923 12.5732 78.8305 12.388 78.707 12.1719H78.7379C78.923 12.3263 79.1391 12.4497 79.3552 12.604C80.4046 13.2213 81.4849 13.8387 82.5343 14.456C82.7812 14.3016 82.9972 14.1782 83.275 14.0238C81.7009 13.1288 80.1577 12.2028 78.5835 11.3077C78.3366 11.462 78.0897 11.5855 77.8428 11.709C78.2131 12.6966 78.5835 13.6843 78.9539 14.672C79.0465 14.8572 79.1391 15.0733 79.2626 15.2585C79.2317 15.2585 79.2317 15.2585 79.2317 15.2585C79.0156 15.135 78.8304 14.9807 78.6453 14.8572C77.6267 14.2708 76.5773 13.6535 75.5279 13.067C75.281 13.2213 75.034 13.3448 74.7871 13.4991C76.3612 14.3942 77.9045 15.3202 79.4786 16.2153C79.7255 16.0918 79.9725 15.9684 80.1885 15.814Z" fill="black"/>
<path fill-rule="evenodd" clip-rule="evenodd" d="M81.2999 8.96197C82.3493 8.34467 81.8864 7.75823 81.7938 7.6965C81.5469 7.75823 81.3308 7.7891 81.1147 7.81996C81.1765 8.00515 81.3925 8.25208 80.7444 8.62246C80.0962 8.99284 79.6332 8.86938 79.3246 8.83851C79.2628 8.99284 79.1702 9.1163 79.0776 9.23976C79.2011 9.30149 80.2505 9.57928 81.2999 8.96197ZM85.405 12.8201C85.0346 11.8016 84.6334 10.8139 84.263 9.76447C84.1704 9.57928 84.0161 9.39409 83.9235 9.17803C83.9235 9.17803 83.9543 9.17803 83.9543 9.14717C84.1395 9.30149 84.3556 9.42495 84.5716 9.57928C85.6211 10.1966 86.7013 10.8139 87.7507 11.4312C87.9977 11.2769 88.2446 11.1534 88.4915 10.9991C86.9174 10.104 85.3741 9.17803 83.8 8.28294C83.5531 8.43727 83.3062 8.56073 83.0901 8.68419C83.4605 9.67187 83.8309 10.6596 84.2013 11.6472C84.2938 11.8324 84.3864 12.0485 84.5099 12.2337C84.479 12.2337 84.479 12.2337 84.479 12.2645C84.2938 12.1411 84.0778 11.9868 83.8926 11.8633C82.8741 11.2769 81.8246 10.6596 80.7752 10.0731C80.5283 10.2274 80.2814 10.3509 80.0345 10.4744C81.6086 11.3695 83.1518 12.2954 84.726 13.1905C84.942 13.0979 85.1889 12.9436 85.405 12.8201Z" fill="black"/>
<path fill-rule="evenodd" clip-rule="evenodd" d="M56.0828 44.2717C54.6938 43.4692 53.3358 42.6976 51.9777 41.8951C52.595 41.5247 53.2432 41.1852 53.8605 40.8148C53.6753 40.6913 53.4592 40.5987 53.274 40.4753C52.3789 41 51.5147 41.4938 50.6196 41.9877C52.1938 42.8828 53.737 43.8087 55.3111 44.7038C55.5889 44.5803 55.8358 44.426 56.0828 44.2717Z" fill="black"/>
<path fill-rule="evenodd" clip-rule="evenodd" d="M56.2372 41.5247C57.657 42.3581 59.1385 42.6359 60.7435 41.7099C62.3485 40.784 61.8238 39.9197 60.404 39.1172C58.9842 38.2839 57.4101 37.9752 55.8051 38.9012C54.231 39.7963 54.8174 40.6914 56.2372 41.5247ZM57.0705 41.0309C56.0211 40.4136 55.2495 39.7654 56.3298 39.1481C57.4101 38.5308 58.3978 38.8703 59.6324 39.5802C60.867 40.2901 61.3608 40.8148 60.2805 41.4321C59.1694 42.0494 58.12 41.6482 57.0705 41.0309Z" fill="black"/>
<path fill-rule="evenodd" clip-rule="evenodd" d="M62.7496 35.3825C62.3175 35.4134 61.515 35.5986 60.8051 35.9998C59.3853 36.8332 59.8791 37.7283 61.2989 38.5616C62.7187 39.395 64.262 39.6419 65.7126 38.8394C66.546 38.3456 66.7312 37.8826 66.7929 37.6974C66.546 37.6357 66.2991 37.574 66.0213 37.4814C65.9596 37.6974 65.8052 38.0987 65.1262 38.4999C64.3546 38.932 63.3978 38.8394 62.1014 38.0987C60.8051 37.3579 60.4964 36.8023 61.3298 36.3394C61.978 35.969 62.6879 35.8764 63.0891 35.8455C62.9965 35.6912 62.873 35.5369 62.7496 35.3825Z" fill="black"/>
<path fill-rule="evenodd" clip-rule="evenodd" d="M69.8797 36.6172C70.034 36.8024 70.1883 36.9876 70.3427 37.2036C70.497 37.4505 70.497 37.6357 70.2501 37.7592C70.0649 37.8518 69.5093 38.037 69.2315 38.0987C69.3241 38.2222 69.4167 38.3148 69.5093 38.4382C69.8797 38.3765 70.4661 38.253 70.8056 38.0679C71.423 37.6975 71.423 37.2962 71.0526 36.8332C70.6822 36.3394 70.2192 35.8764 69.818 35.4134C68.9537 34.4258 68.0895 33.4381 67.2253 32.4195C66.9475 32.5739 66.6697 32.7282 66.3919 32.8825C67.2562 33.7776 68.1204 34.6418 69.0155 35.5369C69.1698 35.6912 69.355 35.8147 69.5093 35.9382C69.4784 35.9382 69.4784 35.9382 69.4784 35.969C69.2315 35.8764 68.9846 35.7838 68.7377 35.6912C67.1327 35.2283 65.5277 34.7653 63.9227 34.3023C63.6449 34.4566 63.3671 34.611 63.0894 34.7653C65.3425 35.4134 67.6265 35.9999 69.8797 36.6172Z" fill="black"/>
<path fill-rule="evenodd" clip-rule="evenodd" d="M78.2747 33.0676C77.6574 32.6973 77.0401 32.296 76.4537 31.8948C76.2376 32.0182 76.0216 32.1417 75.7747 32.296C74.3857 31.4935 72.9968 30.691 71.6079 29.8885C70.6511 30.4441 69.6634 30.9997 68.7065 31.5552C70.0337 32.3886 72.0708 33.6232 72.2869 34.3022C72.1326 34.3948 71.9783 34.4874 71.8239 34.58C72.4721 34.9504 73.1203 35.3208 73.7376 35.6912C73.9536 35.5677 74.1697 35.4443 74.3549 35.3208C73.9228 35.043 73.4906 34.7652 73.0277 34.4874C74.0771 33.8701 75.1574 33.2528 76.2068 32.6355C76.6698 32.9133 77.1327 33.1602 77.5957 33.438C77.8118 33.3146 78.0278 33.1911 78.2747 33.0676ZM69.9103 31.4935C70.4041 31.2157 70.898 30.9071 71.3918 30.6293C72.5956 31.3392 73.7993 32.0182 75.003 32.7281C74.324 33.1294 73.6758 33.4997 72.9968 33.8701C72.8116 33.4071 71.0523 32.1417 69.9103 31.4935Z" fill="black"/>
<path fill-rule="evenodd" clip-rule="evenodd" d="M81.3616 29.6725C80.3122 29.0552 79.2319 28.4379 78.1825 27.8206C77.3492 27.3576 76.2689 27.0798 74.9108 27.8515C74.0466 28.3453 73.7071 28.8083 73.5527 29.1169C73.7997 29.1787 74.0466 29.2713 74.2935 29.333C74.4478 29.0243 74.7873 28.5305 75.4355 28.1601C75.9911 27.8515 76.701 27.8515 77.2257 28.1601C77.4726 28.3144 77.7195 28.4379 77.9973 28.5922C77.6578 28.8083 77.2874 28.9935 76.7627 29.3639C75.8368 30.012 75.6824 30.5367 76.5775 31.0614C77.5652 31.6479 78.4912 31.4318 79.4171 30.9071C80.0344 30.5367 80.1579 30.012 80.1579 29.6725C80.4048 29.7651 80.6209 29.8577 80.8987 29.9503C81.053 29.8577 81.2073 29.7651 81.3616 29.6725ZM78.8924 30.6293C78.3677 30.938 77.9665 30.9689 77.38 30.6293C76.8244 30.2898 76.8244 30.0738 77.2566 29.7034C77.6887 29.3639 78.0282 29.1169 78.3986 28.87C78.7998 29.0861 79.2011 29.333 79.5714 29.5491C79.6023 29.8268 79.4788 30.2898 78.8924 30.6293Z" fill="black"/>
<path fill-rule="evenodd" clip-rule="evenodd" d="M84.7567 29.9812C85.0036 29.8268 85.2506 29.7034 85.5284 29.5491C84.7259 29.0861 83.9234 28.6231 83.1517 28.1601C83.7999 28.1293 84.4789 28.0058 85.0962 27.6354C86.5469 26.802 85.837 26.0613 84.4172 25.2279C82.9974 24.3946 81.6393 23.9316 80.1887 24.7958C79.5714 25.1662 79.2936 25.66 79.3245 26.0921C79.0775 25.9996 78.8615 25.907 78.6146 25.8452C78.4294 25.9378 78.275 26.0304 78.0898 26.1539C80.3121 27.4194 82.5344 28.7157 84.7567 29.9812ZM84.5715 27.3268C84.1086 27.5737 83.3987 27.8206 82.6579 27.8823C81.7011 27.3268 80.7751 26.802 79.8183 26.2465C79.9109 25.8144 80.2504 25.3823 80.7443 25.1045C81.3924 24.7341 82.3184 24.9501 83.6147 25.6909C84.911 26.4625 85.2197 26.9564 84.5715 27.3268Z" fill="black"/>
<path fill-rule="evenodd" clip-rule="evenodd" d="M86.8247 21.4932C86.3926 21.5241 85.5901 21.7093 84.8802 22.1105C83.4296 22.9439 83.9543 23.839 85.3741 24.6723C86.7939 25.5057 88.3371 25.7835 89.7878 24.9501C90.6212 24.4871 90.8064 23.9933 90.8681 23.8081C90.5903 23.7464 90.3742 23.6847 90.0965 23.5921C90.0347 23.8081 89.8804 24.2094 89.2014 24.6106C88.4297 25.0427 87.4729 24.9501 86.1766 24.2094C84.8802 23.4686 84.5716 22.913 85.4049 22.45C86.084 22.0797 86.763 21.9871 87.1643 21.9562C87.0717 21.771 86.9482 21.6476 86.8247 21.4932Z" fill="black"/>
<path fill-rule="evenodd" clip-rule="evenodd" d="M93.9236 22.4501C92.5346 21.6476 91.1766 20.8759 89.8185 20.0734C90.3123 19.7957 90.7753 19.5179 91.2692 19.2401C91.084 19.1166 90.8679 19.024 90.6827 18.9006C89.4481 19.6105 88.2135 20.3204 87.0098 21.0303C87.195 21.1537 87.411 21.2463 87.5962 21.3698C88.09 21.092 88.553 20.8142 89.0469 20.5364C90.4049 21.3389 91.7939 22.1106 93.1519 22.913C93.3989 22.7279 93.6458 22.5735 93.9236 22.4501Z" fill="black"/>
<path fill-rule="evenodd" clip-rule="evenodd" d="M96.2078 18.098C96.2078 18.098 96.1769 18.098 96.1769 18.0672C96.2078 18.0363 96.2387 18.0363 96.2695 18.0054C96.5473 17.7585 96.7016 17.3881 96.1461 17.0486C95.3744 16.6165 94.4794 16.6474 93.5225 17.2029C92.8744 17.5733 92.2262 17.9437 91.6089 18.3141C93.183 19.2092 94.7263 20.1351 96.3004 21.0302C96.9794 20.629 97.6276 20.2586 98.3066 19.8573C99.5412 19.1474 99.5104 18.6536 98.6153 18.1289C97.8128 17.6659 96.8868 17.7894 96.3313 18.0054C96.3004 18.0672 96.2695 18.098 96.2078 18.098ZM94.8497 19.3326C95.251 19.1166 95.6522 18.8697 96.0535 18.6536C96.8251 18.2215 97.4424 18.4067 97.8437 18.6227C98.2758 18.8697 98.5844 19.1474 97.9054 19.5487C97.4733 19.7956 97.0103 20.0734 96.5782 20.3203C95.9609 19.9808 95.4053 19.6722 94.8497 19.3326ZM92.8744 18.1906C93.2447 17.9746 93.6151 17.7585 94.0164 17.5425C94.6028 17.2029 95.1275 17.3573 95.467 17.5733C95.8066 17.7585 96.0843 18.0054 95.4053 18.4067C95.0349 18.6227 94.6645 18.8388 94.325 19.024C93.8312 18.7462 93.3682 18.4684 92.8744 18.1906Z" fill="black"/>
<path fill-rule="evenodd" clip-rule="evenodd" d="M98.1213 14.456C96.6707 15.2893 97.1028 16.277 98.5534 17.1104C100.066 17.9746 101.578 18.1598 103.06 17.2956C103.893 16.8326 104.294 16.4005 104.48 16.0918C104.202 16.0301 103.955 15.9684 103.708 15.8758C103.584 16.1844 103.183 16.6165 102.535 16.9869C101.949 17.3264 100.868 17.4808 99.6337 16.7709C99.572 16.74 99.4794 16.6783 99.4177 16.6474C100.436 16.061 101.486 15.4437 102.504 14.8572C100.714 13.8387 99.6028 13.6226 98.1213 14.456ZM101.27 15.0116C100.467 15.4745 99.6954 15.9066 98.9238 16.3696C98.1213 15.9066 97.7201 15.2585 98.6152 14.7338C99.5103 14.2399 100.282 14.456 101.27 15.0116Z" fill="black"/>
<path fill-rule="evenodd" clip-rule="evenodd" d="M106.733 15.0424C105.961 14.6103 105.22 14.1782 104.48 13.7461C105.22 13.314 105.961 12.8819 106.702 12.4806C107.473 12.9127 108.214 13.3448 108.955 13.7769C109.202 13.6226 109.449 13.4992 109.696 13.3448C108.122 12.4497 106.578 11.5238 105.004 10.6287C104.757 10.783 104.51 10.9065 104.263 11.0608C104.912 11.4312 105.56 11.8016 106.208 12.172C105.467 12.6041 104.726 13.0362 103.986 13.4374C103.337 13.067 102.689 12.6967 102.041 12.3263C101.794 12.4806 101.547 12.6041 101.27 12.7584C102.844 13.6535 104.387 14.5794 105.961 15.4745C106.239 15.3202 106.486 15.1659 106.733 15.0424Z" fill="black"/>
<path fill-rule="evenodd" clip-rule="evenodd" d="M69.571 51.309C69.7253 51.4942 69.9105 51.6794 70.034 51.8955C70.1883 52.1424 70.2192 52.3276 69.9722 52.4819C69.7871 52.5745 69.2315 52.7597 68.9228 52.8214C69.0154 52.9449 69.108 53.0683 69.2006 53.1918C69.571 53.1301 70.1883 52.9757 70.497 52.7905C71.1143 52.4202 71.0834 52.0189 70.7439 51.5559C70.3735 51.0621 69.9105 50.5991 69.5093 50.1361C68.645 49.1485 67.7808 48.1608 66.9166 47.1422C66.6388 47.2965 66.361 47.4509 66.0832 47.6361C66.9475 48.5311 67.8425 49.4262 68.7068 50.2905C68.8611 50.4139 69.0463 50.5682 69.2006 50.6917L69.1697 50.7226C68.9228 50.63 68.7068 50.5374 68.4598 50.4757C66.8549 50.0127 65.2499 49.5497 63.6449 49.0867C63.3671 49.241 63.0893 49.3954 62.8115 49.5497C65.0647 50.1053 67.3178 50.6917 69.571 51.309Z" fill="black"/>
<path fill-rule="evenodd" clip-rule="evenodd" d="M73.3982 48.8089C72.6266 48.3768 71.8858 47.9447 71.145 47.5126C71.8858 47.0804 72.5957 46.6792 73.3365 46.2471C74.1081 46.6792 74.8489 47.1113 75.5896 47.5434C75.8365 47.3891 76.0835 47.2656 76.3613 47.1113C74.7871 46.2162 73.2439 45.2903 71.6697 44.3952C71.392 44.5495 71.145 44.7038 70.8981 44.8273C71.5463 45.1977 72.1945 45.568 72.8426 45.9384C72.1019 46.3705 71.3611 46.8027 70.6512 47.2039C70.003 46.8335 69.3549 46.4631 68.7067 46.0928C68.4289 46.2471 68.182 46.3705 67.9351 46.5249C69.5092 47.42 71.0833 48.3459 72.6266 49.241C72.8735 49.0867 73.1204 48.9324 73.3982 48.8089Z" fill="black"/>
<path fill-rule="evenodd" clip-rule="evenodd" d="M78.4604 45.8767C78.09 44.8582 77.6888 43.8705 77.3184 42.8211C77.1949 42.6359 77.0715 42.4507 76.948 42.2346C76.9789 42.2346 76.9789 42.2346 77.0097 42.2346C77.2258 42.389 77.4418 42.5124 77.627 42.6668C78.6764 43.2841 79.7567 43.9014 80.8061 44.5187C81.0531 44.3643 81.3 44.2409 81.5469 44.0866C79.9728 43.1915 78.4295 42.2655 76.8554 41.3704C76.6085 41.5247 76.3924 41.6482 76.1455 41.7717C76.5159 42.7594 76.8863 43.747 77.2566 44.7347C77.3492 44.9199 77.4418 45.136 77.5653 45.3212H77.5344C77.3184 45.1977 77.1332 45.0434 76.948 44.9199C75.8986 44.3026 74.88 43.7162 73.8306 43.1297C73.5837 43.2841 73.3368 43.4075 73.0898 43.5619C74.664 44.4569 76.2381 45.3829 77.7814 46.278C77.9974 46.1237 78.2443 46.0002 78.4604 45.8767Z" fill="black"/>
<path fill-rule="evenodd" clip-rule="evenodd" d="M82.9047 40.321C82.9047 40.321 82.8738 40.321 82.8738 40.2901C82.9047 40.2592 82.9355 40.2592 82.9664 40.2284C83.2442 39.9506 83.3985 39.6111 82.8121 39.2715C82.0405 38.8394 81.1454 38.8703 80.1885 39.4259C79.5404 39.7963 78.8922 40.1666 78.2749 40.537C79.849 41.4321 81.4231 42.3581 82.9664 43.2532C83.6454 42.8828 84.2936 42.4815 84.9726 42.1111C86.2073 41.4012 86.1764 40.9074 85.2813 40.3827C84.4788 39.9197 83.522 40.0432 82.9973 40.2592C82.9973 40.2592 82.9664 40.2901 82.9047 40.321ZM81.5158 41.5247C81.917 41.3086 82.3182 41.0617 82.7195 40.8457C83.4911 40.4136 84.1084 40.5987 84.5097 40.8148C84.9418 41.0617 85.2813 41.3395 84.5714 41.7408C84.1393 41.9877 83.6763 42.2655 83.2442 42.5124C82.6578 42.2037 82.1022 41.8642 81.5158 41.5247ZM79.5712 40.4136C79.9416 40.1975 80.312 39.9814 80.7133 39.7654C81.2997 39.4259 81.8244 39.6111 82.1639 39.7963C82.4726 39.9814 82.7812 40.2284 82.1022 40.5987C81.7318 40.8148 81.3614 41.0309 81.0219 41.2161C80.5281 40.9691 80.0342 40.6913 79.5712 40.4136Z" fill="black"/>
<path fill-rule="evenodd" clip-rule="evenodd" d="M84.7876 36.648C83.306 37.5123 83.769 38.4691 85.1888 39.3024C86.7012 40.1667 88.2445 40.3519 89.6951 39.4876C90.4976 39.0247 90.9298 38.5925 91.0841 38.2839C90.8372 38.2222 90.5902 38.1604 90.3125 38.0678C90.1581 38.3765 89.7877 38.8086 89.1396 39.179C88.5531 39.5185 87.4729 39.6728 86.2382 38.9629C86.1765 38.9321 86.0839 38.8703 86.0222 38.8395C87.0407 38.253 88.0902 37.6357 89.1087 37.0493C87.4111 36.0616 86.2691 35.8147 84.7876 36.648ZM87.9358 37.2345C87.1642 37.6975 86.3617 38.1296 85.5901 38.5925C84.7876 38.1296 84.3863 37.4814 85.3123 36.9567C86.2074 36.432 86.979 36.6789 87.9358 37.2345Z" fill="black"/>
<path fill-rule="evenodd" clip-rule="evenodd" d="M94.6337 38.8086C94.8806 38.6543 95.1275 38.5308 95.4053 38.3765C94.6028 37.9135 93.8003 37.4505 93.0287 36.9875C93.7077 36.9567 94.3559 36.8332 94.9732 36.4628C96.4547 35.6295 95.7448 34.8887 94.2942 34.0553C92.8744 33.222 91.5163 32.759 90.0656 33.6232C89.4483 33.9936 89.1705 34.4875 89.2014 34.9196C88.9545 34.827 88.7384 34.7344 88.4915 34.6727C88.3063 34.7652 88.152 34.8578 87.9668 34.9504C90.1891 36.2468 92.4114 37.5122 94.6337 38.8086ZM94.4485 36.1542C93.9855 36.4011 93.2756 36.6789 92.5348 36.7098C91.578 36.1542 90.6521 35.6295 89.6952 35.0739C89.7878 34.6418 90.1274 34.2097 90.5903 33.9319C91.2385 33.5615 92.1953 33.7776 93.4917 34.5183C94.788 35.29 95.0967 35.7838 94.4485 36.1542Z" fill="black"/>
<path fill-rule="evenodd" clip-rule="evenodd" d="M96.7015 30.3207C96.2694 30.3515 95.4669 30.5367 94.757 30.938C93.3372 31.7713 93.8619 32.6973 95.2817 33.4998C96.7015 34.3331 98.2448 34.5801 99.6646 33.7776C100.498 33.2837 100.683 32.8208 100.745 32.6664C100.498 32.6047 100.251 32.5121 99.9732 32.4504C99.9115 32.6664 99.7572 33.0985 99.109 33.4689C98.3374 33.901 97.3805 33.8084 96.0842 33.0368C94.7879 32.296 94.5101 31.7405 95.3126 31.2775C95.9608 30.9071 96.6707 30.8145 97.0719 30.7528C96.9484 30.5985 96.825 30.4441 96.7015 30.3207Z" fill="black"/>
<path fill-rule="evenodd" clip-rule="evenodd" d="M102.874 31.7713C102.504 30.7528 102.103 29.7651 101.732 28.7466C101.609 28.5614 101.486 28.3762 101.362 28.1601C101.393 28.1601 101.393 28.1601 101.424 28.1601C101.64 28.3145 101.856 28.4379 102.041 28.5922C103.091 29.2095 104.171 29.8268 105.22 30.4441C105.467 30.2898 105.714 30.1664 105.961 30.012C104.387 29.1169 102.844 28.191 101.269 27.2959C101.023 27.4502 100.776 27.5737 100.56 27.6971C100.93 28.6848 101.3 29.6725 101.671 30.6602C101.763 30.8454 101.856 31.0615 101.979 31.2466H101.948C101.763 31.1232 101.547 30.9689 101.362 30.8454C100.313 30.2281 99.2941 29.6417 98.2447 29.0552C97.9977 29.2095 97.7508 29.333 97.5039 29.4873C99.078 30.3824 100.652 31.3084 102.195 32.2035C102.381 32.0491 102.628 31.9257 102.874 31.7713Z" fill="black"/>
<path fill-rule="evenodd" clip-rule="evenodd" d="M109.109 28.1909C107.751 27.3884 106.362 26.6168 105.004 25.8143C105.498 25.5365 105.961 25.2588 106.455 24.981C106.27 24.8575 106.084 24.7649 105.868 24.6414C104.634 25.3513 103.43 26.0612 102.195 26.7711C102.381 26.8946 102.597 26.9872 102.782 27.1107C103.276 26.8329 103.739 26.5551 104.232 26.2773C105.621 27.0798 106.979 27.8514 108.337 28.6539C108.584 28.4687 108.831 28.3453 109.109 28.1909Z" fill="black"/>
<path fill-rule="evenodd" clip-rule="evenodd" d="M108.523 22.9749C107.041 23.8082 107.504 24.7959 108.955 25.6293C110.467 26.4935 111.98 26.6787 113.461 25.8145C114.264 25.3515 114.696 24.9194 114.881 24.6107C114.603 24.549 114.356 24.4873 114.11 24.4255C113.955 24.7342 113.585 25.1663 112.937 25.5367C112.35 25.8762 111.27 26.0305 110.035 25.3206C109.974 25.2898 109.881 25.228 109.819 25.1972C110.838 24.6107 111.887 23.9934 112.906 23.407C111.147 22.3576 110.005 22.1106 108.523 22.9749ZM111.671 23.5304C110.869 23.9934 110.097 24.4255 109.325 24.8885C108.523 24.4255 108.153 23.7774 109.048 23.2835C109.943 22.7279 110.714 22.9749 111.671 23.5304Z" fill="black"/>
<path fill-rule="evenodd" clip-rule="evenodd" d="M117.999 23.0366C116.641 22.2341 115.252 21.4624 113.894 20.6599C114.387 20.3822 114.881 20.1044 115.375 19.8266C115.19 19.7031 115.005 19.6105 114.789 19.4871C113.554 20.197 112.319 20.9069 111.116 21.6168C111.301 21.7402 111.517 21.8328 111.702 21.9563C112.196 21.6785 112.69 21.4007 113.153 21.1229C114.542 21.9254 115.9 22.697 117.258 23.4995C117.505 23.3452 117.752 23.1909 117.999 23.0366Z" fill="black"/>
</svg>
