<svg width="202" height="104" viewBox="0 0 202 104" fill="none" xmlns="http://www.w3.org/2000/svg">
<path fill-rule="evenodd" clip-rule="evenodd" d="M75.4589 35.9872L65.7364 30.4006L37.7417 46.5739V57.5311L47.1556 63.0251V52.3148L75.4589 35.9872Z" fill="#00AEFF"/>
<path fill-rule="evenodd" clip-rule="evenodd" d="M56.6005 88.1184V57.5927L47.1558 63.025V82.6244L56.6005 88.1184Z" fill="#00AEFF"/>
<path fill-rule="evenodd" clip-rule="evenodd" d="M148.918 26.0485C148.147 25.6164 147.406 25.1843 146.665 24.7522C147.406 24.3201 148.116 23.9188 148.856 23.4867C149.628 23.9188 150.369 24.3509 151.11 24.783C151.357 24.6287 151.603 24.5053 151.881 24.3509C150.307 23.4558 148.764 22.5299 147.19 21.6348C146.912 21.7891 146.665 21.9434 146.418 22.0669C147.066 22.4373 147.714 22.8077 148.363 23.1781C147.622 23.6102 146.912 24.0423 146.171 24.4435C145.523 24.0731 144.875 23.7028 144.227 23.3324C143.98 23.4867 143.733 23.641 143.455 23.7645C145.029 24.6596 146.572 25.5855 148.147 26.4806C148.394 26.3263 148.64 26.2028 148.918 26.0485Z" fill="black"/>
<path fill-rule="evenodd" clip-rule="evenodd" d="M157.529 21.0792C157.776 20.9249 158.023 20.8014 158.27 20.6471C156.696 19.752 155.153 18.8261 153.579 17.931C153.332 18.0853 153.085 18.2088 152.838 18.3631C154.412 19.2582 155.955 20.1533 157.529 21.0792ZM153.301 23.5176C153.887 23.178 154.505 22.8385 155.091 22.499C155.616 22.1904 155.863 21.9126 155.924 21.6348C155.986 21.2644 155.677 20.9249 155.153 20.6162C154.659 20.3385 154.165 20.1841 153.579 20.215C153.116 20.2459 152.622 20.4002 152.066 20.7397C151.727 20.9249 151.387 21.1409 151.048 21.3261C150.492 21.0175 149.937 20.678 149.381 20.3693C149.103 20.5236 148.887 20.6471 148.609 20.8014C150.183 21.6965 151.727 22.5916 153.301 23.5176ZM151.542 21.6039C151.881 21.3879 152.251 21.2027 152.591 20.9866C152.838 20.8323 153.116 20.8014 153.363 20.8014C153.733 20.8014 154.073 20.9558 154.319 21.1101C154.597 21.2644 154.937 21.5113 154.968 21.7583C154.998 21.9126 154.906 22.036 154.628 22.1904C154.258 22.4064 153.918 22.5916 153.548 22.8077C152.9 22.4064 152.221 22.0052 151.542 21.6039Z" fill="black"/>
<path fill-rule="evenodd" clip-rule="evenodd" d="M156.326 15.5544C157.406 14.9371 156.912 14.3198 156.789 14.2581C156.542 14.3198 156.326 14.3507 156.11 14.3815C156.171 14.5667 156.388 14.8136 155.739 15.184C155.091 15.5544 154.659 15.4309 154.32 15.4001C154.258 15.5235 154.165 15.647 154.104 15.7705C154.227 15.863 155.276 16.1408 156.326 15.5544ZM160.431 19.3817C160.03 18.3631 159.659 17.3446 159.289 16.3569C159.165 16.1408 159.042 15.9556 158.949 15.7705H158.98C159.196 15.9248 159.381 16.0482 159.598 16.2026C160.678 16.8199 161.727 17.4372 162.807 18.0545C163.054 17.9001 163.301 17.7767 163.548 17.6224C161.974 16.6964 160.4 15.8013 158.826 14.8754C158.579 15.0297 158.332 15.1531 158.116 15.3075C158.486 16.2952 158.857 17.2828 159.227 18.2705C159.32 18.4557 159.412 18.6718 159.536 18.857L159.505 18.8878C159.32 18.7335 159.104 18.61 158.918 18.4557C157.9 17.8693 156.851 17.252 155.801 16.6655C155.554 16.8199 155.307 16.9433 155.06 17.0977C156.634 17.9927 158.178 18.9187 159.752 19.8138C159.968 19.6595 160.215 19.536 160.431 19.3817Z" fill="black"/>
<path fill-rule="evenodd" clip-rule="evenodd" d="M74.3786 59.1668C73.3601 58.5804 72.3107 57.9631 71.2921 57.3767C71.2921 58.9816 71.2921 60.6175 71.2921 62.2534C71.2921 63.8583 71.2921 65.4942 71.2921 67.0992C70.5513 66.6671 69.8414 66.2658 69.1007 65.8337C69.1007 64.1979 69.1007 62.5929 69.1007 60.9879C69.1007 59.352 69.1007 57.747 69.1007 56.1112C68.0821 55.5247 67.0327 54.9383 66.0142 54.321C66.0142 53.6111 66.0142 52.8703 66.0142 52.1296C67.0327 52.716 68.0513 53.3333 69.1007 53.9198C69.8414 54.3519 70.5513 54.7531 71.2921 55.1852C72.3107 55.7717 73.3601 56.3581 74.3786 56.9754C74.3786 57.7162 74.3786 58.4261 74.3786 59.1668ZM97.867 76.3587C97.9905 78.4576 98.1448 80.5564 98.2683 82.6552C98.9473 83.0256 99.5955 83.4269 100.275 83.7972C100.151 82.0379 100.028 80.2478 99.935 78.4576C99.8115 76.6983 99.6881 74.9081 99.5955 73.1179C99.5646 73.087 99.5337 73.087 99.5029 73.0562C98.8547 72.6858 98.2374 72.3154 97.5892 71.945C97.0645 72.9636 96.5707 73.9513 96.0768 74.9698C95.583 75.9884 95.0583 76.976 94.5644 77.9946C94.0706 76.4205 93.5768 74.8155 93.0829 73.2414C92.5891 71.6672 92.0952 70.0931 91.6014 68.4881C90.9532 68.1177 90.3359 67.7474 89.6878 67.377C89.6569 67.3461 89.626 67.3461 89.5952 67.3152C89.4717 68.9511 89.3791 70.6178 89.2556 72.2537C89.1322 73.9204 89.0396 75.5562 88.9161 77.1921C89.5952 77.5625 90.2433 77.9637 90.9224 78.365C91.0458 76.4513 91.1693 74.5377 91.3236 72.6241C92.0952 75.0624 92.836 77.5008 93.6076 79.9082C94.2558 80.2786 94.8731 80.649 95.5213 81.0194C96.2929 79.507 97.0954 77.9329 97.867 76.3587ZM83.0517 63.5188C80.7368 62.1916 78.8232 62.9015 78.3911 65.093C78.0516 64.9078 77.7121 64.6917 77.3725 64.5065C77.3725 63.1176 77.3725 61.7286 77.3725 60.3397C76.6318 59.9076 75.9219 59.5064 75.1811 59.0742C75.1811 60.8027 75.1811 62.5003 75.1811 64.2287C75.1811 65.9263 75.1811 67.6548 75.1811 69.3523C75.9219 69.7845 76.6318 70.1857 77.3725 70.6178C77.3725 69.3215 77.3725 67.9943 77.3725 66.6979C77.7121 66.8831 78.0516 67.0992 78.422 67.2844C78.9158 69.9079 80.7986 72.7784 83.0517 74.0747C85.6753 75.5871 87.805 74.4451 87.805 71.5129C87.805 68.6116 85.6753 65.0312 83.0517 63.5188ZM83.0517 65.7411C84.5641 66.6053 85.7987 68.7042 85.7987 70.4018C85.7987 72.0993 84.5641 72.7475 83.0517 71.8833C81.5393 71.0191 80.3047 68.9202 80.3047 67.2535C80.3356 65.5251 81.5393 64.8769 83.0517 65.7411ZM108.053 76.4205C108.546 78.0255 109.04 79.6613 109.565 81.2663C110.059 82.8713 110.583 84.5071 111.077 86.1121C110.985 86.3282 110.892 86.5442 110.8 86.7603C110.583 87.285 110.429 87.964 109.102 87.1924C109.102 87.9332 109.102 88.6431 109.102 89.3838C111.386 90.711 112.034 89.7542 112.837 87.9332C113.361 86.7603 113.855 85.5874 114.38 84.4454C114.905 83.2725 115.398 82.1305 115.923 80.9577C115.182 80.5255 114.411 80.0934 113.67 79.6613C113.145 81.1737 112.621 82.6861 112.096 84.1985C111.509 82.0379 110.923 79.9082 110.337 77.7477C109.565 77.3156 108.824 76.8834 108.053 76.4205ZM104.009 76.2661C104.009 77.902 104.009 79.507 104.009 81.1428C104.009 82.7478 104.009 84.3837 104.009 85.9887C103.268 85.5566 102.559 85.1553 101.818 84.7232C101.818 83.1182 101.818 81.4824 101.818 79.8774C101.818 78.2415 101.818 76.6365 101.818 75.0007C101.818 74.2908 101.818 73.55 101.818 72.8092C102.559 73.2414 103.268 73.6426 104.009 74.0747C105.244 74.7846 106.478 75.4945 107.713 76.2044C107.713 76.9452 107.713 77.6551 107.713 78.3958C106.448 77.6859 105.244 76.976 104.009 76.2661Z" fill="black"/>
<path fill-rule="evenodd" clip-rule="evenodd" d="M77.1254 45.7404C75.7365 46.5429 74.3475 47.3454 72.9277 48.1479C73.1438 48.2714 73.329 48.3949 73.545 48.5183C74.1006 48.2097 74.687 47.8701 75.2426 47.5306C77.1254 48.6109 79.0082 49.6912 80.891 50.7715C81.1687 50.6171 81.4157 50.4628 81.6934 50.3085C79.8107 49.2282 77.9279 48.1479 76.0451 47.0677C76.6007 46.759 77.1563 46.4195 77.7118 46.1108C77.5266 45.9874 77.3415 45.8639 77.1254 45.7404Z" fill="black"/>
<path fill-rule="evenodd" clip-rule="evenodd" d="M84.0085 48.9813C84.2554 48.827 84.5023 48.7036 84.7493 48.5492C84.0085 48.1171 83.2677 47.685 82.527 47.2838C82.8665 47.0986 83.206 46.9134 83.5147 46.6973C84.9036 47.4689 86.3543 47.7467 87.8975 46.8516C89.5025 45.9257 89.0087 45.0615 87.5889 44.259C86.1691 43.4256 84.5949 43.117 82.99 44.0429C81.5702 44.8454 81.8788 45.6788 82.99 46.4195C82.6504 46.6356 82.3109 46.8208 81.9714 47.006C81.3232 46.6356 80.6751 46.2652 80.0269 45.8948C79.78 46.0491 79.5331 46.1726 79.2861 46.3269C80.8603 47.1912 82.4344 48.0862 84.0085 48.9813ZM84.2554 46.1726C83.206 45.5553 82.4344 44.9071 83.5147 44.2898C84.5949 43.6725 85.5826 44.012 86.8172 44.6911C88.0518 45.401 88.5457 45.9257 87.4654 46.543C86.3543 47.1912 85.3048 46.7899 84.2554 46.1726Z" fill="black"/>
<path fill-rule="evenodd" clip-rule="evenodd" d="M91.6324 40.3699C92.867 41.049 94.1325 41.728 95.3671 42.4379C95.6449 42.2836 95.8918 42.1293 96.1696 41.9749C94.5337 41.1107 92.9287 40.2465 91.2929 39.3823C90.9225 39.5983 90.5521 39.8144 90.1817 39.9996C91.0151 40.9564 91.8793 41.8823 92.7436 42.8392C92.8979 42.9626 93.0522 43.0552 93.1757 43.1787L93.1448 43.2095C92.9596 43.1169 92.7744 43.0244 92.5892 42.9626C90.9534 42.4688 89.2867 41.9749 87.6508 41.4811C87.2804 41.6971 86.91 41.9132 86.5088 42.1293C88.0212 43.0552 89.5336 44.012 91.0151 44.938C91.2312 44.8145 91.4472 44.6911 91.6941 44.5676C90.5213 43.8577 89.3175 43.1478 88.1138 42.407C87.9286 42.3145 87.7434 42.2219 87.5582 42.1293L87.5891 42.0984C89.441 42.654 91.262 43.1787 93.1139 43.7343C93.3917 43.5799 93.6695 43.4256 93.9473 43.2404C93.0213 42.191 92.0645 41.1416 91.1077 40.0922C91.1077 40.0922 91.1386 40.0922 91.1386 40.0613C91.3238 40.1539 91.4781 40.2774 91.6324 40.3699Z" fill="black"/>
<path fill-rule="evenodd" clip-rule="evenodd" d="M94.5952 37.3451C93.1137 38.2094 93.5766 39.1662 94.9964 39.9995C96.5088 40.8946 98.0212 41.0489 99.5028 40.1847C100.336 39.7217 100.768 39.2896 100.923 38.981C100.676 38.9192 100.398 38.8575 100.151 38.7649C99.9966 39.0736 99.6262 39.5057 98.9781 39.8761C98.3916 40.2156 97.3113 40.3699 96.0767 39.66C96.015 39.6291 95.9224 39.5674 95.8607 39.5366C96.8792 38.9501 97.9286 38.3328 98.9472 37.7464C97.1879 36.7278 96.0459 36.4809 94.5952 37.3451ZM97.7434 37.9007C96.9718 38.3637 96.1693 38.7958 95.3977 39.2588C94.5952 38.7958 94.194 38.1476 95.089 37.6229C95.9841 37.0982 96.7558 37.3451 97.7434 37.9007Z" fill="black"/>
<path fill-rule="evenodd" clip-rule="evenodd" d="M103.207 37.9007C102.466 37.4686 101.694 37.0365 100.954 36.6044C101.694 36.1722 102.404 35.771 103.176 35.3389C103.948 35.771 104.688 36.2031 105.429 36.6352C105.676 36.4809 105.923 36.3574 106.201 36.2031C104.627 35.308 103.083 34.3821 101.509 33.487C101.231 33.6413 100.984 33.7648 100.738 33.9191C101.386 34.2895 102.034 34.6598 102.682 35.0302C101.941 35.4623 101.201 35.8636 100.46 36.2957C99.8116 35.9253 99.1635 35.5549 98.5153 35.1846C98.2684 35.3389 98.0214 35.4623 97.7437 35.6167C99.3178 36.5118 100.861 37.4377 102.435 38.3328C102.713 38.1785 102.96 38.055 103.207 37.9007Z" fill="black"/>
<path fill-rule="evenodd" clip-rule="evenodd" d="M106.479 30.9869C106.046 31.0178 105.213 31.203 104.534 31.6042C103.083 32.4376 103.608 33.3636 105.028 34.1661C106.448 34.9994 107.991 35.2463 109.442 34.413C110.275 33.95 110.491 33.487 110.522 33.3018C110.244 33.2401 109.997 33.1475 109.75 33.0858C109.689 33.3018 109.534 33.7339 108.886 34.1043C108.114 34.5364 107.158 34.4438 105.861 33.7031C104.565 32.9623 104.287 32.4067 105.12 31.9438C105.769 31.5734 106.479 31.4808 106.88 31.4499C106.725 31.2956 106.602 31.1413 106.479 30.9869Z" fill="black"/>
<path fill-rule="evenodd" clip-rule="evenodd" d="M112.713 32.4067C111.972 31.9746 111.232 31.5425 110.491 31.1412C110.583 31.0795 110.676 31.0178 110.799 30.956C111.17 30.74 111.664 30.6782 112.127 30.8017C112.497 30.8943 112.836 30.9869 113.207 31.0795C113.917 31.2647 114.472 31.3264 114.935 31.1721C115.151 31.1104 115.398 30.9869 115.614 30.8634C115.46 30.74 115.306 30.6474 115.151 30.5239C114.904 30.6782 114.627 30.7708 114.195 30.6782C113.793 30.5857 113.361 30.4931 112.96 30.4005C112.127 30.2153 111.849 30.1227 111.478 30.277C111.478 30.277 111.448 30.277 111.448 30.2461C111.725 30.0301 111.633 29.7832 111.355 29.3819C111.262 29.2276 111.17 29.1041 111.046 28.9498C110.799 28.6103 111.046 28.456 111.232 28.3325C111.046 28.2399 110.861 28.1473 110.676 28.0856C110.398 28.2399 110.244 28.3634 110.151 28.5177C109.935 28.7955 110.028 29.0733 110.275 29.4128C110.367 29.5362 110.46 29.6906 110.583 29.814C110.83 30.1227 110.645 30.4313 110.275 30.6474C110.182 30.7091 110.089 30.7708 109.966 30.8326C109.318 30.4622 108.67 30.0918 108.022 29.7214C107.775 29.8758 107.528 29.9992 107.281 30.1535C108.855 31.0486 110.398 31.9746 111.972 32.8697C112.219 32.7153 112.466 32.561 112.713 32.4067Z" fill="black"/>
<path fill-rule="evenodd" clip-rule="evenodd" d="M117.189 29.814C116.787 28.7955 116.417 27.8078 116.047 26.7584C115.923 26.5732 115.83 26.388 115.707 26.1719H115.738C115.923 26.3263 116.139 26.4497 116.355 26.604C117.405 27.2213 118.485 27.8387 119.534 28.456C119.781 28.3016 119.997 28.1782 120.275 28.0238C118.701 27.1288 117.158 26.2028 115.584 25.3077C115.337 25.462 115.09 25.5855 114.843 25.709C115.213 26.6966 115.584 27.6843 115.954 28.672C116.047 28.8572 116.139 29.0733 116.263 29.2585C116.232 29.2585 116.232 29.2585 116.232 29.2585C116.016 29.135 115.83 28.9807 115.645 28.8572C114.627 28.2708 113.577 27.6535 112.528 27.067C112.281 27.2213 112.034 27.3448 111.787 27.4991C113.361 28.3942 114.904 29.3202 116.479 30.2153C116.726 30.0918 116.972 29.9684 117.189 29.814Z" fill="black"/>
<path fill-rule="evenodd" clip-rule="evenodd" d="M118.3 22.962C119.349 22.3447 118.886 21.7582 118.794 21.6965C118.547 21.7582 118.331 21.7891 118.115 21.82C118.176 22.0052 118.393 22.2521 117.744 22.6225C117.096 22.9928 116.633 22.8694 116.325 22.8385C116.263 22.9928 116.17 23.1163 116.078 23.2398C116.201 23.3015 117.251 23.5793 118.3 22.962ZM122.405 26.8201C122.035 25.8016 121.633 24.8139 121.263 23.7645C121.17 23.5793 121.016 23.3941 120.923 23.178C120.923 23.178 120.954 23.178 120.954 23.1472C121.14 23.3015 121.356 23.425 121.572 23.5793C122.621 24.1966 123.701 24.8139 124.751 25.4312C124.998 25.2769 125.245 25.1534 125.492 24.9991C123.917 24.104 122.374 23.178 120.8 22.2829C120.553 22.4373 120.306 22.5607 120.09 22.6842C120.46 23.6719 120.831 24.6596 121.201 25.6472C121.294 25.8324 121.386 26.0485 121.51 26.2337C121.479 26.2337 121.479 26.2337 121.479 26.2645C121.294 26.1411 121.078 25.9868 120.893 25.8633C119.874 25.2769 118.825 24.6596 117.775 24.0731C117.528 24.2274 117.281 24.3509 117.034 24.4744C118.609 25.3695 120.152 26.2954 121.726 27.1905C121.942 27.0979 122.189 26.9436 122.405 26.8201Z" fill="black"/>
<path fill-rule="evenodd" clip-rule="evenodd" d="M93.0828 58.2717C91.6938 57.4692 90.3358 56.6976 88.9777 55.8951C89.595 55.5247 90.2432 55.1852 90.8605 54.8148C90.6753 54.6913 90.4592 54.5987 90.274 54.4753C89.3789 55 88.5147 55.4938 87.6196 55.9877C89.1938 56.8828 90.737 57.8087 92.3111 58.7038C92.5889 58.5803 92.8358 58.426 93.0828 58.2717Z" fill="black"/>
<path fill-rule="evenodd" clip-rule="evenodd" d="M93.2372 55.5247C94.657 56.3581 96.1385 56.6359 97.7435 55.7099C99.3485 54.784 98.8238 53.9197 97.404 53.1172C95.9842 52.2839 94.4101 51.9752 92.8051 52.9012C91.231 53.7963 91.8174 54.6914 93.2372 55.5247ZM94.0705 55.0309C93.0211 54.4136 92.2495 53.7654 93.3298 53.1481C94.4101 52.5308 95.3978 52.8703 96.6324 53.5802C97.867 54.2901 98.3608 54.8148 97.2805 55.4321C96.1694 56.0494 95.12 55.6482 94.0705 55.0309Z" fill="black"/>
<path fill-rule="evenodd" clip-rule="evenodd" d="M99.7496 49.3825C99.3175 49.4134 98.515 49.5986 97.8051 49.9998C96.3853 50.8332 96.8791 51.7283 98.2989 52.5616C99.7187 53.395 101.262 53.6419 102.713 52.8394C103.546 52.3456 103.731 51.8826 103.793 51.6974C103.546 51.6357 103.299 51.574 103.021 51.4814C102.96 51.6974 102.805 52.0987 102.126 52.4999C101.355 52.932 100.398 52.8394 99.1014 52.0987C97.8051 51.3579 97.4964 50.8023 98.3298 50.3394C98.978 49.969 99.6879 49.8764 100.089 49.8455C99.9965 49.6912 99.873 49.5369 99.7496 49.3825Z" fill="black"/>
<path fill-rule="evenodd" clip-rule="evenodd" d="M106.88 50.6172C107.034 50.8024 107.188 50.9876 107.343 51.2036C107.497 51.4505 107.497 51.6357 107.25 51.7592C107.065 51.8518 106.509 52.037 106.232 52.0987C106.324 52.2222 106.417 52.3148 106.509 52.4382C106.88 52.3765 107.466 52.253 107.806 52.0679C108.423 51.6975 108.423 51.2962 108.053 50.8332C107.682 50.3394 107.219 49.8764 106.818 49.4134C105.954 48.4258 105.09 47.4381 104.225 46.4195C103.948 46.5739 103.67 46.7282 103.392 46.8825C104.256 47.7776 105.12 48.6418 106.015 49.5369C106.17 49.6912 106.355 49.8147 106.509 49.9382C106.478 49.9382 106.478 49.9382 106.478 49.969C106.232 49.8764 105.985 49.7838 105.738 49.6912C104.133 49.2283 102.528 48.7653 100.923 48.3023C100.645 48.4566 100.367 48.611 100.089 48.7653C102.343 49.4134 104.627 49.9999 106.88 50.6172Z" fill="black"/>
<path fill-rule="evenodd" clip-rule="evenodd" d="M115.275 47.0676C114.657 46.6973 114.04 46.296 113.454 45.8948C113.238 46.0182 113.022 46.1417 112.775 46.296C111.386 45.4935 109.997 44.691 108.608 43.8885C107.651 44.4441 106.663 44.9997 105.707 45.5552C107.034 46.3886 109.071 47.6232 109.287 48.3022C109.133 48.3948 108.978 48.4874 108.824 48.58C109.472 48.9504 110.12 49.3208 110.738 49.6912C110.954 49.5677 111.17 49.4443 111.355 49.3208C110.923 49.043 110.491 48.7652 110.028 48.4874C111.077 47.8701 112.157 47.2528 113.207 46.6355C113.67 46.9133 114.133 47.1602 114.596 47.438C114.812 47.3146 115.028 47.1911 115.275 47.0676ZM106.91 45.4935C107.404 45.2157 107.898 44.9071 108.392 44.6293C109.596 45.3392 110.799 46.0182 112.003 46.7281C111.324 47.1294 110.676 47.4997 109.997 47.8701C109.812 47.4071 108.052 46.1417 106.91 45.4935Z" fill="black"/>
<path fill-rule="evenodd" clip-rule="evenodd" d="M118.362 43.6725C117.312 43.0552 116.232 42.4379 115.183 41.8206C114.349 41.3576 113.269 41.0798 111.911 41.8515C111.047 42.3453 110.707 42.8083 110.553 43.1169C110.8 43.1787 111.047 43.2713 111.294 43.333C111.448 43.0243 111.787 42.5305 112.436 42.1601C112.991 41.8515 113.701 41.8515 114.226 42.1601C114.473 42.3144 114.72 42.4379 114.997 42.5922C114.658 42.8083 114.287 42.9935 113.763 43.3639C112.837 44.012 112.682 44.5367 113.578 45.0614C114.565 45.6479 115.491 45.4318 116.417 44.9071C117.034 44.5367 117.158 44.012 117.158 43.6725C117.405 43.7651 117.621 43.8577 117.899 43.9503C118.053 43.8577 118.207 43.7651 118.362 43.6725ZM115.892 44.6293C115.368 44.938 114.966 44.9689 114.38 44.6293C113.824 44.2898 113.824 44.0738 114.257 43.7034C114.689 43.3639 115.028 43.1169 115.399 42.87C115.8 43.0861 116.201 43.333 116.571 43.5491C116.602 43.8268 116.479 44.2898 115.892 44.6293Z" fill="black"/>
<path fill-rule="evenodd" clip-rule="evenodd" d="M121.757 43.9812C122.004 43.8268 122.251 43.7034 122.528 43.5491C121.726 43.0861 120.923 42.6231 120.152 42.1601C120.8 42.1293 121.479 42.0058 122.096 41.6354C123.547 40.802 122.837 40.0613 121.417 39.2279C119.997 38.3946 118.639 37.9316 117.189 38.7958C116.571 39.1662 116.294 39.66 116.324 40.0921C116.078 39.9996 115.861 39.907 115.615 39.8452C115.429 39.9378 115.275 40.0304 115.09 40.1539C117.312 41.4194 119.534 42.7157 121.757 43.9812ZM121.572 41.3268C121.109 41.5737 120.399 41.8206 119.658 41.8823C118.701 41.3268 117.775 40.802 116.818 40.2465C116.911 39.8144 117.25 39.3823 117.744 39.1045C118.392 38.7341 119.318 38.9501 120.615 39.6909C121.911 40.4625 122.22 40.9564 121.572 41.3268Z" fill="black"/>
<path fill-rule="evenodd" clip-rule="evenodd" d="M123.825 35.4932C123.393 35.5241 122.59 35.7093 121.88 36.1105C120.43 36.9439 120.954 37.839 122.374 38.6723C123.794 39.5057 125.337 39.7835 126.788 38.9501C127.621 38.4871 127.806 37.9933 127.868 37.8081C127.59 37.7464 127.374 37.6847 127.096 37.5921C127.035 37.8081 126.88 38.2094 126.201 38.6106C125.43 39.0427 124.473 38.9501 123.177 38.2094C121.88 37.4686 121.572 36.913 122.405 36.45C123.084 36.0797 123.763 35.9871 124.164 35.9562C124.072 35.771 123.948 35.6476 123.825 35.4932Z" fill="black"/>
<path fill-rule="evenodd" clip-rule="evenodd" d="M130.924 36.4501C129.535 35.6476 128.177 34.8759 126.818 34.0734C127.312 33.7957 127.775 33.5179 128.269 33.2401C128.084 33.1166 127.868 33.024 127.683 32.9006C126.448 33.6105 125.214 34.3204 124.01 35.0303C124.195 35.1537 124.411 35.2463 124.596 35.3698C125.09 35.092 125.553 34.8142 126.047 34.5364C127.405 35.3389 128.794 36.1106 130.152 36.913C130.399 36.7279 130.646 36.5735 130.924 36.4501Z" fill="black"/>
<path fill-rule="evenodd" clip-rule="evenodd" d="M133.208 32.098C133.208 32.098 133.177 32.098 133.177 32.0672C133.208 32.0363 133.239 32.0363 133.27 32.0054C133.547 31.7585 133.702 31.3881 133.146 31.0486C132.374 30.6165 131.479 30.6474 130.523 31.2029C129.874 31.5733 129.226 31.9437 128.609 32.3141C130.183 33.2092 131.726 34.1351 133.3 35.0302C133.979 34.629 134.628 34.2586 135.307 33.8573C136.541 33.1474 136.51 32.6536 135.615 32.1289C134.813 31.6659 133.887 31.7894 133.331 32.0054C133.3 32.0672 133.27 32.098 133.208 32.098ZM131.85 33.3326C132.251 33.1166 132.652 32.8697 133.053 32.6536C133.825 32.2215 134.442 32.4067 134.844 32.6227C135.276 32.8697 135.584 33.1474 134.905 33.5487C134.473 33.7956 134.01 34.0734 133.578 34.3203C132.961 33.9808 132.405 33.6722 131.85 33.3326ZM129.874 32.1906C130.245 31.9746 130.615 31.7585 131.016 31.5425C131.603 31.2029 132.128 31.3573 132.467 31.5733C132.807 31.7585 133.084 32.0054 132.405 32.4067C132.035 32.6227 131.665 32.8388 131.325 33.024C130.831 32.7462 130.368 32.4684 129.874 32.1906Z" fill="black"/>
<path fill-rule="evenodd" clip-rule="evenodd" d="M135.121 28.456C133.671 29.2893 134.103 30.277 135.553 31.1104C137.066 31.9746 138.578 32.1598 140.06 31.2956C140.893 30.8326 141.294 30.4005 141.48 30.0918C141.202 30.0301 140.955 29.9684 140.708 29.8758C140.584 30.1844 140.183 30.6165 139.535 30.9869C138.949 31.3264 137.868 31.4808 136.634 30.7709C136.572 30.74 136.479 30.6783 136.418 30.6474C137.436 30.061 138.486 29.4437 139.504 28.8572C137.714 27.8387 136.603 27.6226 135.121 28.456ZM138.27 29.0116C137.467 29.4745 136.695 29.9066 135.924 30.3696C135.121 29.9066 134.72 29.2585 135.615 28.7338C136.51 28.2399 137.282 28.456 138.27 29.0116Z" fill="black"/>
<path fill-rule="evenodd" clip-rule="evenodd" d="M143.733 29.0424C142.961 28.6103 142.22 28.1782 141.48 27.7461C142.22 27.314 142.961 26.8819 143.702 26.4806C144.473 26.9127 145.214 27.3448 145.955 27.7769C146.202 27.6226 146.449 27.4992 146.696 27.3448C145.122 26.4497 143.578 25.5238 142.004 24.6287C141.757 24.783 141.51 24.9065 141.263 25.0608C141.912 25.4312 142.56 25.8016 143.208 26.172C142.467 26.6041 141.726 27.0362 140.986 27.4374C140.337 27.067 139.689 26.6967 139.041 26.3263C138.794 26.4806 138.547 26.6041 138.27 26.7584C139.844 27.6535 141.387 28.5794 142.961 29.4745C143.239 29.3202 143.486 29.1659 143.733 29.0424Z" fill="black"/>
<path fill-rule="evenodd" clip-rule="evenodd" d="M106.571 65.309C106.725 65.4942 106.911 65.6794 107.034 65.8955C107.188 66.1424 107.219 66.3276 106.972 66.4819C106.787 66.5745 106.231 66.7597 105.923 66.8214C106.015 66.9449 106.108 67.0683 106.201 67.1918C106.571 67.1301 107.188 66.9757 107.497 66.7905C108.114 66.4202 108.083 66.0189 107.744 65.5559C107.373 65.0621 106.911 64.5991 106.509 64.1361C105.645 63.1485 104.781 62.1608 103.917 61.1422C103.639 61.2965 103.361 61.4509 103.083 61.6361C103.947 62.5311 104.843 63.4262 105.707 64.2905C105.861 64.4139 106.046 64.5682 106.201 64.6917L106.17 64.7226C105.923 64.63 105.707 64.5374 105.46 64.4757C103.855 64.0127 102.25 63.5497 100.645 63.0867C100.367 63.241 100.089 63.3954 99.8115 63.5497C102.065 64.1053 104.318 64.6917 106.571 65.309Z" fill="black"/>
<path fill-rule="evenodd" clip-rule="evenodd" d="M110.398 62.8089C109.627 62.3768 108.886 61.9447 108.145 61.5126C108.886 61.0804 109.596 60.6792 110.336 60.2471C111.108 60.6792 111.849 61.1113 112.59 61.5434C112.837 61.3891 113.083 61.2656 113.361 61.1113C111.787 60.2162 110.244 59.2903 108.67 58.3952C108.392 58.5495 108.145 58.7038 107.898 58.8273C108.546 59.1977 109.194 59.568 109.843 59.9384C109.102 60.3705 108.361 60.8027 107.651 61.2039C107.003 60.8335 106.355 60.4631 105.707 60.0928C105.429 60.2471 105.182 60.3705 104.935 60.5249C106.509 61.42 108.083 62.3459 109.627 63.241C109.873 63.0867 110.12 62.9324 110.398 62.8089Z" fill="black"/>
<path fill-rule="evenodd" clip-rule="evenodd" d="M115.46 59.8767C115.09 58.8582 114.689 57.8705 114.318 56.8211C114.195 56.6359 114.071 56.4507 113.948 56.2346C113.979 56.2346 113.979 56.2346 114.01 56.2346C114.226 56.389 114.442 56.5124 114.627 56.6668C115.676 57.2841 116.757 57.9014 117.806 58.5187C118.053 58.3643 118.3 58.2409 118.547 58.0866C116.973 57.1915 115.43 56.2655 113.855 55.3704C113.608 55.5247 113.392 55.6482 113.145 55.7717C113.516 56.7594 113.886 57.747 114.257 58.7347C114.349 58.9199 114.442 59.136 114.565 59.3212H114.534C114.318 59.1977 114.133 59.0434 113.948 58.9199C112.899 58.3026 111.88 57.7162 110.831 57.1297C110.584 57.2841 110.337 57.4075 110.09 57.5619C111.664 58.4569 113.238 59.3829 114.781 60.278C114.997 60.1237 115.244 60.0002 115.46 59.8767Z" fill="black"/>
<path fill-rule="evenodd" clip-rule="evenodd" d="M119.905 54.321C119.905 54.321 119.874 54.321 119.874 54.2901C119.905 54.2592 119.936 54.2592 119.966 54.2284C120.244 53.9506 120.399 53.6111 119.812 53.2715C119.04 52.8394 118.145 52.8703 117.189 53.4259C116.54 53.7963 115.892 54.1666 115.275 54.537C116.849 55.4321 118.423 56.3581 119.966 57.2532C120.645 56.8828 121.294 56.4815 121.973 56.1111C123.207 55.4012 123.176 54.9074 122.281 54.3827C121.479 53.9197 120.522 54.0432 119.997 54.2592C119.997 54.2592 119.966 54.2901 119.905 54.321ZM118.516 55.5247C118.917 55.3086 119.318 55.0617 119.719 54.8457C120.491 54.4136 121.108 54.5987 121.51 54.8148C121.942 55.0617 122.281 55.3395 121.571 55.7408C121.139 55.9877 120.676 56.2655 120.244 56.5124C119.658 56.2037 119.102 55.8642 118.516 55.5247ZM116.571 54.4136C116.942 54.1975 117.312 53.9814 117.713 53.7654C118.3 53.4259 118.824 53.6111 119.164 53.7963C119.473 53.9814 119.781 54.2284 119.102 54.5987C118.732 54.8148 118.361 55.0309 118.022 55.2161C117.528 54.9691 117.034 54.6913 116.571 54.4136Z" fill="black"/>
<path fill-rule="evenodd" clip-rule="evenodd" d="M121.788 50.648C120.306 51.5123 120.769 52.4691 122.189 53.3024C123.701 54.1667 125.244 54.3519 126.695 53.4876C127.498 53.0247 127.93 52.5925 128.084 52.2839C127.837 52.2222 127.59 52.1604 127.312 52.0678C127.158 52.3765 126.788 52.8086 126.14 53.179C125.553 53.5185 124.473 53.6728 123.238 52.9629C123.177 52.9321 123.084 52.8703 123.022 52.8395C124.041 52.253 125.09 51.6357 126.109 51.0493C124.411 50.0616 123.269 49.8147 121.788 50.648ZM124.936 51.2345C124.164 51.6975 123.362 52.1296 122.59 52.5925C121.788 52.1296 121.386 51.4814 122.312 50.9567C123.207 50.432 123.979 50.6789 124.936 51.2345Z" fill="black"/>
<path fill-rule="evenodd" clip-rule="evenodd" d="M131.634 52.8086C131.881 52.6543 132.128 52.5308 132.405 52.3765C131.603 51.9135 130.8 51.4505 130.029 50.9875C130.708 50.9567 131.356 50.8332 131.973 50.4628C133.455 49.6295 132.745 48.8887 131.294 48.0553C129.874 47.222 128.516 46.759 127.066 47.6232C126.448 47.9936 126.171 48.4875 126.201 48.9196C125.954 48.827 125.738 48.7344 125.491 48.6727C125.306 48.7652 125.152 48.8578 124.967 48.9504C127.189 50.2468 129.411 51.5122 131.634 52.8086ZM131.448 50.1542C130.986 50.4011 130.276 50.6789 129.535 50.7098C128.578 50.1542 127.652 49.6295 126.695 49.0739C126.788 48.6418 127.127 48.2097 127.59 47.9319C128.239 47.5615 129.195 47.7776 130.492 48.5183C131.788 49.29 132.097 49.7838 131.448 50.1542Z" fill="black"/>
<path fill-rule="evenodd" clip-rule="evenodd" d="M133.702 44.3207C133.269 44.3515 132.467 44.5367 131.757 44.938C130.337 45.7713 130.862 46.6973 132.282 47.4998C133.702 48.3332 135.245 48.5801 136.665 47.7776C137.498 47.2837 137.683 46.8208 137.745 46.6664C137.498 46.6047 137.251 46.5121 136.973 46.4504C136.911 46.6664 136.757 47.0985 136.109 47.4689C135.337 47.901 134.381 47.8084 133.084 47.0368C131.788 46.296 131.51 45.7405 132.313 45.2775C132.961 44.9071 133.671 44.8145 134.072 44.7528C133.948 44.5985 133.825 44.4441 133.702 44.3207Z" fill="black"/>
<path fill-rule="evenodd" clip-rule="evenodd" d="M139.874 45.7713C139.504 44.7528 139.103 43.7651 138.732 42.7466C138.609 42.5614 138.486 42.3762 138.362 42.1601C138.393 42.1601 138.393 42.1601 138.424 42.1601C138.64 42.3145 138.856 42.4379 139.041 42.5922C140.091 43.2095 141.171 43.8268 142.22 44.4441C142.467 44.2898 142.714 44.1664 142.961 44.012C141.387 43.1169 139.844 42.191 138.269 41.2959C138.023 41.4502 137.776 41.5737 137.56 41.6971C137.93 42.6848 138.3 43.6725 138.671 44.6602C138.763 44.8454 138.856 45.0615 138.979 45.2466H138.948C138.763 45.1232 138.547 44.9689 138.362 44.8454C137.313 44.2281 136.294 43.6417 135.245 43.0552C134.998 43.2095 134.751 43.333 134.504 43.4873C136.078 44.3824 137.652 45.3084 139.195 46.2035C139.381 46.0491 139.628 45.9257 139.874 45.7713Z" fill="black"/>
<path fill-rule="evenodd" clip-rule="evenodd" d="M146.109 42.1909C144.751 41.3884 143.362 40.6168 142.004 39.8143C142.498 39.5365 142.961 39.2588 143.455 38.981C143.27 38.8575 143.084 38.7649 142.868 38.6414C141.634 39.3513 140.43 40.0612 139.195 40.7711C139.381 40.8946 139.597 40.9872 139.782 41.1107C140.276 40.8329 140.739 40.5551 141.232 40.2773C142.621 41.0798 143.979 41.8514 145.337 42.6539C145.584 42.4687 145.831 42.3453 146.109 42.1909Z" fill="black"/>
<path fill-rule="evenodd" clip-rule="evenodd" d="M145.523 36.9749C144.041 37.8082 144.504 38.7959 145.955 39.6293C147.467 40.4935 148.98 40.6787 150.461 39.8145C151.264 39.3515 151.696 38.9194 151.881 38.6107C151.603 38.549 151.356 38.4873 151.11 38.4255C150.955 38.7342 150.585 39.1663 149.937 39.5367C149.35 39.8762 148.27 40.0305 147.035 39.3206C146.974 39.2898 146.881 39.228 146.819 39.1972C147.838 38.6107 148.887 37.9934 149.906 37.407C148.147 36.3576 147.005 36.1106 145.523 36.9749ZM148.671 37.5304C147.869 37.9934 147.097 38.4255 146.325 38.8885C145.523 38.4255 145.153 37.7774 146.048 37.2835C146.943 36.7279 147.714 36.9749 148.671 37.5304Z" fill="black"/>
<path fill-rule="evenodd" clip-rule="evenodd" d="M154.999 37.0366C153.641 36.2341 152.252 35.4624 150.894 34.6599C151.387 34.3822 151.881 34.1044 152.375 33.8266C152.19 33.7031 152.005 33.6105 151.789 33.4871C150.554 34.197 149.319 34.9069 148.116 35.6168C148.301 35.7402 148.517 35.8328 148.702 35.9563C149.196 35.6785 149.69 35.4007 150.153 35.1229C151.542 35.9254 152.9 36.697 154.258 37.4995C154.505 37.3452 154.752 37.1909 154.999 37.0366Z" fill="black"/>
</svg>
