<svg width="48" height="48" viewBox="0 0 48 48" fill="none" xmlns="http://www.w3.org/2000/svg">
<path d="M42.75 10.888C42.75 9.61832 42.1658 8.45703 41.1473 7.70199C40.3822 7.13476 39.4714 6.86781 38.5534 6.92494C38.2181 4.15405 35.8555 2 33 2C30.1445 2 27.7819 4.15405 27.4466 6.92494C26.5283 6.86766 25.6178 7.13476 24.8527 7.70199C23.8342 8.45708 23.25 9.61832 23.25 10.888C23.25 12.1507 23.8586 13.3239 24.8368 14.0621C24.0184 15.0128 23.564 16.2237 23.564 17.5109C23.564 20.4309 25.9358 22.8065 28.8511 22.8065C30.1146 22.8065 31.3099 22.3628 32.2541 21.5647V45.5029C32.2541 45.9155 32.5881 46.25 33 46.25C33.4119 46.25 33.7459 45.9155 33.7459 45.5029V21.5647C34.6901 22.3628 35.8854 22.8065 37.1489 22.8065C40.0642 22.8065 42.436 20.4309 42.436 17.5109C42.436 16.2238 41.9816 15.0128 41.1632 14.0621C42.1414 13.3239 42.75 12.1507 42.75 10.888ZM37.1489 21.3123C35.9859 21.3123 34.903 20.7888 34.1776 19.876C34.0676 19.7376 33.9139 19.6456 33.7459 19.6105V15.206C33.756 15.1969 33.7664 15.1884 33.776 15.1787L35.9142 13.0371C36.2055 12.7454 36.2055 12.2724 35.9142 11.9806C35.623 11.6889 35.1507 11.6889 34.8594 11.9806L33.7459 13.0958V8.07617C33.7459 7.66359 33.4119 7.3291 33 7.3291C32.5881 7.3291 32.2541 7.66359 32.2541 8.07617V15.9347L30.4195 14.0972C30.1283 13.8055 29.656 13.8055 29.3647 14.0972C29.0734 14.389 29.0734 14.862 29.3647 15.1537L32.0748 17.8681C32.129 17.9224 32.1896 17.9666 32.2541 18.0007V19.61C32.0861 19.6451 31.9324 19.7375 31.8224 19.8759C31.097 20.7888 30.014 21.3123 28.8511 21.3123C26.7583 21.3123 25.0557 19.607 25.0557 17.5108C25.0557 16.3218 25.5962 15.2231 26.5386 14.4966C26.7532 14.3311 26.8614 14.0621 26.8213 13.7938C26.7811 13.5256 26.5989 13.3001 26.3452 13.205C25.3861 12.8452 24.7417 11.9141 24.7417 10.888C24.7417 10.0968 25.1056 9.37329 25.7402 8.90293C26.3784 8.42979 27.1778 8.29098 27.9338 8.52227C28.1599 8.59145 28.4054 8.54917 28.5954 8.40827C28.7855 8.26737 28.8976 8.0446 28.8976 7.80777V7.60303C28.8976 5.33736 30.7379 3.49414 32.9999 3.49414C35.262 3.49414 37.1023 5.33736 37.1023 7.60303V7.80777C37.1023 8.0446 37.2145 8.26737 37.4045 8.40827C37.5945 8.54917 37.8399 8.5914 38.0661 8.52227C38.822 8.29103 39.6216 8.42984 40.2597 8.90293C40.8943 9.37329 41.2582 10.0968 41.2582 10.888C41.2582 11.9142 40.6138 12.8453 39.6547 13.205C39.401 13.3002 39.2188 13.5256 39.1786 13.7938C39.1385 14.0621 39.2467 14.3311 39.4613 14.4966C40.4037 15.2232 40.9442 16.3219 40.9442 17.5109C40.9443 19.607 39.2416 21.3123 37.1489 21.3123Z" fill="#36BF7D" stroke="#36BF7D" stroke-width="1.4"/>
<path d="M21.75 22.138C21.75 20.8683 21.1658 19.707 20.1473 18.952C19.3822 18.3848 18.4714 18.1178 17.5534 18.1749C17.2181 15.4041 14.8555 13.25 12 13.25C9.14449 13.25 6.78187 15.4041 6.44656 18.1749C5.52828 18.1177 4.6178 18.3848 3.85266 18.952C2.83418 19.7071 2.25 20.8683 2.25 22.138C2.25 23.4007 2.85859 24.5739 3.83675 25.3121C3.01841 26.2628 2.56397 27.4737 2.56397 28.7609C2.56397 31.6809 4.93579 34.0565 7.85112 34.0565C9.11456 34.0565 10.3099 33.6128 11.2541 32.8147V45.5029C11.2541 45.9155 11.5881 46.25 12 46.25C12.4119 46.25 12.7459 45.9155 12.7459 45.5029V32.8147C13.6901 33.6128 14.8854 34.0565 16.1489 34.0565C19.0642 34.0565 21.436 31.6809 21.436 28.7609C21.436 27.4738 20.9816 26.2628 20.1632 25.3121C21.1414 24.5739 21.75 23.4007 21.75 22.138ZM16.1489 32.5623C14.9859 32.5623 13.903 32.0388 13.1776 31.126C13.0676 30.9876 12.9139 30.8956 12.7459 30.8605V26.456C12.756 26.4469 12.7664 26.4384 12.776 26.4287L14.9142 24.2871C15.2055 23.9954 15.2055 23.5224 14.9142 23.2306C14.623 22.9389 14.1507 22.9389 13.8594 23.2306L12.7459 24.3458V19.3262C12.7459 18.9136 12.4119 18.5791 12 18.5791C11.5881 18.5791 11.2541 18.9136 11.2541 19.3262V27.1847L9.41953 25.3472C9.12828 25.0555 8.65598 25.0555 8.36469 25.3472C8.0734 25.639 8.0734 26.112 8.36469 26.4037L11.0748 29.1181C11.129 29.1724 11.1896 29.2166 11.2541 29.2507V30.86C11.0861 30.8951 10.9324 30.9875 10.8224 31.1259C10.097 32.0388 9.01401 32.5623 7.85107 32.5623C5.75831 32.5623 4.0557 30.857 4.0557 28.7608C4.0557 27.5718 4.59617 26.4731 5.53857 25.7466C5.75319 25.5811 5.86139 25.3121 5.82126 25.0438C5.78108 24.7756 5.59889 24.5501 5.34524 24.455C4.38612 24.0952 3.74173 23.1641 3.74173 22.138C3.74173 21.3468 4.10562 20.6233 4.74017 20.1529C5.37835 19.6798 6.17785 19.541 6.93378 19.7723C7.15993 19.8415 7.40538 19.7992 7.59543 19.6583C7.78548 19.5174 7.89757 19.2946 7.89757 19.0578V18.853C7.89757 16.5874 9.73792 14.7441 11.9999 14.7441C14.262 14.7441 16.1023 16.5874 16.1023 18.853V19.0578C16.1023 19.2946 16.2145 19.5174 16.4045 19.6583C16.5945 19.7992 16.8399 19.8414 17.0661 19.7723C17.822 19.541 18.6216 19.6798 19.2597 20.1529C19.8943 20.6233 20.2582 21.3468 20.2582 22.138C20.2582 23.1642 19.6138 24.0953 18.6547 24.455C18.401 24.5502 18.2188 24.7756 18.1786 25.0438C18.1385 25.3121 18.2467 25.5811 18.4613 25.7466C19.4037 26.4732 19.9442 27.5719 19.9442 28.7609C19.9443 30.857 18.2416 32.5623 16.1489 32.5623Z" fill="#36BF7D" stroke="#36BF7D" stroke-width="1.4"/>
</svg>
