<svg width="48" height="48" viewBox="0 0 48 48" fill="none" xmlns="http://www.w3.org/2000/svg">
<path d="M33.75 10.888C33.75 9.61832 33.1658 8.45703 32.1473 7.70199C31.3822 7.13476 30.4714 6.86781 29.5534 6.92494C29.2181 4.15405 26.8555 2 24 2C21.1445 2 18.7819 4.15405 18.4466 6.92494C17.5283 6.86766 16.6178 7.13476 15.8527 7.70199C14.8342 8.45708 14.25 9.61832 14.25 10.888C14.25 12.1507 14.8586 13.3239 15.8368 14.0621C15.0184 15.0128 14.564 16.2237 14.564 17.5109C14.564 20.4309 16.9358 22.8065 19.8511 22.8065C21.1146 22.8065 22.3099 22.3628 23.2541 21.5647V45.5029C23.2541 45.9155 23.5881 46.25 24 46.25C24.4119 46.25 24.7459 45.9155 24.7459 45.5029V21.5647C25.6901 22.3628 26.8854 22.8065 28.1489 22.8065C31.0642 22.8065 33.436 20.4309 33.436 17.5109C33.436 16.2238 32.9816 15.0128 32.1632 14.0621C33.1414 13.3239 33.75 12.1507 33.75 10.888ZM28.1489 21.3123C26.9859 21.3123 25.903 20.7888 25.1776 19.876C25.0676 19.7376 24.9139 19.6456 24.7459 19.6105V15.206C24.756 15.1969 24.7664 15.1884 24.776 15.1787L26.9142 13.0371C27.2055 12.7454 27.2055 12.2724 26.9142 11.9806C26.623 11.6889 26.1507 11.6889 25.8594 11.9806L24.7459 13.0958V8.07617C24.7459 7.66359 24.4119 7.3291 24 7.3291C23.5881 7.3291 23.2541 7.66359 23.2541 8.07617V15.9347L21.4195 14.0972C21.1283 13.8055 20.656 13.8055 20.3647 14.0972C20.0734 14.389 20.0734 14.862 20.3647 15.1537L23.0748 17.8681C23.129 17.9224 23.1896 17.9666 23.2541 18.0007V19.61C23.0861 19.6451 22.9324 19.7375 22.8224 19.8759C22.097 20.7888 21.014 21.3123 19.8511 21.3123C17.7583 21.3123 16.0557 19.607 16.0557 17.5108C16.0557 16.3218 16.5962 15.2231 17.5386 14.4966C17.7532 14.3311 17.8614 14.0621 17.8213 13.7938C17.7811 13.5256 17.5989 13.3001 17.3452 13.205C16.3861 12.8452 15.7417 11.9141 15.7417 10.888C15.7417 10.0968 16.1056 9.37329 16.7402 8.90293C17.3784 8.42979 18.1778 8.29098 18.9338 8.52227C19.1599 8.59145 19.4054 8.54917 19.5954 8.40827C19.7855 8.26737 19.8976 8.0446 19.8976 7.80777V7.60303C19.8976 5.33736 21.7379 3.49414 23.9999 3.49414C26.262 3.49414 28.1023 5.33736 28.1023 7.60303V7.80777C28.1023 8.0446 28.2145 8.26737 28.4045 8.40827C28.5945 8.54917 28.8399 8.5914 29.0661 8.52227C29.822 8.29103 30.6216 8.42984 31.2597 8.90293C31.8943 9.37329 32.2582 10.0968 32.2582 10.888C32.2582 11.9142 31.6138 12.8453 30.6547 13.205C30.401 13.3002 30.2188 13.5256 30.1786 13.7938C30.1385 14.0621 30.2467 14.3311 30.4613 14.4966C31.4037 15.2232 31.9442 16.3219 31.9442 17.5109C31.9443 19.607 30.2416 21.3123 28.1489 21.3123Z" fill="#36BF7D" stroke="#36BF7D" stroke-width="1.4"/>
</svg>
