<svg width="48" height="48" viewBox="0 0 48 48" fill="none" xmlns="http://www.w3.org/2000/svg">
<path fill-rule="evenodd" clip-rule="evenodd" d="M42 24C42 33.9411 33.9411 42 24 42C14.0589 42 6 33.9411 6 24C6 14.0589 14.0589 6 24 6C33.9411 6 42 14.0589 42 24ZM41 24C41 33.3888 33.3888 41 24 41C14.6112 41 7 33.3888 7 24C7 14.6112 14.6112 7 24 7C33.3888 7 41 14.6112 41 24ZM24 34C29.5228 34 34 29.5228 34 24C34 18.4772 29.5228 14 24 14C18.4772 14 14 18.4772 14 24C14 29.5228 18.4772 34 24 34ZM24 33C28.9706 33 33 28.9706 33 24C33 19.0294 28.9706 15 24 15C19.0294 15 15 19.0294 15 24C15 28.9706 19.0294 33 24 33ZM26 24C26 25.1046 25.1046 26 24 26C22.8954 26 22 25.1046 22 24C22 22.8954 22.8954 22 24 22C25.1046 22 26 22.8954 26 24Z" fill="#36BF7D"/>
<path d="M24 42.8C34.383 42.8 42.8 34.383 42.8 24H41.2C41.2 33.4993 33.4993 41.2 24 41.2V42.8ZM5.2 24C5.2 34.383 13.617 42.8 24 42.8V41.2C14.5007 41.2 6.8 33.4993 6.8 24H5.2ZM24 5.2C13.617 5.2 5.2 13.617 5.2 24H6.8C6.8 14.5007 14.5007 6.8 24 6.8V5.2ZM42.8 24C42.8 13.617 34.383 5.2 24 5.2V6.8C33.4993 6.8 41.2 14.5007 41.2 24H42.8ZM24 41.8C33.8307 41.8 41.8 33.8307 41.8 24H40.2C40.2 32.947 32.947 40.2 24 40.2V41.8ZM6.2 24C6.2 33.8307 14.1693 41.8 24 41.8V40.2C15.053 40.2 7.8 32.947 7.8 24H6.2ZM24 6.2C14.1693 6.2 6.2 14.1693 6.2 24H7.8C7.8 15.053 15.053 7.8 24 7.8V6.2ZM41.8 24C41.8 14.1693 33.8307 6.2 24 6.2V7.8C32.947 7.8 40.2 15.053 40.2 24H41.8ZM33.2 24C33.2 29.081 29.081 33.2 24 33.2V34.8C29.9647 34.8 34.8 29.9647 34.8 24H33.2ZM24 14.8C29.081 14.8 33.2 18.919 33.2 24H34.8C34.8 18.0353 29.9647 13.2 24 13.2V14.8ZM14.8 24C14.8 18.919 18.919 14.8 24 14.8V13.2C18.0353 13.2 13.2 18.0353 13.2 24H14.8ZM24 33.2C18.919 33.2 14.8 29.081 14.8 24H13.2C13.2 29.9647 18.0353 34.8 24 34.8V33.2ZM32.2 24C32.2 28.5287 28.5287 32.2 24 32.2V33.8C29.4124 33.8 33.8 29.4124 33.8 24H32.2ZM24 15.8C28.5287 15.8 32.2 19.4713 32.2 24H33.8C33.8 18.5876 29.4124 14.2 24 14.2V15.8ZM15.8 24C15.8 19.4713 19.4713 15.8 24 15.8V14.2C18.5876 14.2 14.2 18.5876 14.2 24H15.8ZM24 32.2C19.4713 32.2 15.8 28.5287 15.8 24H14.2C14.2 29.4124 18.5876 33.8 24 33.8V32.2ZM24 26.8C25.5464 26.8 26.8 25.5464 26.8 24H25.2C25.2 24.6627 24.6627 25.2 24 25.2V26.8ZM21.2 24C21.2 25.5464 22.4536 26.8 24 26.8V25.2C23.3373 25.2 22.8 24.6627 22.8 24H21.2ZM24 21.2C22.4536 21.2 21.2 22.4536 21.2 24H22.8C22.8 23.3373 23.3373 22.8 24 22.8V21.2ZM26.8 24C26.8 22.4536 25.5464 21.2 24 21.2V22.8C24.6627 22.8 25.2 23.3373 25.2 24H26.8Z" fill="#36BF7D"/>
</svg>
