<svg width="48" height="48" viewBox="0 0 48 48" fill="none" xmlns="http://www.w3.org/2000/svg">
<path d="M28.5 20.888C28.5 19.6183 27.9158 18.457 26.8973 17.702C26.1322 17.1348 25.2214 16.8678 24.3034 16.9249C23.9681 14.1541 21.6055 12 18.75 12C15.8945 12 13.5319 14.1541 13.1966 16.9249C12.2783 16.8677 11.3678 17.1348 10.6027 17.702C9.58418 18.4571 9 19.6183 9 20.888C9 22.1507 9.60859 23.3239 10.5868 24.0621C9.76841 25.0128 9.31397 26.2237 9.31397 27.5109C9.31397 30.4309 11.6858 32.8065 14.6011 32.8065C15.8646 32.8065 17.0599 32.3628 18.0041 31.5647V36.7529C18.0041 37.1655 18.3381 37.5 18.75 37.5C19.1619 37.5 19.4959 37.1655 19.4959 36.7529V31.5647C20.4401 32.3628 21.6354 32.8065 22.8989 32.8065C25.8142 32.8065 28.186 30.4309 28.186 27.5109C28.186 26.2238 27.7316 25.0128 26.9132 24.0621C27.8914 23.3239 28.5 22.1507 28.5 20.888V20.888ZM22.8989 31.3123C21.7359 31.3123 20.653 30.7888 19.9276 29.876C19.8176 29.7376 19.6639 29.6456 19.4959 29.6105V25.206C19.506 25.1969 19.5164 25.1884 19.526 25.1787L21.6642 23.0371C21.9555 22.7454 21.9555 22.2724 21.6642 21.9806C21.373 21.6889 20.9007 21.6889 20.6094 21.9806L19.4959 23.0958V18.0762C19.4959 17.6636 19.1619 17.3291 18.75 17.3291C18.3381 17.3291 18.0041 17.6636 18.0041 18.0762V25.9347L16.1695 24.0972C15.8783 23.8055 15.406 23.8055 15.1147 24.0972C14.8234 24.389 14.8234 24.862 15.1147 25.1537L17.8248 27.8681C17.879 27.9224 17.9396 27.9666 18.0041 28.0007V29.61C17.8361 29.6451 17.6824 29.7375 17.5724 29.8759C16.847 30.7888 15.764 31.3123 14.6011 31.3123C12.5083 31.3123 10.8057 29.607 10.8057 27.5108C10.8057 26.3218 11.3462 25.2231 12.2886 24.4966C12.5032 24.3311 12.6114 24.0621 12.5713 23.7938C12.5311 23.5256 12.3489 23.3001 12.0952 23.205C11.1361 22.8452 10.4917 21.9141 10.4917 20.888C10.4917 20.0968 10.8556 19.3733 11.4902 18.9029C12.1284 18.4298 12.9278 18.291 13.6838 18.5223C13.9099 18.5915 14.1554 18.5492 14.3454 18.4083C14.5355 18.2674 14.6476 18.0446 14.6476 17.8078V17.603C14.6476 15.3374 16.4879 13.4941 18.7499 13.4941C21.012 13.4941 22.8523 15.3374 22.8523 17.603V17.8078C22.8523 18.0446 22.9645 18.2674 23.1545 18.4083C23.3445 18.5492 23.5899 18.5914 23.8161 18.5223C24.572 18.291 25.3716 18.4298 26.0097 18.9029C26.6443 19.3733 27.0082 20.0968 27.0082 20.888C27.0082 21.9142 26.3638 22.8453 25.4047 23.205C25.151 23.3002 24.9688 23.5256 24.9286 23.7938C24.8885 24.0621 24.9967 24.3311 25.2113 24.4966C26.1537 25.2232 26.6942 26.3219 26.6942 27.5109C26.6943 29.607 24.9916 31.3123 22.8989 31.3123V31.3123Z" fill="#36BF7D" stroke="#36BF7D" stroke-width="1.4"/>
<path d="M36.2903 28.9365V14.356L38.6131 16.7714C38.8723 17.0409 39.2936 17.0419 39.554 16.7737C39.8145 16.5054 39.8154 16.0695 39.5563 15.8L36.0966 12.2026C36.0964 12.2023 36.0961 12.2021 36.0959 12.2019C35.8367 11.9331 35.4141 11.9323 35.1541 12.2019C35.1539 12.2021 35.1536 12.2023 35.1534 12.2025L31.6937 15.7999C31.4346 16.0694 31.4355 16.5053 31.696 16.7736C31.9564 17.0418 32.3777 17.0408 32.6369 16.7713L34.9597 14.356V28.9365C34.9597 29.3168 35.2575 29.625 35.625 29.625C35.9925 29.625 36.2903 29.3168 36.2903 28.9365Z" fill="#36BF7D" stroke="#36BF7D" stroke-width="1.4"/>
<path d="M36.2903 20.5635V35.144L38.6131 32.7286C38.8723 32.4591 39.2936 32.4581 39.554 32.7263C39.8145 32.9946 39.8154 33.4305 39.5563 33.7L36.0966 37.2974C36.0964 37.2977 36.0961 37.2979 36.0959 37.2981C35.8367 37.5669 35.4141 37.5677 35.1541 37.2981C35.1539 37.2979 35.1536 37.2977 35.1534 37.2975L31.6937 33.7001C31.4346 33.4306 31.4355 32.9947 31.696 32.7264C31.9564 32.4582 32.3777 32.4592 32.6369 32.7287L34.9597 35.144V20.5635C34.9597 20.1832 35.2575 19.875 35.625 19.875C35.9925 19.875 36.2903 20.1832 36.2903 20.5635Z" fill="#36BF7D" stroke="#36BF7D" stroke-width="1.4"/>
</svg>
