<svg width="48" height="48" viewBox="0 0 48 48" fill="none" xmlns="http://www.w3.org/2000/svg">
<path d="M35.4858 5.74314C32.9542 6.12816 30.075 7.0462 28.0606 9.06066C26.0468 11.0744 25.1284 13.9601 24.7432 16.4998C24.701 16.7781 24.6656 17.0498 24.6358 17.3129L29.9392 12.0095C30.525 11.4238 31.4748 11.4238 32.0606 12.0095C32.6464 12.5953 32.6464 13.5451 32.0606 14.1309L26.7946 19.3967C27.0316 19.3674 27.2752 19.3332 27.5242 19.2935C30.0456 18.8919 32.9204 17.9581 34.9392 15.9393C36.9566 13.9219 37.8836 11.049 38.2782 8.5282C38.4636 7.34434 38.5246 6.2821 38.5374 5.49652C37.7474 5.50562 36.6776 5.56184 35.4858 5.74314V5.74314ZM40.0058 4.03508C41.5006 3.9122 41.5008 3.91268 41.5008 3.91318L41.501 3.91728L41.5018 3.92542L41.5036 3.95066L41.5094 4.03614C41.5138 4.10834 41.5194 4.21054 41.5246 4.3398C41.535 4.59816 41.5438 4.9656 41.5388 5.4185C41.5286 6.32208 41.4636 7.57748 41.2422 8.99216C40.8054 11.7822 39.7294 15.3918 37.0606 18.0607C34.393 20.7282 30.7854 21.8118 27.996 22.2562C26.5818 22.4814 25.3268 22.5504 24.4234 22.5634C23.9706 22.5698 23.6032 22.5624 23.3448 22.5528C23.2156 22.548 23.1134 22.5428 23.0414 22.5386L22.9558 22.5332L22.931 22.5314C22.5826 22.5074 22.2408 22.362 21.9744 22.0956C21.7106 21.8318 21.5656 21.494 21.5394 21.1488L21.5376 21.1256L21.5314 21.0396C21.5266 20.967 21.5206 20.864 21.5148 20.7338C21.5032 20.4736 21.4926 20.1036 21.4956 19.6475C21.5016 18.7376 21.5612 17.4734 21.7772 16.0499C22.2028 13.2437 23.2668 9.61186 25.9392 6.93934C28.611 4.26752 32.2348 3.2031 35.0346 2.77724C36.4546 2.56126 37.7154 2.50158 38.6228 2.49564C39.0776 2.49264 39.4466 2.50314 39.706 2.51474C39.8358 2.52054 39.9384 2.52662 40.011 2.53146L40.0968 2.53758L40.122 2.53958L40.1302 2.54026L40.1332 2.54052C40.1336 2.54056 40.1352 2.5407 40.0058 4.03508V4.03508ZM40.0058 4.03508L40.1352 2.5407C40.864 2.60388 41.4408 3.1843 41.5008 3.91318L40.0058 4.03508Z" fill="#36BF7D"/>
<path d="M13.2457 16.5831C15.6353 16.8605 18.7821 17.6641 21.06 19.9385C23.339 22.2142 24.1426 25.3632 24.4192 27.7544C24.5602 28.9748 24.5714 30.061 24.5476 30.843C24.5356 31.2352 24.5148 31.5542 24.4964 31.7792C24.4872 31.8916 24.4786 31.9808 24.4722 32.0442L24.464 32.1196L24.4624 32.1332C24.4272 32.46 24.2848 32.7772 24.0352 33.0282C24.0342 33.0294 24.033 33.0306 24.0318 33.0318C23.78 33.2836 23.461 33.4272 23.1324 33.4624L23.1188 33.464L23.0434 33.472C22.98 33.4786 22.891 33.487 22.7784 33.4962C22.5538 33.5144 22.235 33.535 21.843 33.5466C21.0614 33.57 19.9759 33.5582 18.7562 33.4168C16.3658 33.1396 13.2181 32.336 10.9402 30.0614C8.66097 27.7856 7.85827 24.6362 7.58261 22.245C7.44193 21.0246 7.43127 19.9384 7.45541 19.1563C7.46751 18.7641 7.48849 18.4451 7.50691 18.2202C7.51613 18.1076 7.52473 18.0184 7.53131 17.955L7.53949 17.8796L7.54211 17.857L7.54301 17.8496L7.54333 17.8469C7.54339 17.8464 7.54359 17.8448 9.03225 18.0289C8.84981 16.54 8.85027 16.54 8.85077 16.5399L8.85461 16.5394L8.86201 16.5385L8.88459 16.5359L8.95991 16.5279C9.02321 16.5214 9.11235 16.5129 9.22477 16.5038C9.44945 16.4856 9.76807 16.465 10.1599 16.4533C10.9412 16.43 12.0263 16.4417 13.2457 16.5831V16.5831ZM9.03225 18.0289L8.85077 16.5399C8.16755 16.6236 7.62805 17.1617 7.54359 17.8448L9.03225 18.0289ZM9.21249 19.518C9.21197 19.5181 9.21219 19.518 9.21249 19.518V19.518ZM10.449 19.4471C10.436 20.1014 10.4541 20.9578 10.5629 21.9014C10.8088 24.0348 11.49 26.371 13.0599 27.9386C14.6311 29.5074 16.969 30.1894 19.1019 30.4368C19.1825 30.4462 19.2624 30.4548 19.3417 30.4628L14.9394 26.0606C14.3536 25.4748 14.3536 24.5252 14.9394 23.9394C15.5252 23.3536 16.4749 23.3536 17.0607 23.9394L21.4656 28.344C21.4574 28.2632 21.4484 28.1814 21.439 28.0992C21.1922 25.9656 20.5102 23.6292 18.9402 22.0614C17.3689 20.4924 15.0318 19.8105 12.8999 19.5632C11.9575 19.4538 11.1024 19.4348 10.449 19.4471V19.4471Z" fill="#36BF7D"/>
<path d="M23 2.49999C23.8284 2.49999 24.5 3.17157 24.5 3.99999V44C24.5 44.8284 23.8284 45.5 23 45.5C22.1716 45.5 21.5 44.8284 21.5 44V3.99999C21.5 3.17157 22.1716 2.49999 23 2.49999Z" fill="#36BF7D"/>
</svg>
