<svg width="48" height="48" viewBox="0 0 48 48" fill="none" xmlns="http://www.w3.org/2000/svg">
<path d="M28.125 11.888C28.125 10.6183 27.5408 9.45703 26.5223 8.70199C25.7572 8.13476 24.8464 7.86781 23.9284 7.92494C23.5931 5.15405 21.2305 3 18.375 3C15.5195 3 13.1569 5.15405 12.8216 7.92494C11.9033 7.86766 10.9928 8.13476 10.2277 8.70199C9.20918 9.45708 8.625 10.6183 8.625 11.888C8.625 13.1507 9.23359 14.3239 10.2118 15.0621C9.39341 16.0128 8.93897 17.2237 8.93897 18.5109C8.93897 21.4309 11.3108 23.8065 14.2261 23.8065C15.4896 23.8065 16.6849 23.3628 17.6291 22.5647V46.5029C17.6291 46.9155 17.9631 47.25 18.375 47.25C18.7869 47.25 19.1209 46.9155 19.1209 46.5029V22.5647C20.0651 23.3628 21.2604 23.8065 22.5239 23.8065C25.4392 23.8065 27.811 21.4309 27.811 18.5109C27.811 17.2238 27.3566 16.0128 26.5382 15.0621C27.5164 14.3239 28.125 13.1507 28.125 11.888ZM22.5239 22.3123C21.3609 22.3123 20.278 21.7888 19.5526 20.876C19.4426 20.7376 19.2889 20.6456 19.1209 20.6105V16.206C19.131 16.1969 19.1414 16.1884 19.151 16.1787L21.2892 14.0371C21.5805 13.7454 21.5805 13.2724 21.2892 12.9806C20.998 12.6889 20.5257 12.6889 20.2344 12.9806L19.1209 14.0958V9.07617C19.1209 8.66359 18.7869 8.3291 18.375 8.3291C17.9631 8.3291 17.6291 8.66359 17.6291 9.07617V16.9347L15.7945 15.0972C15.5033 14.8055 15.031 14.8055 14.7397 15.0972C14.4484 15.389 14.4484 15.862 14.7397 16.1537L17.4498 18.8681C17.504 18.9224 17.5646 18.9666 17.6291 19.0007V20.61C17.4611 20.6451 17.3074 20.7375 17.1974 20.8759C16.472 21.7888 15.389 22.3123 14.2261 22.3123C12.1333 22.3123 10.4307 20.607 10.4307 18.5108C10.4307 17.3218 10.9712 16.2231 11.9136 15.4966C12.1282 15.3311 12.2364 15.0621 12.1963 14.7938C12.1561 14.5256 11.9739 14.3001 11.7202 14.205C10.7611 13.8452 10.1167 12.9141 10.1167 11.888C10.1167 11.0968 10.4806 10.3733 11.1152 9.90293C11.7534 9.42979 12.5528 9.29098 13.3088 9.52227C13.5349 9.59145 13.7804 9.54917 13.9704 9.40827C14.1605 9.26737 14.2726 9.0446 14.2726 8.80777V8.60303C14.2726 6.33736 16.1129 4.49414 18.3749 4.49414C20.637 4.49414 22.4773 6.33736 22.4773 8.60303V8.80777C22.4773 9.0446 22.5895 9.26737 22.7795 9.40827C22.9695 9.54917 23.2149 9.5914 23.4411 9.52227C24.197 9.29103 24.9966 9.42984 25.6347 9.90293C26.2693 10.3733 26.6332 11.0968 26.6332 11.888C26.6332 12.9142 25.9888 13.8453 25.0297 14.205C24.776 14.3002 24.5938 14.5256 24.5536 14.7938C24.5135 15.0621 24.6217 15.3311 24.8363 15.4966C25.7787 16.2232 26.3192 17.3219 26.3192 18.5109C26.3193 20.607 24.6166 22.3123 22.5239 22.3123Z" fill="#36BF7D" stroke="#36BF7D" stroke-width="1.4"/>
<path d="M35.9153 34.9365V5.35605L38.2381 7.77136C38.4973 8.04086 38.9186 8.0419 39.179 7.77367C39.4395 7.50544 39.4404 7.06949 39.1813 6.79999L35.7216 3.20256L35.7209 3.20194C35.4617 2.93313 35.0391 2.93227 34.7791 3.20187L34.7784 3.20249L31.3187 6.79992C31.0596 7.06939 31.0605 7.50533 31.321 7.7736C31.5814 8.04183 32.0027 8.04079 32.2619 7.77129L34.5847 5.35605V34.9365C34.5847 35.3168 34.8825 35.625 35.25 35.625C35.6175 35.625 35.9153 35.3168 35.9153 34.9365Z" fill="#36BF7D" stroke="#36BF7D" stroke-width="1.4"/>
<path d="M35.9153 30.3135V44.894L38.2381 42.4786C38.4973 42.2091 38.9186 42.2081 39.179 42.4763C39.4395 42.7446 39.4404 43.1805 39.1813 43.45L35.7216 47.0474C35.7214 47.0477 35.7211 47.0479 35.7209 47.0481C35.4617 47.3169 35.0391 47.3177 34.7791 47.0481C34.7789 47.0479 34.7786 47.0477 34.7784 47.0475L31.3187 43.4501C31.0596 43.1806 31.0605 42.7447 31.321 42.4764C31.5814 42.2082 32.0027 42.2092 32.2619 42.4787L34.5847 44.894V30.3135C34.5847 29.9332 34.8825 29.625 35.25 29.625C35.6175 29.625 35.9153 29.9332 35.9153 30.3135Z" fill="#36BF7D" stroke="#36BF7D" stroke-width="1.4"/>
</svg>
