<svg width="48" height="48" viewBox="0 0 48 48" fill="none" xmlns="http://www.w3.org/2000/svg">
<path fill-rule="evenodd" clip-rule="evenodd" d="M47 24C47 36.7025 36.7025 47 24 47C11.2975 47 1 36.7025 1 24C1 11.2975 11.2975 1 24 1C36.7025 1 47 11.2975 47 24ZM46 24C46 36.1503 36.1503 46 24 46C11.8497 46 2 36.1503 2 24C2 11.8497 11.8497 2 24 2C36.1503 2 46 11.8497 46 24ZM24 42C33.9411 42 42 33.9411 42 24C42 14.0589 33.9411 6 24 6C14.0589 6 6 14.0589 6 24C6 33.9411 14.0589 42 24 42ZM24 41C33.3888 41 41 33.3888 41 24C41 14.6112 33.3888 7 24 7C14.6112 7 7 14.6112 7 24C7 33.3888 14.6112 41 24 41ZM34 24C34 29.5228 29.5228 34 24 34C18.4772 34 14 29.5228 14 24C14 18.4772 18.4772 14 24 14C29.5228 14 34 18.4772 34 24ZM33 24C33 28.9706 28.9706 33 24 33C19.0294 33 15 28.9706 15 24C15 19.0294 19.0294 15 24 15C28.9706 15 33 19.0294 33 24ZM24 26C25.1046 26 26 25.1046 26 24C26 22.8954 25.1046 22 24 22C22.8954 22 22 22.8954 22 24C22 25.1046 22.8954 26 24 26Z" fill="#36BF7D"/>
<path d="M24 47.8C37.1444 47.8 47.8 37.1444 47.8 24H46.2C46.2 36.2607 36.2607 46.2 24 46.2V47.8ZM0.2 24C0.2 37.1444 10.8556 47.8 24 47.8V46.2C11.7393 46.2 1.8 36.2607 1.8 24H0.2ZM24 0.2C10.8556 0.2 0.2 10.8556 0.2 24H1.8C1.8 11.7393 11.7393 1.8 24 1.8V0.2ZM47.8 24C47.8 10.8556 37.1444 0.2 24 0.2V1.8C36.2607 1.8 46.2 11.7393 46.2 24H47.8ZM24 46.8C36.5921 46.8 46.8 36.5921 46.8 24H45.2C45.2 35.7084 35.7084 45.2 24 45.2V46.8ZM1.2 24C1.2 36.5921 11.4079 46.8 24 46.8V45.2C12.2916 45.2 2.8 35.7084 2.8 24H1.2ZM24 1.2C11.4079 1.2 1.2 11.4079 1.2 24H2.8C2.8 12.2916 12.2916 2.8 24 2.8V1.2ZM46.8 24C46.8 11.4079 36.5921 1.2 24 1.2V2.8C35.7084 2.8 45.2 12.2916 45.2 24H46.8ZM41.2 24C41.2 33.4993 33.4993 41.2 24 41.2V42.8C34.383 42.8 42.8 34.383 42.8 24H41.2ZM24 6.8C33.4993 6.8 41.2 14.5007 41.2 24H42.8C42.8 13.617 34.3829 5.2 24 5.2V6.8ZM6.8 24C6.8 14.5007 14.5007 6.8 24 6.8V5.2C13.617 5.2 5.2 13.617 5.2 24H6.8ZM24 41.2C14.5007 41.2 6.8 33.4993 6.8 24H5.2C5.2 34.3829 13.617 42.8 24 42.8V41.2ZM40.2 24C40.2 32.947 32.947 40.2 24 40.2V41.8C33.8307 41.8 41.8 33.8307 41.8 24H40.2ZM24 7.8C32.947 7.8 40.2 15.053 40.2 24H41.8C41.8 14.1693 33.8307 6.2 24 6.2V7.8ZM7.8 24C7.8 15.053 15.053 7.8 24 7.8V6.2C14.1693 6.2 6.2 14.1693 6.2 24H7.8ZM24 40.2C15.053 40.2 7.8 32.947 7.8 24H6.2C6.2 33.8307 14.1693 41.8 24 41.8V40.2ZM24 34.8C29.9647 34.8 34.8 29.9647 34.8 24H33.2C33.2 29.081 29.081 33.2 24 33.2V34.8ZM13.2 24C13.2 29.9647 18.0353 34.8 24 34.8V33.2C18.919 33.2 14.8 29.081 14.8 24H13.2ZM24 13.2C18.0353 13.2 13.2 18.0353 13.2 24H14.8C14.8 18.919 18.919 14.8 24 14.8V13.2ZM34.8 24C34.8 18.0353 29.9647 13.2 24 13.2V14.8C29.081 14.8 33.2 18.919 33.2 24H34.8ZM24 33.8C29.4124 33.8 33.8 29.4124 33.8 24H32.2C32.2 28.5287 28.5287 32.2 24 32.2V33.8ZM14.2 24C14.2 29.4124 18.5876 33.8 24 33.8V32.2C19.4713 32.2 15.8 28.5287 15.8 24H14.2ZM24 14.2C18.5876 14.2 14.2 18.5876 14.2 24H15.8C15.8 19.4713 19.4713 15.8 24 15.8V14.2ZM33.8 24C33.8 18.5876 29.4124 14.2 24 14.2V15.8C28.5287 15.8 32.2 19.4713 32.2 24H33.8ZM25.2 24C25.2 24.6627 24.6627 25.2 24 25.2V26.8C25.5464 26.8 26.8 25.5464 26.8 24H25.2ZM24 22.8C24.6627 22.8 25.2 23.3373 25.2 24H26.8C26.8 22.4536 25.5464 21.2 24 21.2V22.8ZM22.8 24C22.8 23.3373 23.3373 22.8 24 22.8V21.2C22.4536 21.2 21.2 22.4536 21.2 24H22.8ZM24 25.2C23.3373 25.2 22.8 24.6627 22.8 24H21.2C21.2 25.5464 22.4536 26.8 24 26.8V25.2Z" fill="#36BF7D"/>
</svg>
