<svg width="102" height="42" viewBox="0 0 102 42" fill="none" xmlns="http://www.w3.org/2000/svg">
<g clip-path="url(#clip0_49_882)">
<path d="M36.3377 31.7689C34.0665 32.0012 31.4184 34.4156 31.4184 34.4156C31.4184 34.4156 30.2374 34.6342 27.2169 35.9553C24.16 36.4892 21.0141 36.1123 18.1688 34.8711C18.1688 34.8711 18.9319 32.9077 23.7466 33.3405C28.5614 33.7733 30.778 30.794 27.8346 30.1837C24.8913 29.5732 20.6216 28.6986 17.8054 29.1541C15.8704 29.473 11.9914 31.0081 9.46138 32.475C9.46138 32.475 7.06305 29.9376 3.41113 32.6618C5.32318 35.4709 7.89006 37.7695 10.8889 39.3579C13.8878 40.9463 17.2279 41.7766 20.6193 41.7766C24.0107 41.7766 27.3509 40.9463 30.3498 39.3579C33.3486 37.7695 35.9155 35.4709 37.8275 32.6618C37.7003 32.1379 37.3415 31.6641 36.3377 31.7689Z" fill="#1A5632"/>
<path d="M20.44 -4.80912e-05C17.196 0.0622135 14.0113 0.883261 11.1395 2.39771C8.26783 3.91215 5.78832 6.07816 3.89858 8.72324C2.00883 11.3683 0.761021 14.4194 0.254518 17.6334C-0.251984 20.8475 -0.00318196 24.1358 0.981112 27.2363C1.04099 27.4301 1.16188 27.5993 1.32565 27.7183C1.48943 27.8374 1.68728 27.9001 1.88955 27.8969H9.61133C9.89927 27.8957 10.1841 27.8371 10.4492 27.7245C10.7144 27.6119 10.9545 27.4475 11.1557 27.2409C13.615 24.7566 16.9284 23.3094 20.4173 23.1958C20.1856 20.4625 17.9599 18.7087 17.9599 18.7087C16.8083 19.8398 15.3041 20.5394 13.6993 20.6903C11.083 20.8907 8.40762 17.6109 8.40762 17.6109C9.48867 17.333 9.82027 17.1053 11.3646 16.3855C12.2892 15.9544 13.3099 15.7722 14.3261 15.8571C12.7182 14.4495 12.6319 11.1788 13.1724 8.9421C13.4904 7.67416 13.6761 6.37651 13.7266 5.07005C14.6713 5.89003 18.4913 6.26808 20.3128 10.8371C22.1342 15.4061 19.6769 17.8204 19.6769 17.8204C20.4136 18.9019 21.0233 20.0652 21.4938 21.2871C21.5033 21.3074 21.5184 21.3245 21.5373 21.3365C21.5562 21.3485 21.5781 21.3548 21.6005 21.3548C21.6228 21.3548 21.6448 21.3485 21.6636 21.3365C21.6826 21.3245 21.6977 21.3074 21.7073 21.2871C23.6695 17.8569 28.4388 14.0441 29.6425 13.0874C29.6579 13.0791 29.6695 13.0651 29.6749 13.0484C29.6803 13.0317 29.6791 13.0135 29.6715 12.9977C29.6639 12.9819 29.6505 12.9696 29.6341 12.9634C29.6177 12.9572 29.5996 12.9576 29.5834 12.9645C28.3101 13.493 27.1113 14.1868 26.0178 15.0281C24.0828 16.4994 22.4658 19.1734 22.4658 19.1734C22.2559 18.0809 22.3113 16.9537 22.6276 15.8873C22.9438 14.8208 23.5116 13.8464 24.2827 13.0465C26.9353 10.1629 33.299 10.5957 33.299 10.5957C33.299 10.5957 33.5624 15.151 31.0279 18.2532C28.4933 21.3554 24.1328 20.663 24.1328 20.663C23.2948 21.31 22.6903 22.2137 22.4113 23.2367C25.5089 23.5857 28.3942 24.9875 30.5873 27.209C30.7883 27.4127 31.0273 27.5746 31.2908 27.6856C31.5542 27.7966 31.8368 27.8544 32.1225 27.8559H39.8443C40.0466 27.8591 40.2444 27.7964 40.4082 27.6773C40.572 27.5582 40.6929 27.3891 40.7527 27.1953C41.7512 24.0282 41.9825 20.6679 41.4275 17.3932C40.8725 14.1185 39.5473 11.0236 37.5616 8.36506C35.5759 5.70656 32.9869 3.56098 30.0093 2.10622C27.0318 0.651462 23.7513 -0.0705787 20.44 -4.80912e-05Z" fill="#FF9E18"/>
<path d="M14.8439 8.42275C14.7939 9.17439 14.9483 11.6525 15.716 13.2651C16.3533 14.6273 17.2321 15.8622 18.3096 16.9094C18.3214 16.9204 18.3367 16.9272 18.3529 16.9286C18.3691 16.93 18.3852 16.9259 18.3988 16.917C18.4124 16.9081 18.4226 16.8949 18.4279 16.8794C18.4331 16.864 18.433 16.8473 18.4277 16.8319C18.1778 16.1759 17.1149 14.0987 16.6108 13.0737C15.97 11.5542 15.4284 9.99447 14.9892 8.40451C14.9868 8.3852 14.9768 8.36763 14.9615 8.35565C14.9462 8.34371 14.9267 8.33834 14.9075 8.34074C14.8882 8.34315 14.8706 8.35314 14.8587 8.36855C14.8468 8.38392 14.8415 8.40344 14.8439 8.42275Z" fill="white"/>
<path fill-rule="evenodd" clip-rule="evenodd" d="M82.9862 10.2859C82.6241 10.0708 82.3028 9.79321 82.0366 9.46597L80.22 10.7916C80.5311 11.4386 81.0278 11.9778 81.6464 12.3404C82.3982 12.8107 83.2723 13.0468 84.1582 13.0191C85.0946 13.0655 86.0212 12.8049 86.7969 12.2766C87.1228 12.0272 87.3829 11.7018 87.5548 11.3287C87.7261 10.9555 87.8047 10.546 87.7828 10.1356C87.7843 9.88884 87.7425 9.64375 87.6599 9.41132C87.5823 9.18867 87.4599 8.9841 87.3013 8.81C87.158 8.6503 87.006 8.49828 86.8469 8.35445C86.6761 8.20622 86.4848 8.0835 86.2793 7.99003L85.7433 7.73951C85.6117 7.6803 85.4434 7.61192 85.2389 7.53904L84.9028 7.41606C84.812 7.37964 84.6804 7.33406 84.5075 7.27941L84.0536 7.12908C83.9144 7.08231 83.7777 7.02756 83.6446 6.96507C83.5238 6.91452 83.4156 6.83841 83.3269 6.74186C83.256 6.66974 83.2142 6.57417 83.2086 6.47311C83.2086 6.1998 83.436 6.06315 83.8899 6.06315C84.3347 6.06059 84.7732 6.16861 85.1665 6.37743C85.4847 6.51808 85.7708 6.72275 86.0069 6.97875L87.7644 5.78979C87.4895 5.20292 87.03 4.72278 86.4562 4.42321C85.7713 4.00963 84.9849 3.79515 84.1852 3.80368C83.7492 3.80169 83.3147 3.85216 82.8908 3.95401C82.493 4.04711 82.1116 4.20073 81.7597 4.40954C81.419 4.62138 81.14 4.92001 80.9513 5.27503C80.7397 5.67439 80.6336 6.12128 80.6422 6.57335C80.6402 6.87938 80.704 7.18229 80.8284 7.46165C80.9324 7.70719 81.0768 7.93353 81.2558 8.13124C81.4445 8.32347 81.6582 8.48896 81.8912 8.62325C82.0932 8.74905 82.3043 8.85876 82.5226 8.95121L83.1361 9.17899L83.5447 9.3202C83.6354 9.35667 83.7721 9.4022 83.9491 9.45685L84.4035 9.60718C84.5473 9.65389 84.6881 9.70865 84.8258 9.77119C84.9482 9.82189 85.0604 9.89447 85.1573 9.98528C85.193 10.0139 85.2226 10.0498 85.244 10.0906C85.2649 10.1315 85.2771 10.1763 85.2802 10.2222C85.2827 10.2934 85.269 10.3644 85.2409 10.4298C85.2124 10.4952 85.17 10.5535 85.1165 10.6003C84.9104 10.7192 84.6712 10.7686 84.4351 10.7415C83.9175 10.738 83.4131 10.5793 82.9862 10.2859ZM47.834 3.9585H55.1015V6.00839H52.6081V12.8414H50.3368V6.00839H47.8295L47.834 3.9585ZM56.4463 12.8414V3.9585H60.793C61.5223 3.95808 62.2225 4.24617 62.7417 4.76024C63.0391 5.05593 63.2701 5.41235 63.418 5.80536C63.5664 6.19837 63.6281 6.61873 63.6001 7.03791C63.6148 7.64634 63.4573 8.24648 63.1462 8.76892C62.8713 9.22252 62.4745 9.58889 62.0012 9.82578L63.7862 12.8596H61.1974L59.5894 10.1264H58.6811V12.8596L56.4463 12.8414ZM60.4115 7.90797C60.6507 7.91217 60.8843 7.8315 61.07 7.6802C61.1658 7.60014 61.2408 7.49857 61.2898 7.38379C61.3387 7.26901 61.3601 7.14424 61.352 7.01967C61.3601 6.89577 61.3387 6.77172 61.2898 6.65765C61.2408 6.54359 61.1653 6.44284 61.07 6.3637C60.8823 6.21706 60.6497 6.13982 60.4115 6.14505H58.6944V7.90797H60.4115ZM71.3398 6.00839V3.9585H65.1667V12.8414H71.3398V10.7915H67.4153V9.42489H71.0491V7.37498H67.4153V6.00839H71.3398ZM79.0801 3.9585V6.00839H75.1557V7.37498H78.7894V9.42489H75.1557V10.7915H79.0801V12.8414H72.9071V3.9585H79.0801ZM55.1514 16.4858V18.604H51.1724V20.2029H54.8923V22.3212H51.1724V25.3687H48.9012V16.4858H55.1514ZM56.4698 19.1651C56.2535 19.7264 56.1526 20.3258 56.1735 20.9272C56.1526 21.5286 56.2535 22.128 56.4698 22.6893C56.686 23.2506 57.0129 23.7623 57.4316 24.1934C58.3022 25.0187 59.4543 25.4785 60.6523 25.4785C61.8498 25.4785 63.0024 25.0187 63.8724 24.1934C64.2855 23.7592 64.6084 23.2467 64.821 22.6858C65.0342 22.1249 65.1332 21.527 65.1128 20.9272C65.1337 20.3266 65.0342 19.7278 64.8195 19.1666C64.6048 18.6054 64.2799 18.0934 63.8633 17.661C63.4476 17.2347 62.9473 16.9003 62.3955 16.6791C61.8431 16.4579 61.251 16.3548 60.6564 16.3764C60.0597 16.3561 59.4655 16.4598 58.9101 16.6809C58.3553 16.9019 57.8519 17.2356 57.4316 17.661C57.0129 18.0922 56.686 18.6038 56.4698 19.1651ZM58.5807 21.8149C58.4771 21.531 58.4307 21.2293 58.4445 20.9272H58.4221C58.4108 20.6236 58.4608 20.3209 58.5684 20.0369C58.676 19.7529 58.8398 19.4934 59.0489 19.2736C59.2585 19.0625 59.5099 18.8972 59.7863 18.7882C60.0632 18.6792 60.3596 18.6289 60.6564 18.6404C60.9532 18.6274 61.2495 18.6779 61.5249 18.7887C61.8008 18.8994 62.0497 19.0678 62.2552 19.2828C62.6479 19.7437 62.8637 20.3301 62.8637 20.9363C62.8637 21.5426 62.6479 22.1289 62.2552 22.5899C62.0497 22.8048 61.8008 22.9732 61.5249 23.084C61.2495 23.1947 60.9532 23.2453 60.6564 23.2322C60.358 23.2431 60.0607 23.1907 59.7833 23.0784C59.5063 22.9662 59.2559 22.7966 59.0489 22.5808C58.8433 22.3592 58.6847 22.0989 58.5807 21.8149ZM66.5438 25.3687V16.4858H70.8906C71.6234 16.4914 72.3237 16.7879 72.8393 17.3103C73.1366 17.606 73.3676 17.9624 73.5155 18.3554C73.6634 18.7485 73.7256 19.1688 73.6976 19.588C73.7119 20.1964 73.5548 20.7965 73.2432 21.319C72.9663 21.7499 72.5766 22.0965 72.1171 22.3212L73.9021 25.3551H71.3128L69.7048 22.6218H68.7965V25.3551L66.5438 25.3687ZM70.5091 20.4353C70.7483 20.4395 70.9813 20.3588 71.1675 20.2075C71.2629 20.1274 71.3383 20.0259 71.3873 19.9111C71.4363 19.7963 71.4577 19.6715 71.449 19.547C71.4577 19.4231 71.4363 19.299 71.3873 19.1849C71.3383 19.0709 71.2629 18.9701 71.1675 18.891C70.9798 18.7444 70.7472 18.6671 70.5091 18.6723H68.7919V20.4353H70.5091ZM85.2572 16.4858H77.9897V18.5357H80.5153V25.3687H82.7633V18.5357H85.2572V16.4858ZM88.8501 16.4858V19.8339H91.9433V16.4858H94.2143V25.3687H91.9433V22.0206H88.8501V25.3687H86.5791V16.4858H88.8501ZM102 18.5357V16.4858H95.8407V25.3687H102V23.3188H98.0755V21.9522H101.709V19.9023H98.0755V18.5357H102ZM55.1514 29.0129V31.1312H51.1724V32.7301H54.8923V34.8483H51.1724V37.8958H48.9012V29.0129H55.1514ZM58.9667 34.4793V29.0129H56.7364V34.7253C56.7283 35.1559 56.8063 35.5837 56.9674 35.983C57.1281 36.3823 57.3678 36.7447 57.6723 37.0486C58.0109 37.3769 58.4138 37.6314 58.8555 37.796C59.2971 37.9606 59.7684 38.0319 60.2386 38.0052C60.7103 38.031 61.1821 37.9594 61.6253 37.7948C62.0685 37.6302 62.4729 37.3763 62.8141 37.0486C63.1135 36.7425 63.3481 36.379 63.5041 35.9798C63.6602 35.5806 63.7346 35.154 63.7224 34.7253V29.0129H61.4743V34.4793C61.4957 34.6572 61.4789 34.8375 61.4259 35.0084C61.3723 35.1794 61.2836 35.3371 61.1653 35.4711C61.0469 35.6051 60.9016 35.7124 60.7384 35.7859C60.5757 35.8593 60.3992 35.8974 60.2202 35.8974C60.0417 35.8974 59.8653 35.8593 59.7026 35.7859C59.5394 35.7124 59.394 35.6051 59.2757 35.4711C59.1574 35.3371 59.0681 35.1794 59.0151 35.0084C58.9621 34.8375 58.9452 34.6572 58.9667 34.4793ZM64.8129 29.0129H72.0804V31.0628H69.587V37.8958H67.3384V31.0628H64.8312L64.8129 29.0129ZM75.401 34.4793V29.0129H73.1932V34.7253C73.181 35.154 73.2554 35.5806 73.4115 35.9798C73.5675 36.379 73.8021 36.7425 74.1015 37.0486C74.8175 37.6659 75.7304 38.0053 76.675 38.0053C77.619 38.0053 78.5319 37.6659 79.2479 37.0486C79.5473 36.7425 79.7824 36.379 79.9384 35.9798C80.0945 35.5806 80.1685 35.154 80.1567 34.7253V29.0129H77.9081V34.4793C77.9296 34.6572 77.9132 34.8375 77.8597 35.0084C77.8066 35.1794 77.7179 35.3371 77.5991 35.4711C77.4808 35.6051 77.3354 35.7124 77.1722 35.7859C77.0095 35.8593 76.8331 35.8974 76.6546 35.8974C76.4761 35.8974 76.2991 35.8593 76.1364 35.7859C75.9737 35.7124 75.8278 35.6051 75.7095 35.4711C75.5912 35.3371 75.5025 35.1794 75.4489 35.0084C75.3959 34.8375 75.3796 34.6572 75.401 34.4793ZM81.7917 37.8958V29.0129H86.1385C86.8683 29.0125 87.5685 29.3006 88.0872 29.8147C88.385 30.1104 88.6155 30.4668 88.7634 30.8598C88.9119 31.2528 88.9741 31.6732 88.9455 32.0924C88.9603 32.7008 88.8027 33.3009 88.4916 33.8234C88.2172 34.2769 87.8205 34.6433 87.3467 34.8802L89.1322 37.9141H86.5429L84.9349 35.1808H84.0266V37.9141L81.7917 37.8958ZM85.757 32.9624C85.9967 32.9666 86.2298 32.886 86.4159 32.7347C86.5113 32.6545 86.5863 32.553 86.6352 32.4382C86.6842 32.3235 86.7056 32.1987 86.6974 32.0741C86.7056 31.9502 86.6842 31.8261 86.6352 31.7121C86.5863 31.598 86.5113 31.4973 86.4159 31.4182C86.2277 31.2715 85.9952 31.1943 85.757 31.1995H84.0312V32.9624H85.757ZM96.6853 31.0628V29.0129H90.5128V37.8958H96.6853V35.8459H92.7609V34.4793H96.3946V32.4294H92.7609V31.0628H96.6853Z" fill="#1A5632"/>
</g>
<defs>
<clipPath id="clip0_49_882">
<rect width="102" height="42" fill="white"/>
</clipPath>
</defs>
</svg>
