<svg width="48" height="48" viewBox="0 0 48 48" fill="none" xmlns="http://www.w3.org/2000/svg">
<path d="M47.25 10.888C47.25 9.61832 46.6658 8.45703 45.6473 7.70199C44.8822 7.13476 43.9714 6.86781 43.0534 6.92494C42.7181 4.15405 40.3555 2 37.5 2C34.6445 2 32.2819 4.15405 31.9466 6.92494C31.0283 6.86766 30.1178 7.13476 29.3527 7.70199C28.3342 8.45708 27.75 9.61832 27.75 10.888C27.75 12.1507 28.3586 13.3239 29.3368 14.0621C28.5184 15.0128 28.064 16.2237 28.064 17.5109C28.064 20.4309 30.4358 22.8065 33.3511 22.8065C34.6146 22.8065 35.8099 22.3628 36.7541 21.5647V45.5029C36.7541 45.9155 37.0881 46.25 37.5 46.25C37.9119 46.25 38.2459 45.9155 38.2459 45.5029V21.5647C39.1901 22.3628 40.3854 22.8065 41.6489 22.8065C44.5642 22.8065 46.936 20.4309 46.936 17.5109C46.936 16.2238 46.4816 15.0128 45.6632 14.0621C46.6414 13.3239 47.25 12.1507 47.25 10.888ZM41.6489 21.3123C40.4859 21.3123 39.403 20.7888 38.6776 19.876C38.5676 19.7376 38.4139 19.6456 38.2459 19.6105V15.206C38.256 15.1969 38.2664 15.1884 38.276 15.1787L40.4142 13.0371C40.7055 12.7454 40.7055 12.2724 40.4142 11.9806C40.123 11.6889 39.6507 11.6889 39.3594 11.9806L38.2459 13.0958V8.07617C38.2459 7.66359 37.9119 7.3291 37.5 7.3291C37.0881 7.3291 36.7541 7.66359 36.7541 8.07617V15.9347L34.9195 14.0972C34.6283 13.8055 34.156 13.8055 33.8647 14.0972C33.5734 14.389 33.5734 14.862 33.8647 15.1537L36.5748 17.8681C36.629 17.9224 36.6896 17.9666 36.7541 18.0007V19.61C36.5861 19.6451 36.4324 19.7375 36.3224 19.8759C35.597 20.7888 34.514 21.3123 33.3511 21.3123C31.2583 21.3123 29.5557 19.607 29.5557 17.5108C29.5557 16.3218 30.0962 15.2231 31.0386 14.4966C31.2532 14.3311 31.3614 14.0621 31.3213 13.7938C31.2811 13.5256 31.0989 13.3001 30.8452 13.205C29.8861 12.8452 29.2417 11.9141 29.2417 10.888C29.2417 10.0968 29.6056 9.37329 30.2402 8.90293C30.8784 8.42979 31.6778 8.29098 32.4338 8.52227C32.6599 8.59145 32.9054 8.54917 33.0954 8.40827C33.2855 8.26737 33.3976 8.0446 33.3976 7.80777V7.60303C33.3976 5.33736 35.2379 3.49414 37.4999 3.49414C39.762 3.49414 41.6023 5.33736 41.6023 7.60303V7.80777C41.6023 8.0446 41.7145 8.26737 41.9045 8.40827C42.0945 8.54917 42.3399 8.5914 42.5661 8.52227C43.322 8.29103 44.1216 8.42984 44.7597 8.90293C45.3943 9.37329 45.7582 10.0968 45.7582 10.888C45.7582 11.9142 45.1138 12.8453 44.1547 13.205C43.901 13.3002 43.7188 13.5256 43.6786 13.7938C43.6385 14.0621 43.7467 14.3311 43.9613 14.4966C44.9037 15.2232 45.4442 16.3219 45.4442 17.5109C45.4443 19.607 43.7416 21.3123 41.6489 21.3123Z" fill="#36BF7D" stroke="#36BF7D" stroke-width="1.4"/>
<path d="M20.625 22.138C20.625 20.8683 20.0408 19.707 19.0223 18.952C18.2572 18.3848 17.3464 18.1178 16.4284 18.1749C16.0931 15.4041 13.7305 13.25 10.875 13.25C8.01949 13.25 5.65687 15.4041 5.32156 18.1749C4.40328 18.1177 3.4928 18.3848 2.72766 18.952C1.70918 19.7071 1.125 20.8683 1.125 22.138C1.125 23.4007 1.73359 24.5739 2.71175 25.3121C1.89341 26.2628 1.43897 27.4737 1.43897 28.7609C1.43897 31.6809 3.81079 34.0565 6.72612 34.0565C7.98956 34.0565 9.18487 33.6128 10.1291 32.8147V45.5029C10.1291 45.9155 10.4631 46.25 10.875 46.25C11.2869 46.25 11.6209 45.9155 11.6209 45.5029V32.8147C12.5651 33.6128 13.7604 34.0565 15.0239 34.0565C17.9392 34.0565 20.311 31.6809 20.311 28.7609C20.311 27.4738 19.8566 26.2628 19.0382 25.3121C20.0164 24.5739 20.625 23.4007 20.625 22.138ZM15.0239 32.5623C13.8609 32.5623 12.778 32.0388 12.0526 31.126C11.9426 30.9876 11.7889 30.8956 11.6209 30.8605V26.456C11.631 26.4469 11.6414 26.4384 11.651 26.4287L13.7892 24.2871C14.0805 23.9954 14.0805 23.5224 13.7892 23.2306C13.498 22.9389 13.0257 22.9389 12.7344 23.2306L11.6209 24.3458V19.3262C11.6209 18.9136 11.2869 18.5791 10.875 18.5791C10.4631 18.5791 10.1291 18.9136 10.1291 19.3262V27.1847L8.29453 25.3472C8.00328 25.0555 7.53098 25.0555 7.23969 25.3472C6.9484 25.639 6.9484 26.112 7.23969 26.4037L9.94975 29.1181C10.004 29.1724 10.0646 29.2166 10.1291 29.2507V30.86C9.96109 30.8951 9.80739 30.9875 9.69739 31.1259C8.97199 32.0388 7.88901 32.5623 6.72607 32.5623C4.63331 32.5623 2.9307 30.857 2.9307 28.7608C2.9307 27.5718 3.47117 26.4731 4.41357 25.7466C4.62819 25.5811 4.73639 25.3121 4.69626 25.0438C4.65608 24.7756 4.47389 24.5501 4.22024 24.455C3.26112 24.0952 2.61673 23.1641 2.61673 22.138C2.61673 21.3468 2.98062 20.6233 3.61517 20.1529C4.25335 19.6798 5.05285 19.541 5.80878 19.7723C6.03493 19.8415 6.28038 19.7992 6.47043 19.6583C6.66048 19.5174 6.77257 19.2946 6.77257 19.0578V18.853C6.77257 16.5874 8.61292 14.7441 10.8749 14.7441C13.137 14.7441 14.9773 16.5874 14.9773 18.853V19.0578C14.9773 19.2946 15.0895 19.5174 15.2795 19.6583C15.4695 19.7992 15.7149 19.8414 15.9411 19.7723C16.697 19.541 17.4966 19.6798 18.1347 20.1529C18.7693 20.6233 19.1332 21.3468 19.1332 22.138C19.1332 23.1642 18.4888 24.0953 17.5297 24.455C17.276 24.5502 17.0938 24.7756 17.0536 25.0438C17.0135 25.3121 17.1217 25.5811 17.3363 25.7466C18.2787 26.4732 18.8192 27.5719 18.8192 28.7609C18.8193 30.857 17.1166 32.5623 15.0239 32.5623Z" fill="#36BF7D" stroke="#36BF7D" stroke-width="1.4"/>
<path d="M33.375 34.7682C33.375 33.8906 32.9706 33.0879 32.2655 32.5661C31.7357 32.174 31.1052 31.9895 30.4697 32.029C30.2376 30.1138 28.6019 28.625 26.625 28.625C24.6481 28.625 23.0124 30.1138 22.7803 32.029C22.1446 31.9894 21.5142 32.174 20.9845 32.5661C20.2794 33.088 19.875 33.8906 19.875 34.7682C19.875 35.641 20.2963 36.4518 20.9735 36.9621C20.407 37.6191 20.0924 38.4561 20.0924 39.3458C20.0924 41.364 21.7344 43.0059 23.7527 43.0059C24.6274 43.0059 25.4549 42.6993 26.1086 42.1477V45.7336C26.1086 46.0188 26.3398 46.25 26.625 46.25C26.9102 46.25 27.1414 46.0188 27.1414 45.7336V42.1477C27.7951 42.6993 28.6226 43.0059 29.4973 43.0059C31.5156 43.0059 33.1576 41.364 33.1576 39.3458C33.1576 38.4561 32.843 37.6192 32.2765 36.9621C32.9537 36.4518 33.375 35.641 33.375 34.7682V34.7682ZM29.4973 41.9732C28.6922 41.9732 27.9424 41.6114 27.4402 40.9805C27.3641 40.8848 27.2577 40.8212 27.1414 40.797V37.7527C27.1484 37.7464 27.1556 37.7405 27.1622 37.7338L28.6425 36.2536C28.8442 36.0519 28.8442 35.725 28.6425 35.5234C28.4409 35.3217 28.1139 35.3217 27.9123 35.5234L27.1414 36.2942V32.8247C27.1414 32.5395 26.9102 32.3083 26.625 32.3083C26.3398 32.3083 26.1086 32.5395 26.1086 32.8247V38.2563L24.8385 36.9863C24.6369 36.7847 24.3099 36.7847 24.1082 36.9863C23.9066 37.188 23.9066 37.5149 24.1082 37.7165L25.9844 39.5926C26.022 39.6302 26.064 39.6607 26.1086 39.6843V40.7966C25.9923 40.8209 25.8859 40.8848 25.8097 40.9804C25.3075 41.6114 24.5578 41.9732 23.7527 41.9732C22.3038 41.9732 21.1251 40.7945 21.1251 39.3457C21.1251 38.5239 21.4993 37.7645 22.1517 37.2624C22.3003 37.148 22.3752 36.962 22.3474 36.7766C22.3196 36.5912 22.1935 36.4354 22.0179 36.3696C21.3539 36.121 20.9077 35.4774 20.9077 34.7682C20.9077 34.2214 21.1597 33.7212 21.599 33.3961C22.0408 33.0691 22.5943 32.9732 23.1176 33.133C23.2742 33.1809 23.4441 33.1516 23.5757 33.0542C23.7073 32.9569 23.7849 32.8029 23.7849 32.6392V32.4977C23.7849 30.9317 25.0589 29.6577 26.625 29.6577C28.191 29.6577 29.4651 30.9317 29.4651 32.4977V32.6392C29.4651 32.8029 29.5427 32.9569 29.6742 33.0542C29.8058 33.1516 29.9757 33.1808 30.1323 33.133C30.6556 32.9732 31.2092 33.0692 31.651 33.3961C32.0903 33.7212 32.3422 34.2214 32.3422 34.7682C32.3422 35.4774 31.8961 36.121 31.2321 36.3696C31.0565 36.4354 30.9303 36.5912 30.9025 36.7766C30.8747 36.9621 30.9496 37.148 31.0982 37.2624C31.7507 37.7646 32.1248 38.524 32.1248 39.3458C32.1249 40.7945 30.9461 41.9732 29.4973 41.9732V41.9732Z" fill="#36BF7D" stroke="#36BF7D" stroke-width="1.8"/>
</svg>
