<svg width="48" height="48" viewBox="0 0 48 48" fill="none" xmlns="http://www.w3.org/2000/svg">
<g clip-path="url(#clip0_71_270)">
<path d="M30.3169 45.1867V39.1748H38.4826C43.5805 39.1748 47.7281 35.0273 47.7281 29.9293C47.7281 26.6225 45.994 23.6331 43.2132 21.9839C43.4942 21.0714 43.636 20.123 43.636 19.1509C43.636 15.8368 41.9676 12.8135 39.222 11.0445C39.2385 10.8076 39.2468 10.5712 39.2468 10.3367C39.2468 4.63733 34.6101 0.000549316 28.9107 0.000549316C25.5182 0.000549316 22.5024 1.64361 20.6168 4.17552C19.5855 3.79574 18.4966 3.6028 17.3647 3.6028C12.1531 3.6028 7.91316 7.84274 7.91316 13.0543C7.91316 13.2417 7.91897 13.4304 7.9305 13.6197C5.45813 15.2449 3.95878 17.9894 3.95878 20.9953C3.95878 21.8482 4.07803 22.6809 4.31437 23.4841C1.82147 25.0058 0.271875 27.7139 0.271875 30.7059C0.271875 35.3757 4.071 39.1748 8.74078 39.1748H15.9582V45.1867H1.5C1.5 45.1867 0 45.5 0 46.593C0 47.686 1.5 47.9992 1.5 47.9992L46.5 48C46.5 48 48 47.686 48 46.593C48 45.5 46.5 45.1867 46.5 45.1867H30.3169ZM28.9106 2.81305C33.0592 2.81305 36.4342 6.18814 36.4342 10.3367C36.4342 10.7431 36.3997 11.1587 36.3315 11.5717L36.164 12.5871L37.081 13.0539C39.3894 14.2292 40.8234 16.5653 40.8234 19.1509C40.8234 20.1704 40.6038 21.1521 40.1705 22.0688L39.536 23.411L40.9104 23.9719C43.3434 24.9647 44.9155 27.3032 44.9155 29.9294C44.9155 33.4765 42.0297 36.3624 38.4825 36.3624H30.3169V32.868L35.8846 27.3003C36.4338 26.7512 36.4338 25.8608 35.8846 25.3116V25.3116C35.3355 24.7624 34.4451 24.7624 33.8959 25.3116L30.3169 28.8906V23.5469L34.3331 19.5307C34.8822 18.9815 34.8822 18.0911 34.3331 17.542V17.542C33.7839 16.9928 32.8935 16.9928 32.3444 17.542L30.3169 19.5695V15.9724C30.3169 15.1957 29.6873 14.5661 28.9106 14.5661V14.5661V14.5661C28.134 14.5661 27.5044 15.1957 27.5044 15.9724V19.623L25.4234 17.542C24.8742 16.9928 23.9838 16.9928 23.4346 17.542V17.542C22.8855 18.0911 22.8855 18.9815 23.4346 19.5307L27.5044 23.6004V28.9441L23.8718 25.3115C23.3226 24.7623 22.4322 24.7623 21.8831 25.3115V25.3115C21.3339 25.8607 21.3339 26.7511 21.8831 27.3002L27.5043 32.9214V36.3623H19.3386C15.7914 36.3623 12.9055 33.4765 12.9055 29.9293C12.9055 27.3031 14.4776 24.9646 16.9106 23.9718L18.2851 23.4109L17.6506 22.0687C17.2173 21.1521 16.9976 20.1704 16.9976 19.1508C16.9976 16.5652 18.4316 14.2291 20.74 13.0538L21.6571 12.587L21.4896 11.5716C21.4214 11.1586 21.3868 10.743 21.3868 10.3366C21.387 6.18814 24.7621 2.81305 28.9106 2.81305ZM3.08438 30.7059C3.08438 28.3968 4.46672 26.3406 6.606 25.4676L7.98047 24.9067L7.34597 23.5646C6.9645 22.7576 6.771 21.8931 6.771 20.9953C6.771 18.7186 8.03381 16.6614 10.0666 15.6265L10.9836 15.1597L10.8161 14.1445C10.7559 13.7796 10.7254 13.4128 10.7254 13.0544C10.7254 9.39364 13.7036 6.41539 17.3644 6.41539C18.0134 6.41539 18.6412 6.5053 19.2424 6.68211C18.8112 7.81892 18.5744 9.05061 18.5744 10.3368C18.5744 10.5712 18.5827 10.8076 18.5993 11.0446C15.8537 12.8135 14.1852 15.8369 14.1852 19.151C14.1852 20.1231 14.3271 21.0715 14.608 21.984C11.8272 23.6331 10.0931 26.6225 10.0931 29.9294C10.0931 32.4275 11.0894 34.697 12.705 36.3624H8.74078C5.62181 36.3623 3.08438 33.8249 3.08438 30.7059ZM27.5044 39.1748V45.1867H18.7707V39.1748H27.5044Z" fill="#36BF7D"/>
</g>
<defs>
<clipPath id="clip0_71_270">
<rect width="48" height="48" fill="white"/>
</clipPath>
</defs>
</svg>
