<svg width="48" height="48" viewBox="0 0 48 48" fill="none" xmlns="http://www.w3.org/2000/svg">
<path d="M28.125 17.888C28.125 16.6183 27.5408 15.457 26.5223 14.702C25.7572 14.1348 24.8464 13.8678 23.9284 13.9249C23.5931 11.1541 21.2305 9 18.375 9C15.5195 9 13.1569 11.1541 12.8216 13.9249C11.9033 13.8677 10.9928 14.1348 10.2277 14.702C9.20918 15.4571 8.625 16.6183 8.625 17.888C8.625 19.1507 9.23359 20.3239 10.2118 21.0621C9.39341 22.0128 8.93897 23.2237 8.93897 24.5109C8.93897 27.4309 11.3108 29.8065 14.2261 29.8065C15.4896 29.8065 16.6849 29.3628 17.6291 28.5647V41.2529C17.6291 41.6655 17.9631 42 18.375 42C18.7869 42 19.1209 41.6655 19.1209 41.2529V28.5647C20.0651 29.3628 21.2604 29.8065 22.5239 29.8065C25.4392 29.8065 27.811 27.4309 27.811 24.5109C27.811 23.2238 27.3566 22.0128 26.5382 21.0621C27.5164 20.3239 28.125 19.1507 28.125 17.888ZM22.5239 28.3123C21.3609 28.3123 20.278 27.7888 19.5526 26.876C19.4426 26.7376 19.2889 26.6456 19.1209 26.6105V22.206C19.131 22.1969 19.1414 22.1884 19.151 22.1787L21.2892 20.0371C21.5805 19.7454 21.5805 19.2724 21.2892 18.9806C20.998 18.6889 20.5257 18.6889 20.2344 18.9806L19.1209 20.0958V15.0762C19.1209 14.6636 18.7869 14.3291 18.375 14.3291C17.9631 14.3291 17.6291 14.6636 17.6291 15.0762V22.9347L15.7945 21.0972C15.5033 20.8055 15.031 20.8055 14.7397 21.0972C14.4484 21.389 14.4484 21.862 14.7397 22.1537L17.4498 24.8681C17.504 24.9224 17.5646 24.9666 17.6291 25.0007V26.61C17.4611 26.6451 17.3074 26.7375 17.1974 26.8759C16.472 27.7888 15.389 28.3123 14.2261 28.3123C12.1333 28.3123 10.4307 26.607 10.4307 24.5108C10.4307 23.3218 10.9712 22.2231 11.9136 21.4966C12.1282 21.3311 12.2364 21.0621 12.1963 20.7938C12.1561 20.5256 11.9739 20.3001 11.7202 20.205C10.7611 19.8452 10.1167 18.9141 10.1167 17.888C10.1167 17.0968 10.4806 16.3733 11.1152 15.9029C11.7534 15.4298 12.5528 15.291 13.3088 15.5223C13.5349 15.5915 13.7804 15.5492 13.9704 15.4083C14.1605 15.2674 14.2726 15.0446 14.2726 14.8078V14.603C14.2726 12.3374 16.1129 10.4941 18.3749 10.4941C20.637 10.4941 22.4773 12.3374 22.4773 14.603V14.8078C22.4773 15.0446 22.5895 15.2674 22.7795 15.4083C22.9695 15.5492 23.2149 15.5914 23.4411 15.5223C24.197 15.291 24.9966 15.4298 25.6347 15.9029C26.2693 16.3733 26.6332 17.0968 26.6332 17.888C26.6332 18.9142 25.9888 19.8453 25.0297 20.205C24.776 20.3002 24.5938 20.5256 24.5536 20.7938C24.5135 21.0621 24.6217 21.3311 24.8363 21.4966C25.7787 22.2232 26.3192 23.3219 26.3192 24.5109C26.3193 26.607 24.6166 28.3123 22.5239 28.3123Z" fill="#36BF7D" stroke="#36BF7D" stroke-width="1.4"/>
<path d="M35.9153 25.9365V11.356L38.2381 13.7714C38.4973 14.0409 38.9186 14.0419 39.179 13.7737C39.4395 13.5054 39.4404 13.0695 39.1813 12.8L35.7216 9.20256C35.7214 9.20232 35.7211 9.20215 35.7209 9.20194C35.4617 8.93313 35.0391 8.93227 34.7791 9.20187C34.7789 9.20212 34.7786 9.20229 34.7784 9.20249L31.3187 12.7999C31.0596 13.0694 31.0605 13.5053 31.321 13.7736C31.5814 14.0418 32.0027 14.0408 32.2619 13.7713L34.5847 11.356V25.9365C34.5847 26.3168 34.8825 26.625 35.25 26.625C35.6175 26.625 35.9153 26.3168 35.9153 25.9365Z" fill="#36BF7D" stroke="#36BF7D" stroke-width="1.4"/>
<path d="M35.9153 25.0635V39.644L38.2381 37.2286C38.4973 36.9591 38.9186 36.9581 39.179 37.2263C39.4395 37.4946 39.4404 37.9305 39.1813 38.2L35.7216 41.7974C35.7214 41.7977 35.7211 41.7979 35.7209 41.7981C35.4617 42.0669 35.0391 42.0677 34.7791 41.7981C34.7789 41.7979 34.7786 41.7977 34.7784 41.7975L31.3187 38.2001C31.0596 37.9306 31.0605 37.4947 31.321 37.2264C31.5814 36.9582 32.0027 36.9592 32.2619 37.2287L34.5847 39.644V25.0635C34.5847 24.6832 34.8825 24.375 35.25 24.375C35.6175 24.375 35.9153 24.6832 35.9153 25.0635Z" fill="#36BF7D" stroke="#36BF7D" stroke-width="1.4"/>
</svg>
