<svg width="48" height="48" viewBox="0 0 48 48" fill="none" xmlns="http://www.w3.org/2000/svg">
<g clip-path="url(#clip0_71_267)">
<path d="M42.382 16.7304C42.382 14.3404 41.2806 12.1544 39.3604 10.7332C37.9178 9.66544 36.2007 9.16294 34.47 9.27047C33.8379 4.05469 29.3835 0 24 0C18.6164 0 14.162 4.05469 13.5299 9.27047C11.7986 9.16266 10.082 9.66544 8.63948 10.7332C6.71929 12.1545 5.61792 14.3404 5.61792 16.7304C5.61792 19.1073 6.76533 21.3156 8.60948 22.7052C7.06664 24.4946 6.20986 26.774 6.20986 29.1969C6.20986 34.6934 10.6815 39.1651 16.1779 39.1651C18.5599 39.1651 20.8135 38.33 22.5937 36.8277V46.5938C22.5937 47.3704 23.2233 48 24 48C24.7766 48 25.4062 47.3704 25.4062 46.5938V36.8277C27.1864 38.33 29.44 39.1651 31.822 39.1651C37.3184 39.1651 41.79 34.6934 41.79 29.1969C41.79 26.7742 40.9333 24.4947 39.3904 22.7052C41.2346 21.3156 42.382 19.1073 42.382 16.7304V16.7304ZM31.822 36.3526C29.6295 36.3526 27.5877 35.3671 26.22 33.6489C26.0127 33.3884 25.723 33.2153 25.4062 33.1493V24.8584C25.4252 24.8413 25.4448 24.8253 25.463 24.807L29.4943 20.7758C30.0434 20.2266 30.0434 19.3362 29.4943 18.787C28.9452 18.2378 28.0547 18.2378 27.5055 18.787L25.4062 20.8863V11.4375C25.4062 10.6609 24.7766 10.0312 24 10.0312C23.2233 10.0312 22.5937 10.6609 22.5937 11.4375V26.23L19.1349 22.7712C18.5858 22.222 17.6954 22.222 17.1462 22.7712C16.597 23.3204 16.597 24.2107 17.1462 24.7599L22.2555 29.8693C22.3578 29.9716 22.4721 30.0548 22.5936 30.119V33.1483C22.2769 33.2143 21.9871 33.3883 21.7798 33.6488C20.4121 35.3671 18.3704 36.3525 16.1778 36.3525C12.2323 36.3525 9.02226 33.1425 9.02226 29.1968C9.02226 26.9587 10.0412 24.8906 11.818 23.523C12.2226 23.2115 12.4266 22.7051 12.351 22.2002C12.2752 21.6952 11.9317 21.2708 11.4535 21.0918C9.64523 20.4145 8.43033 18.6619 8.43033 16.7304C8.43033 15.2411 9.11639 13.8791 10.3127 12.9938C11.5159 12.1031 13.0232 11.8418 14.4484 12.2772C14.8748 12.4074 15.3375 12.3278 15.6959 12.0626C16.0542 11.7974 16.2655 11.3781 16.2655 10.9323V10.5469C16.2655 6.28209 19.7352 2.8125 23.9999 2.8125C28.2645 2.8125 31.7342 6.28209 31.7342 10.5469V10.9323C31.7342 11.3781 31.9456 11.7974 32.3039 12.0626C32.6622 12.3278 33.1248 12.4073 33.5513 12.2772C34.9764 11.8419 36.4839 12.1032 37.687 12.9938C38.8833 13.8791 39.5694 15.2411 39.5694 16.7304C39.5694 18.662 38.3545 20.4146 36.5462 21.0918C36.068 21.2709 35.7244 21.6952 35.6488 22.2002C35.5731 22.7052 35.777 23.2116 36.1816 23.5231C37.9585 24.8908 38.9775 26.9588 38.9775 29.1969C38.9775 33.1426 35.7675 36.3526 31.822 36.3526V36.3526Z" fill="#36BF7D"/>
</g>
<defs>
<clipPath id="clip0_71_267">
<rect width="48" height="48" fill="white"/>
</clipPath>
</defs>
</svg>
