<svg width="509" height="89" viewBox="0 0 509 89" fill="none" xmlns="http://www.w3.org/2000/svg">
<path d="M44.764 64.728L53.444 78.368C48.5667 84.9813 40.9613 88.288 30.628 88.288C21.3693 88.288 13.9293 85.6013 8.308 80.228C2.76933 74.9373 0 67.828 0 58.9C0 50.5507 2.728 43.6067 8.184 38.068C13.8053 32.364 20.9147 29.512 29.512 29.512C39.68 29.512 47.2853 32.1573 52.328 37.448L43.772 52.08C40.3 48.608 36.332 46.872 31.868 46.872C28.5613 46.872 25.7093 47.988 23.312 50.22C20.9973 52.452 19.84 55.3453 19.84 58.9C19.84 62.4547 21.08 65.348 23.56 67.58C26.2053 69.812 29.0573 70.928 32.116 70.928C36.6627 70.928 40.8787 68.8613 44.764 64.728Z" fill="#36BF7D"/>
<path d="M70.4756 48.484L65.8876 34.968C71.8396 31.3307 78.7423 29.512 86.5956 29.512C94.6969 29.512 100.566 31.4547 104.204 35.34C107.924 39.2253 109.784 45.1773 109.784 53.196V86.8H93.6636V81.716C90.9356 85.6013 86.0583 87.544 79.0316 87.544C73.7409 87.544 69.4836 85.9733 66.2596 82.832C63.0356 79.6907 61.4236 75.392 61.4236 69.936C61.4236 64.0667 63.2423 59.52 66.8796 56.296C70.5996 53.072 75.4769 51.46 81.5116 51.46C86.2236 51.46 89.8609 52.4933 92.4236 54.56C92.8369 48.1947 90.2743 45.012 84.7356 45.012C80.9329 45.012 76.1796 46.1693 70.4756 48.484ZM85.3556 72.044C88.6623 72.044 91.0183 71.0933 92.4236 69.192V65.72C90.6876 64.48 88.3316 63.86 85.3556 63.86C83.7849 63.86 82.5036 64.232 81.5116 64.976C80.5196 65.72 80.0236 66.7533 80.0236 68.076C80.0236 69.316 80.5196 70.308 81.5116 71.052C82.5036 71.7133 83.7849 72.044 85.3556 72.044Z" fill="#36BF7D"/>
<path d="M142.004 86.8H123.404V31H142.004V35.464C144.484 31.8267 148.328 30.008 153.536 30.008C157.422 30.008 160.315 30.7107 162.216 32.116L155.644 49.476C153.247 48.0707 150.974 47.368 148.824 47.368C145.766 47.368 143.492 48.6907 142.004 51.336V86.8Z" fill="#36BF7D"/>
<path d="M170.297 82.336V0H188.897V32.488C192.782 30.504 196.874 29.512 201.173 29.512C209.274 29.512 215.681 32.1573 220.393 37.448C225.187 42.7387 227.585 49.6 227.585 58.032C227.585 67.2907 224.65 74.648 218.781 80.104C212.994 85.56 205.058 88.288 194.973 88.288C190.757 88.288 186.251 87.7093 181.457 86.552C176.745 85.312 173.025 83.9067 170.297 82.336ZM196.709 46.872C193.898 46.872 191.294 48.0707 188.897 50.468V69.316C190.798 70.3907 193.113 70.928 195.841 70.928C199.395 70.928 202.247 69.8947 204.397 67.828C206.629 65.6787 207.745 62.7853 207.745 59.148C207.745 55.2627 206.67 52.2453 204.521 50.096C202.454 47.9467 199.85 46.872 196.709 46.872Z" fill="#36BF7D"/>
<path d="M244.681 79.98C239.06 74.3587 236.249 67.332 236.249 58.9C236.249 50.468 239.06 43.4413 244.681 37.82C250.302 32.2813 257.825 29.512 267.249 29.512C276.673 29.512 284.154 32.2813 289.693 37.82C295.397 43.3587 298.249 50.3853 298.249 58.9C298.249 67.4147 295.397 74.4413 289.693 79.98C284.154 85.5187 276.673 88.288 267.249 88.288C257.825 88.288 250.302 85.5187 244.681 79.98ZM256.089 58.9C256.089 62.372 257.122 65.2653 259.189 67.58C261.338 69.812 264.025 70.928 267.249 70.928C270.556 70.928 273.242 69.8533 275.309 67.704C277.376 65.472 278.409 62.5373 278.409 58.9C278.409 55.428 277.334 52.576 275.185 50.344C273.118 48.0293 270.473 46.872 267.249 46.872C264.025 46.872 261.338 47.988 259.189 50.22C257.122 52.3693 256.089 55.2627 256.089 58.9Z" fill="#36BF7D"/>
<path d="M328.576 86.8H309.976V31H328.576V35.34C332.213 31.7853 336.801 30.008 342.34 30.008C357.468 30.008 365.032 37.8613 365.032 53.568V86.8H346.432V56.792C346.432 53.7333 345.605 51.4187 343.952 49.848C342.381 48.1947 340.149 47.368 337.256 47.368C334.032 47.368 331.138 48.6493 328.576 51.212V86.8Z" fill="#36BF7D"/>
<path d="M398.877 86.8H380.277V31H398.877V86.8ZM378.665 11.78C378.665 8.63867 379.74 6.11734 381.889 4.21601C384.038 2.232 386.725 1.24 389.949 1.24C392.842 1.24 395.322 2.232 397.389 4.21601C399.456 6.20001 400.489 8.72134 400.489 11.78C400.489 15.1693 399.456 17.8973 397.389 19.964C395.322 22.0307 392.842 23.064 389.949 23.064C386.642 23.064 383.914 22.072 381.765 20.088C379.698 18.0213 378.665 15.252 378.665 11.78Z" fill="#36BF7D"/>
<path d="M443.161 70.308C443.161 68.82 439.689 67.2493 432.745 65.596C430.265 65.0173 428.033 64.356 426.049 63.612C424.148 62.868 422.164 61.8347 420.097 60.512C418.031 59.1893 416.419 57.4533 415.261 55.304C414.187 53.072 413.649 50.5507 413.649 47.74C413.649 42.1187 415.675 37.696 419.725 34.472C423.776 31.1653 429.025 29.512 435.473 29.512C445.311 29.512 453.123 32.0333 458.909 37.076L451.965 50.22C446.84 46.748 441.715 45.012 436.589 45.012C435.349 45.012 434.316 45.26 433.489 45.756C432.663 46.252 432.249 46.8307 432.249 47.492C432.249 48.484 433.241 49.3107 435.225 49.972C437.292 50.6333 439.772 51.336 442.665 52.08C445.559 52.7413 448.452 53.6507 451.345 54.808C454.239 55.8827 456.677 57.66 458.661 60.14C460.728 62.62 461.761 65.72 461.761 69.44C461.761 75.144 459.571 79.732 455.189 83.204C450.891 86.5933 445.063 88.288 437.705 88.288C432.249 88.288 427 87.172 421.957 84.94C416.915 82.5427 413.691 80.228 412.285 77.996L421.089 65.844C422.825 67.58 425.553 69.192 429.273 70.68C433.076 72.0853 436.3 72.788 438.945 72.788C441.756 72.788 443.161 71.9613 443.161 70.308Z" fill="#36BF7D"/>
<path d="M472.3 65.596V15.5H490.9V31H506.4V48.36H490.9V64.728C490.9 68.8613 492.098 70.928 494.496 70.928C497.141 70.928 499.91 69.8533 502.804 67.704L508.384 81.964C503.589 86.18 497.348 88.288 489.66 88.288C483.625 88.288 479.202 86.428 476.392 82.708C473.664 78.9053 472.3 73.2013 472.3 65.596Z" fill="#36BF7D"/>
</svg>
