<svg width="283" height="197" viewBox="0 0 283 197" fill="none" xmlns="http://www.w3.org/2000/svg">
<path fill-rule="evenodd" clip-rule="evenodd" d="M198.149 0C151.359 0 113.292 38.0158 113.292 84.7449V103.603C113.292 127.77 95.0258 147.727 71.5656 150.502V143.415L95.4185 119.593C97.6014 117.41 97.6014 113.873 95.4185 111.691C93.2322 109.508 89.6886 109.508 87.5031 111.691L71.5656 127.611V103.602C71.5656 100.515 69.0624 98.0119 65.9718 98.0119C62.8804 98.0119 60.3772 100.515 60.3772 103.602V127.611L44.4398 111.691C42.2542 109.508 38.7098 109.508 36.5243 111.691C34.3414 113.873 34.3414 117.41 36.5243 119.593L60.3772 143.415V150.502C36.917 147.724 18.651 127.768 18.651 103.603C18.651 77.5448 39.8811 56.3437 65.9744 56.3437C75.1127 56.3437 83.8652 58.9736 91.367 63.7513C92.6212 57.3871 94.4401 51.2296 96.7557 45.3152C87.394 40.3798 76.8732 37.7159 65.9744 37.7159C29.5951 37.7159 0 67.2738 0 103.603C0 138.049 26.6101 166.388 60.3772 169.235V191.412C60.3772 194.497 62.8804 197 65.9718 197C69.0624 197 71.5656 194.497 71.5656 191.412V169.237C105.333 166.39 131.943 138.05 131.943 103.603V84.7449C131.943 48.2877 161.642 18.6269 198.149 18.6269C234.653 18.6269 264.349 48.2877 264.349 84.7449C264.349 118.958 238.196 147.181 204.81 150.528V137.496L236.845 105.5C239.448 102.904 239.448 98.6918 236.845 96.0933C234.244 93.4957 230.029 93.4957 227.426 96.0933L204.81 118.679V84.7431C204.81 81.0681 201.827 78.0896 198.149 78.0896C194.469 78.0896 191.487 81.0681 191.487 84.7431V118.679L168.87 96.0933C166.268 93.4957 162.054 93.4957 159.451 96.0933C156.849 98.6918 156.849 102.904 159.451 105.5L191.487 137.496V150.52C176.286 148.958 162.144 142.115 151.45 131.531C149.392 137.797 146.668 143.761 143.35 149.337C156.79 160.662 173.617 167.778 191.487 169.208V190.347C191.487 194.021 194.469 197 198.149 197C201.827 197 204.81 194.021 204.81 190.347V169.204C248.493 165.796 283 129.233 283 84.7449C283 38.0158 244.935 0 198.149 0Z" fill="#36BF7D"/>
</svg>
